<?xml version="1.0" encoding="iso-8859-1"?>
<!-- Generator: Adobe Illustrator 19.0.0, SVG Export Plug-In . SVG Version: 6.00 Build 0)  -->
<svg version="1.1" id="Layer_1" xmlns="http://www.w3.org/2000/svg" xmlns:xlink="http://www.w3.org/1999/xlink" x="0px" y="0px"
	 viewBox="0 0 512 512" style="enable-background:new 0 0 512 512;" xml:space="preserve">
<polygon style="fill:#44E7FF;" points="399.688,147.957 399.688,313.703 345.22,335.491 345.22,126.17 "/>
<polygon style="fill:#C43F9A;" points="399.688,313.703 399.688,503.83 367.007,503.83 345.22,408.767 367.007,313.703 "/>
<polygon style="fill:#FF37AC;" points="367.007,313.703 367.007,503.83 112.314,503.83 112.314,313.703 256.001,282.354 "/>
<path style="fill:#FFE2AA;" d="M360.471,372.202v73.129c-10.774,0-19.5,8.726-19.5,19.5l-27.692-0.001l-29.957-56.063l29.957-56.063
	l27.692-0.001C340.971,363.476,349.697,372.202,360.471,372.202z"/>
<path style="fill:#FFFFFF;" d="M296.939,352.704l8.17,10.893v90.341l-8.17,10.893l-125.908,0.001c0-10.774-8.726-19.5-19.5-19.5
	v-73.129c10.774,0,19.5-8.726,19.5-19.5L296.939,352.704z"/>
<polygon style="fill:#B8F6FF;" points="367.007,147.957 367.007,313.703 309.139,313.703 256.001,282.354 202.863,313.703 
	112.314,313.703 112.314,147.957 256.001,126.17 "/>
<path style="fill:#FF37AC;" d="M370.439,60.209h-32.681h-5.915c-9.848-25.513-32.18-44.816-59.501-50.394
	c-0.057,0.012-0.113,0.023-0.171,0.035c-10.683,2.205-21.657,2.205-32.34,0c-0.057-0.012-0.113-0.023-0.171-0.035
	c-27.321,5.578-49.653,24.881-59.501,50.394h-5.915h-32.681c-16.079,0-29.249,13.159-29.249,29.249v58.499h32.681h222.012h32.681
	V89.458C399.688,73.369,386.517,60.209,370.439,60.209z"/>
<path style="fill:#C43F9A;" d="M370.439,60.209c0,0-29.926-0.225-29.943-0.227c2.283,0.017,6.865,8.529,7.971,10.259
	c3.514,5.497,6.456,11.358,8.788,17.45c4.086,10.675,5.605,22.041,6.31,33.388c0.169,2.715-0.102,27.018,3.018,27.188
	c4.366,0.236,10.511-0.309,12.365-0.309c6.914,0,13.828,0,20.743,0V89.459C399.688,73.369,386.517,60.209,370.439,60.209z"/>
<path style="fill:#33ADC0;" d="M309.14,313.703h-32.681l-20.458-53.139C285.348,260.564,309.14,284.356,309.14,313.703z"/>
<path style="fill:#44E7FF;" d="M256.001,260.564c-29.347,0-53.139,23.792-53.139,53.139h73.597
	C276.459,284.356,267.298,260.564,256.001,260.564z"/>
<g>
	<path style="fill:#FFCA62;" d="M296.939,352.704v18.181c0,4.512,3.658,8.17,8.17,8.17c4.512,0,8.17-3.658,8.17-8.17v-18.181
		H296.939z"/>
	<path style="fill:#FFCA62;" d="M305.109,438.478c-4.512,0-8.17,3.658-8.17,8.17v18.181h16.34v-18.181
		C313.28,442.136,309.622,438.478,305.109,438.478z"/>
	<path style="fill:#FFCA62;" d="M305.109,425.484c-4.512,0-8.17-3.658-8.17-8.17v-17.092c0-4.512,3.658-8.17,8.17-8.17
		c4.512,0,8.17,3.658,8.17,8.17v17.092C313.28,421.826,309.622,425.484,305.109,425.484z"/>
</g>
<path d="M370.434,52.033h-33.183c-6.637-14.424-16.955-26.777-30.09-35.955C292.112,5.56,274.422,0,256.001,0
	S219.89,5.56,204.84,16.078c-13.134,9.18-23.452,21.531-30.09,35.955h-33.183c-20.634,0-37.421,16.787-37.421,37.421V503.83
	c0,4.512,3.658,8.17,8.17,8.17h287.367c4.512,0,8.17-3.658,8.17-8.17V89.454C407.855,68.82,391.068,52.033,370.434,52.033z
	 M316.748,305.534c-4.009-29.954-29.713-53.138-60.747-53.138s-56.738,23.184-60.747,53.138h-74.766v-149.41h271.027v149.409
	h-74.766V305.534z M300.211,305.534h-88.42c3.855-20.906,22.206-36.798,44.21-36.798
	C278.004,268.737,296.357,284.628,300.211,305.534z M141.568,68.374h38.596c3.377,0,6.407-2.077,7.622-5.228
	c10.804-27.996,38.218-46.806,68.215-46.806c29.997,0,57.41,18.81,68.216,46.806c1.216,3.15,4.245,5.228,7.622,5.228h38.596
	c11.624,0,21.08,9.457,21.08,21.08v50.331H120.488V89.454C120.488,77.831,129.945,68.374,141.568,68.374z M120.488,495.66V321.875
	h271.027V495.66H120.488z"/>
<path d="M360.684,364.034c-6.247,0-11.329-5.083-11.329-11.329c0-4.512-3.658-8.17-8.17-8.17H170.817c-4.512,0-8.17,3.658-8.17,8.17
	c0,6.247-5.083,11.329-11.33,11.329c-4.512,0-8.17,3.658-8.17,8.17v73.126c0,4.512,3.658,8.17,8.17,8.17
	c6.247,0,11.33,5.083,11.33,11.329c0,4.512,3.658,8.17,8.17,8.17h170.367c4.512,0,8.17-3.658,8.17-8.17
	c0-6.247,5.083-11.329,11.329-11.329c4.512,0,8.17-3.658,8.17-8.17v-73.126C368.855,367.692,365.197,364.034,360.684,364.034z
	 M352.514,438.391c-8.697,2.694-15.576,9.571-18.27,18.27H313.28v-10.011c0-4.512-3.658-8.17-8.17-8.17
	c-4.512,0-8.17,3.658-8.17,8.17v10.011H177.757c-2.694-8.697-9.572-15.576-18.27-18.27v-59.247
	c8.697-2.694,15.576-9.571,18.27-18.27h119.183v10.011c0,4.512,3.658,8.17,8.17,8.17c4.512,0,8.17-3.658,8.17-8.17v-10.011h20.966
	c2.694,8.697,9.571,15.576,18.27,18.27v59.247H352.514z"/>
<path d="M305.109,392.051c-4.512,0-8.17,3.658-8.17,8.17v17.092c0,4.512,3.658,8.17,8.17,8.17c4.512,0,8.17-3.658,8.17-8.17v-17.092
	C313.28,395.71,309.622,392.051,305.109,392.051z"/>
<g>
</g>
<g>
</g>
<g>
</g>
<g>
</g>
<g>
</g>
<g>
</g>
<g>
</g>
<g>
</g>
<g>
</g>
<g>
</g>
<g>
</g>
<g>
</g>
<g>
</g>
<g>
</g>
<g>
</g>
</svg>
