<?xml version="1.0" encoding="iso-8859-1"?>
<!-- Generator: Adobe Illustrator 19.0.0, SVG Export Plug-In . SVG Version: 6.00 Build 0)  -->
<svg version="1.1" id="Capa_1" xmlns="http://www.w3.org/2000/svg" xmlns:xlink="http://www.w3.org/1999/xlink" x="0px" y="0px"
	 viewBox="0 0 512 512" style="enable-background:new 0 0 512 512;" xml:space="preserve">
<rect x="8" y="84.8" style="fill:#FFFFFF;" width="496" height="419.2"/>
<rect x="40" y="116.8" style="fill:#FDBF5E;" width="432" height="355.2"/>
<rect x="8" y="8" style="fill:#FFFFFF;" width="496" height="76.8"/>
<g>
	<path style="fill:#193651;" d="M0,0v512h512V0H0z M496,496H16V92.8h480V496z M16,76.8V16h480v60.8H16z"/>
	<rect x="48" y="38.4" style="fill:#193651;" width="16" height="16"/>
	<rect x="95.2" y="38.4" style="fill:#193651;" width="16" height="16"/>
	<rect x="142.4" y="38.4" style="fill:#193651;" width="16" height="16"/>
</g>
<g>
	<circle style="fill:#FFFFFF;" cx="427.2" cy="204" r="21.6"/>
	<circle style="fill:#FFFFFF;" cx="319.2" cy="275.2" r="21.6"/>
	<circle style="fill:#FFFFFF;" cx="192.8" cy="225.6" r="21.6"/>
	<circle style="fill:#FFFFFF;" cx="84.8" cy="296.8" r="21.6"/>
</g>
<path style="fill:#193651;" d="M411.2,229.6c4.8,3.2,10.4,4.8,16,4.8c16,0,29.6-13.6,29.6-29.6s-13.6-29.6-29.6-29.6
	s-29.6,13.6-29.6,29.6c0,3.2,0.8,6.4,1.6,9.6L340,255.2c-5.6-5.6-12.8-8.8-21.6-8.8c-12,0-21.6,7.2-26.4,16.8L220.8,232
	c0-1.6,0.8-4,0.8-5.6c0-16-13.6-29.6-29.6-29.6s-29.6,13.6-29.6,29.6c0,2.4,0.8,4.8,0.8,7.2l-60.8,40.8c-4.8-4-12-7.2-19.2-7.2
	c-16,0-29.6,13.6-29.6,29.6s13.6,29.6,29.6,29.6c5.6,0,11.2-1.6,16-4.8v91.2h-36v16h386.4v-16H412V229.6H411.2z M395.2,413.6h-26.4
	V254.4l26.4-18.4V413.6z M427.2,190.4c7.2,0,13.6,6.4,13.6,13.6c0,7.2-6.4,13.6-13.6,13.6s-13.6-6.4-13.6-13.6
	C413.6,196.8,420,190.4,427.2,190.4z M353.6,265.6v148h-26.4V304c12.8-3.2,21.6-15.2,21.6-28c0-2.4,0-4-0.8-6.4L353.6,265.6z
	 M319.2,261.6c7.2,0,13.6,6.4,13.6,13.6s-6.4,13.6-13.6,13.6s-13.6-6.4-13.6-13.6S312,261.6,319.2,261.6z M311.2,304v109.6h-26.4
	V276.8l4.8,2.4C291.2,291.2,300,300.8,311.2,304z M268.8,413.6h-26.4V258.4l26.4,11.2V413.6z M227.2,251.2v162.4h-26.4V254.4
	c5.6-1.6,10.4-4.8,13.6-8.8L227.2,251.2z M184.8,413.6h-26.4V256.8l13.6-9.6c3.2,3.2,8,5.6,12.8,7.2L184.8,413.6L184.8,413.6z
	 M192.8,212c7.2,0,13.6,6.4,13.6,13.6c0,7.2-6.4,13.6-13.6,13.6c-7.2,0-13.6-6.4-13.6-13.6S185.6,212,192.8,212z M84.8,310.4
	c-7.2,0-13.6-6.4-13.6-13.6s6.4-13.6,13.6-13.6s13.6,6.4,13.6,13.6C98.4,304.8,92,310.4,84.8,310.4z M116.8,284.8l26.4-17.6v146.4
	h-26.4C116.8,413.6,116.8,284.8,116.8,284.8z"/>
<g>
</g>
<g>
</g>
<g>
</g>
<g>
</g>
<g>
</g>
<g>
</g>
<g>
</g>
<g>
</g>
<g>
</g>
<g>
</g>
<g>
</g>
<g>
</g>
<g>
</g>
<g>
</g>
<g>
</g>
</svg>
