<?xml version="1.0" encoding="iso-8859-1"?>
<!-- Generator: Adobe Illustrator 19.0.0, SVG Export Plug-In . SVG Version: 6.00 Build 0)  -->
<svg version="1.1" id="Capa_1" xmlns="http://www.w3.org/2000/svg" xmlns:xlink="http://www.w3.org/1999/xlink" x="0px" y="0px"
	 viewBox="0 0 512 512" style="enable-background:new 0 0 512 512;" xml:space="preserve">
<rect x="8" y="104" style="fill:#4FBF9F;" width="496" height="400"/>
<rect x="48" y="144" style="fill:#FFFFFF;" width="416" height="320"/>
<g>
	<rect x="80" y="370.4" style="fill:#F16051;" width="51.2" height="93.6"/>
	<rect x="180.8" y="332" style="fill:#F16051;" width="51.2" height="132"/>
	<rect x="282.4" y="278.4" style="fill:#F16051;" width="51.2" height="185.6"/>
	<rect x="383.2" y="201.6" style="fill:#F16051;" width="51.2" height="262.4"/>
</g>
<rect x="8" y="8" style="fill:#FFFFFF;" width="496" height="96"/>
<g>
	<path style="fill:#193651;" d="M0,0v512h512V0H0z M496,496H16V112h480V496z M16,96V16h480v80H16z"/>
	<circle style="fill:#193651;" cx="64" cy="56" r="13.6"/>
	<circle style="fill:#193651;" cx="115.2" cy="56" r="13.6"/>
	<circle style="fill:#193651;" cx="167.2" cy="56" r="13.6"/>
	<rect x="240.8" y="48" style="fill:#193651;" width="223.2" height="16"/>
</g>
<g>
</g>
<g>
</g>
<g>
</g>
<g>
</g>
<g>
</g>
<g>
</g>
<g>
</g>
<g>
</g>
<g>
</g>
<g>
</g>
<g>
</g>
<g>
</g>
<g>
</g>
<g>
</g>
<g>
</g>
</svg>
