<?xml version="1.0" encoding="iso-8859-1"?>
<!-- Generator: Adobe Illustrator 19.0.0, SVG Export Plug-In . SVG Version: 6.00 Build 0)  -->
<svg version="1.1" id="Capa_1" xmlns="http://www.w3.org/2000/svg" xmlns:xlink="http://www.w3.org/1999/xlink" x="0px" y="0px"
	 viewBox="0 0 512 512" style="enable-background:new 0 0 512 512;" xml:space="preserve">
<polygon style="fill:#FFFFFF;" points="368.8,441.6 223.2,441.6 244,380.8 348,380.8 "/>
<rect x="88" y="8" style="fill:#4FBF9F;" width="416" height="296"/>
<g>
	<rect x="120" y="40" style="fill:#FFFFFF;" width="352" height="232"/>
	<rect x="88" y="304" style="fill:#FFFFFF;" width="416" height="76.8"/>
	<path style="fill:#FFFFFF;" d="M230.4,504H24c-8.8,0-16-7.2-16-16V189.6c0-8.8,7.2-16,16-16h206.4c8.8,0,16,7.2,16,16V488
		C246.4,496.8,239.2,504,230.4,504z"/>
	<path style="fill:#FFFFFF;" d="M8,432.8V488c0,8.8,7.2,16,16,16h206.4c8.8,0,16-7.2,16-16v-55.2H8z"/>
	<path style="fill:#FFFFFF;" d="M246.4,229.6v-39.2c0-8.8-7.2-16-16-16H24c-8.8,0-16,7.2-16,16v39.2H246.4z"/>
</g>
<g>
	<path style="fill:#193651;" d="M512,388.8V0H80v165.6H24c-13.6,0-24,10.4-24,24V488c0,13.6,10.4,24,24,24h206.4
		c13.6,0,24-10.4,24-24v-38.4h132.8v-16h-12l-16-44.8L512,388.8L512,388.8z M496,372.8H254.4V312H496V372.8z M238.4,488
		c0,4.8-3.2,8-8,8H24c-4.8,0-8-3.2-8-8v-47.2h222.4V488z M238.4,424.8H16V237.6h222.4V424.8z M238.4,221.6H16v-31.2c0-4.8,3.2-8,8-8
		h206.4c4.8,0,8,3.2,8,8V221.6z M230.4,165.6H96V16h400v280H254.4V189.6C254.4,176.8,243.2,165.6,230.4,165.6z M254.4,433.6v-44.8
		h88l16,44.8H254.4z"/>
	<path style="fill:#193651;" d="M147.2,193.6h-40c-4.8,0-8,3.2-8,8s3.2,8,8,8h40c4.8,0,8-3.2,8-8
		C155.2,197.6,151.2,193.6,147.2,193.6z"/>
	<rect x="268" y="334.4" style="fill:#193651;" width="64" height="16"/>
	<rect x="364" y="334.4" style="fill:#193651;" width="16" height="16"/>
	<path style="fill:#193651;" d="M147.2,460.8h-40c-4.8,0-8,3.2-8,8s3.2,8,8,8h40c4.8,0,8-3.2,8-8S151.2,460.8,147.2,460.8z"/>
	<rect x="179.2" y="460.8" style="fill:#193651;" width="16" height="16"/>
	<rect x="59.2" y="460.8" style="fill:#193651;" width="16" height="16"/>
</g>
<path style="fill:#2EA2DB;" d="M120.8,289.6c-31.2,0-56,24.8-56,56s24.8,56,56,56s56-24.8,56-56h-56V289.6z"/>
<path style="fill:#FDBF5E;" d="M133.6,276.8v56h56C189.6,301.6,164.8,276.8,133.6,276.8z"/>
<g>
	<rect x="412.8" y="66.4" style="fill:#F16051;" width="36.8" height="178.4"/>
	<rect x="348.8" y="120.8" style="fill:#F16051;" width="36.8" height="124"/>
	<rect x="284.8" y="185.6" style="fill:#F16051;" width="36.8" height="60"/>
</g>
<g>
	<rect x="144" y="64" style="fill:#193651;" width="16" height="16"/>
	<rect x="191.2" y="64" style="fill:#193651;" width="16" height="16"/>
	<rect x="238.4" y="64" style="fill:#193651;" width="16" height="16"/>
</g>
<g>
</g>
<g>
</g>
<g>
</g>
<g>
</g>
<g>
</g>
<g>
</g>
<g>
</g>
<g>
</g>
<g>
</g>
<g>
</g>
<g>
</g>
<g>
</g>
<g>
</g>
<g>
</g>
<g>
</g>
</svg>
