<?xml version="1.0" encoding="iso-8859-1"?>
<!-- Generator: Adobe Illustrator 21.0.0, SVG Export Plug-In . SVG Version: 6.00 Build 0)  -->
<svg version="1.1" id="Capa_1" xmlns="http://www.w3.org/2000/svg" xmlns:xlink="http://www.w3.org/1999/xlink" x="0px" y="0px"
	 viewBox="0 0 512.001 512.001" style="enable-background:new 0 0 512.001 512.001;" xml:space="preserve">
<path style="fill:#6F6571;" d="M264.024,409.333H87.666c-13.282,0-24.049-10.767-24.049-24.049V31.549
	C63.617,18.267,74.384,7.5,87.666,7.5h176.358c13.282,0,24.049,10.767,24.049,24.049v353.736
	C288.073,398.566,277.306,409.333,264.024,409.333z"/>
<rect x="63.621" y="71.63" style="fill:#FFE17D;" width="224.46" height="272.55"/>
<path style="fill:#FFD164;" d="M151.796,320.135c-35.418,0-64.13-28.712-64.13-64.13V71.63H63.617v272.554h224.456v-24.049
	L151.796,320.135L151.796,320.135z"/>
<path d="M379.575,458.229c-22.156-11.011-35.92-33.208-35.92-57.931c0-4.142-3.358-7.5-7.5-7.5s-7.5,3.358-7.5,7.5
	c0,30.457,16.954,57.802,44.244,71.364c1.073,0.533,2.21,0.785,3.332,0.785c2.758,0,5.412-1.527,6.722-4.164
	C384.797,464.574,383.284,460.073,379.575,458.229z"/>
<path d="M325.402,498.767c-29.155-24.587-45.876-60.477-45.876-98.468c0-31.226,25.404-56.63,56.63-56.63s56.63,25.404,56.63,56.63
	c0,4.142,3.358,7.5,7.5,7.5s7.5-3.358,7.5-7.5c0-39.497-32.133-71.63-71.63-71.63s-71.63,32.133-71.63,71.63
	c0,42.422,18.664,82.492,51.207,109.935c1.407,1.187,3.124,1.767,4.831,1.767c2.134,0,4.254-0.906,5.737-2.665
	C328.971,506.168,328.568,501.437,325.402,498.767z"/>
<path d="M336.156,296.603c-57.178,0-103.696,46.518-103.696,103.696c0,23.128,4.46,45.664,13.257,66.981
	c1.58,3.829,5.966,5.65,9.794,4.072c3.829-1.58,5.652-5.965,4.072-9.794c-8.044-19.494-12.123-40.105-12.123-61.26
	c0-48.907,39.789-88.696,88.696-88.696s88.695,39.789,88.695,88.696c0,13.545-11.02,24.565-24.565,24.565
	s-24.565-11.02-24.565-24.565c0-21.816-17.749-39.565-39.565-39.565s-39.565,17.749-39.565,39.565
	c0,41.731,23.042,79.696,60.135,99.078c1.109,0.579,2.296,0.854,3.467,0.854c2.704,0,5.315-1.466,6.654-4.028
	c1.918-3.671,0.497-8.202-3.174-10.121c-32.125-16.786-52.082-49.657-52.082-85.783c0-13.545,11.02-24.565,24.565-24.565
	s24.565,11.02,24.565,24.565c0,21.816,17.749,39.565,39.565,39.565s39.565-17.749,39.565-39.565
	C439.851,343.12,393.333,296.603,336.156,296.603z"/>
<path d="M454.958,334.64c-23.988-43.241-69.511-70.102-118.802-70.102c-33.036,0-64.895,12.053-89.708,33.939
	c-3.106,2.74-3.404,7.479-0.664,10.585c2.74,3.107,7.479,3.404,10.585,0.664c22.071-19.467,50.406-30.188,79.786-30.188
	c43.844,0,84.34,23.902,105.685,62.378c1.37,2.47,3.928,3.863,6.565,3.863c1.23,0,2.479-0.304,3.631-0.943
	C455.659,342.827,456.967,338.262,454.958,334.64z"/>
<path d="M159.797,47.065h32.065c4.142,0,7.5-3.358,7.5-7.5s-3.358-7.5-7.5-7.5h-32.065c-4.142,0-7.5,3.358-7.5,7.5
	S155.655,47.065,159.797,47.065z"/>
<path d="M159.797,368.75c-4.142,0-7.5,3.358-7.5,7.5s3.358,7.5,7.5,7.5h32.065c4.142,0,7.5-3.358,7.5-7.5s-3.358-7.5-7.5-7.5
	H159.797z"/>
<path d="M215.911,336.684H71.101V79.13h209.456v168.858c0,4.142,3.358,7.5,7.5,7.5s7.5-3.358,7.5-7.5V31.549
	C295.557,14.153,281.405,0,264.009,0H87.65C70.254,0,56.101,14.153,56.101,31.549v352.717c0,17.396,14.153,31.549,31.549,31.549
	h120.247c4.142,0,7.5-3.358,7.5-7.5s-3.358-7.5-7.5-7.5H87.65c-9.125,0-16.549-7.424-16.549-16.549v-32.582h144.81
	c4.142,0,7.5-3.358,7.5-7.5S220.053,336.684,215.911,336.684z M87.65,15h176.358c9.125,0,16.549,7.424,16.549,16.549V64.13H71.101
	V31.549C71.101,22.424,78.525,15,87.65,15z"/>
<g>
</g>
<g>
</g>
<g>
</g>
<g>
</g>
<g>
</g>
<g>
</g>
<g>
</g>
<g>
</g>
<g>
</g>
<g>
</g>
<g>
</g>
<g>
</g>
<g>
</g>
<g>
</g>
<g>
</g>
</svg>
