<?xml version="1.0" encoding="iso-8859-1"?>
<!-- Generator: Adobe Illustrator 19.0.0, SVG Export Plug-In . SVG Version: 6.00 Build 0)  -->
<svg version="1.1" id="Capa_1" xmlns="http://www.w3.org/2000/svg" xmlns:xlink="http://www.w3.org/1999/xlink" x="0px" y="0px"
	 viewBox="0 0 518.4 518.4" style="enable-background:new 0 0 518.4 518.4;" xml:space="preserve">
<path style="fill:#FDBF5E;" d="M261.6,11.2L261.6,11.2c-136.8,0-248,111.2-248,248l0,0c0,136.8,111.2,248,248,248l0,0
	c136.8,0,248-111.2,248-248l0,0C509.6,122.4,399.2,11.2,261.6,11.2z"/>
<g>
	<rect x="352" y="11.2" style="fill:#F16051;" width="72.8" height="267.2"/>
	<rect x="225.6" y="83.2" style="fill:#F16051;" width="72.8" height="195.2"/>
	<rect x="99.2" y="155.2" style="fill:#F16051;" width="72.8" height="123.2"/>
</g>
<path style="fill:#FFFFFF;" d="M167.2,453.6h163.2c15.2,32,47.2,53.6,84.8,53.6c52,0,94.4-42.4,94.4-94.4s-42.4-94.4-94.4-94.4
	c-37.6,0-69.6,21.6-84.8,53.6H167.2c-14.4-27.2-43.2-46.4-76.8-46.4S28,344,13.6,372h96v81.6h-96C28,480.8,56.8,500,90.4,500
	S152.8,480.8,167.2,453.6z M464,384.8v56l-48.8,28l-48.8-28v-56l48.8-28L464,384.8z"/>
<g>
	<path style="fill:#193651;" d="M432.8,3.2H344v283.2h88.8V3.2L432.8,3.2z M416.8,270.4H360V19.2h56.8V270.4z"/>
	<path style="fill:#193651;" d="M306.4,75.2h-88.8v211.2h88.8V75.2z M290.4,270.4h-56.8V91.2h56.8V270.4z"/>
	<path style="fill:#193651;" d="M179.2,147.2h-88v139.2h88V147.2z M163.2,270.4h-56V163.2h56V270.4z"/>
	<path style="fill:#193651;" d="M415.2,310.4c-37.6,0-72,20-89.6,53.6H172c-16.8-28.8-48-46.4-81.6-46.4c-35.2,0-67.2,19.2-84,50.4
		L0,380h101.6v65.6H0.8l6.4,12C24,488.8,56,508,91.2,508c33.6,0,64-17.6,81.6-46.4h153.6c17.6,32.8,52,53.6,89.6,53.6
		c56.8,0,102.4-45.6,102.4-102.4C517.6,356,472,310.4,415.2,310.4z M415.2,499.2c-33.6,0-63.2-18.4-77.6-48.8l-2.4-4.8H162.4l-2.4,4
		c-13.6,25.6-40.8,41.6-69.6,41.6c-24.8,0-47.2-11.2-61.6-30.4h89.6V364H28.8c15.2-18.4,37.6-30.4,61.6-30.4c28.8,0,56,16,69.6,41.6
		l2.4,4h172.8l2.4-4.8c14.4-30.4,44-48.8,77.6-48.8c48,0,86.4,38.4,86.4,86.4C501.6,460.8,463.2,499.2,415.2,499.2z"/>
	<path style="fill:#193651;" d="M359.2,380v64.8l56.8,32.8l56.8-32.8V380L416,347.2L359.2,380z M456,436l-40.8,23.2L374.4,436v-46.4
		l40.8-23.2l40.8,23.2L456,436L456,436z"/>
	<rect x="298.4" y="404.8" style="fill:#193651;" width="16" height="16"/>
	<rect x="244.8" y="404.8" style="fill:#193651;" width="16" height="16"/>
	<rect x="191.2" y="404.8" style="fill:#193651;" width="16" height="16"/>
</g>
<g>
</g>
<g>
</g>
<g>
</g>
<g>
</g>
<g>
</g>
<g>
</g>
<g>
</g>
<g>
</g>
<g>
</g>
<g>
</g>
<g>
</g>
<g>
</g>
<g>
</g>
<g>
</g>
<g>
</g>
</svg>
