<?xml version="1.0" encoding="iso-8859-1"?>
<!-- Generator: Adobe Illustrator 19.0.0, SVG Export Plug-In . SVG Version: 6.00 Build 0)  -->
<svg version="1.1" id="Capa_1" xmlns="http://www.w3.org/2000/svg" xmlns:xlink="http://www.w3.org/1999/xlink" x="0px" y="0px"
	 viewBox="0 0 521.6 521.6" style="enable-background:new 0 0 521.6 521.6;" xml:space="preserve">
<rect x="12.8" y="89.6" style="fill:#FFFFFF;" width="375.2" height="302.4"/>
<rect x="44.8" y="121.6" style="fill:#F16051;" width="311.2" height="238.4"/>
<rect x="12.8" y="16.8" style="fill:#FFFFFF;" width="375.2" height="72.8"/>
<g>
	<circle style="fill:#193651;" cx="61.6" cy="52.8" r="12"/>
	<circle style="fill:#193651;" cx="107.2" cy="52.8" r="12"/>
	<circle style="fill:#193651;" cx="152.8" cy="52.8" r="12"/>
</g>
<path style="fill:#4FBF9F;" d="M508.8,496.8v-71.2H424v71.2c0,8.8,7.2,16,16,16h52.8C501.6,512.8,508.8,505.6,508.8,496.8z"/>
<polygon style="fill:#FFFFFF;" points="508.8,426.4 508.8,90.4 466.4,16.8 424,90.4 424,426.4 "/>
<polygon style="fill:#193651;" points="487.2,53.6 466.4,16.8 445.6,53.6 "/>
<path style="fill:#FFFFFF;" d="M307.2,255.2c0-59.2-48-107.2-107.2-107.2S92.8,196,92.8,255.2c0,53.6,39.2,97.6,89.6,105.6
	l-12,119.2c-1.6,17.6,12,32.8,29.6,32.8s31.2-15.2,29.6-32.8l-12-119.2C268.8,352,307.2,308,307.2,255.2z"/>
<g>
	<path style="fill:#193651;" d="M4.8,400h166.4l-8,79.2c-1.6,10.4,2.4,21.6,9.6,29.6c7.2,8,17.6,12.8,28,12.8l0,0
		c10.4,0,20.8-4.8,28-12.8s10.4-18.4,9.6-28.8l-8-79.2H396V8.8H4.8V400z M216.8,497.6c-4,4.8-9.6,7.2-16,7.2l0,0
		c-6.4,0-12-2.4-16-7.2c-4-4.8-6.4-10.4-5.6-16.8L192,354.4l-7.2-1.6c-48-8-83.2-48.8-83.2-97.6c0-54.4,44.8-99.2,99.2-99.2
		s99.2,44.8,99.2,99.2c0,48.8-34.4,89.6-82.4,97.6l-7.2,1.6l12.8,126.4C223.2,487.2,220.8,492.8,216.8,497.6z M20.8,24.8H380v56.8
		H20.8V24.8z M20.8,97.6H380V384H228.8l-1.6-16.8c52-12,88.8-58.4,88.8-112C316,192,264,140,200.8,140S85.6,192,85.6,255.2
		c0,54.4,36.8,100,88.8,112l-1.6,16h-152L20.8,97.6L20.8,97.6z"/>
	<path style="fill:#193651;" d="M516.8,88l-15.2-27.2l0,0L466.4,0L416,87.2V496c0,13.6,10.4,24,24,24h52.8c13.6,0,24-10.4,24-24V88z
		 M466.4,32.8l7.2,12.8h-14.4L466.4,32.8z M492.8,504.8H440c-4.8,0-8-3.2-8-8v-63.2h68.8v63.2C500.8,501.6,497.6,504.8,492.8,504.8z
		 M432,418.4V92.8l17.6-31.2h32.8l18.4,31.2v325.6L432,418.4L432,418.4z"/>
</g>
<circle style="fill:#2EA2DB;" cx="200" cy="254.4" r="77.6"/>
<g>
</g>
<g>
</g>
<g>
</g>
<g>
</g>
<g>
</g>
<g>
</g>
<g>
</g>
<g>
</g>
<g>
</g>
<g>
</g>
<g>
</g>
<g>
</g>
<g>
</g>
<g>
</g>
<g>
</g>
</svg>
