<?xml version="1.0" encoding="iso-8859-1"?>
<!-- Generator: Adobe Illustrator 19.0.0, SVG Export Plug-In . SVG Version: 6.00 Build 0)  -->
<svg version="1.1" id="Capa_1" xmlns="http://www.w3.org/2000/svg" xmlns:xlink="http://www.w3.org/1999/xlink" x="0px" y="0px"
	 viewBox="0 0 512 512" style="enable-background:new 0 0 512 512;" xml:space="preserve">
<rect x="8" y="100.4" style="fill:#FFFFFF;" width="496" height="332"/>
<rect x="48" y="140.4" style="fill:#FDBF5E;" width="416" height="252"/>
<rect x="8" y="8.4" style="fill:#FFFFFF;" width="496" height="92"/>
<path style="fill:#193651;" d="M257.6,40.4h-196C54.4,40.4,48,46.8,48,54c0,8,6.4,14.4,14.4,14.4h196c8,0,14.4-6.4,14.4-14.4
	C272,46.8,265.6,40.4,257.6,40.4z"/>
<path style="fill:#FFFFFF;" d="M236,402.8l-8,70.4c-1.6,16.8,11.2,31.2,28,31.2l0,0c16.8,0,30.4-14.4,28-32l-8-70.4
	c57.6-9.6,100.8-60,100-120c-0.8-62.4-52.8-115.2-115.2-117.6C192,162,136,216.4,136,284.4C136,344.4,179.2,393.2,236,402.8z"/>
<path style="fill:#193651;" d="M0,0.4v440h224l-4,31.2c-0.8,10.4,2.4,20.8,8.8,28c7.2,8,16.8,12,27.2,12s20-4.8,27.2-12
	c7.2-8,10.4-18.4,8.8-28l-3.2-31.2H512V0.4H0z M276.8,474c0.8,5.6-0.8,11.2-4.8,16c-8,8.8-22.4,8.8-30.4,0c-4-4-5.6-10.4-4.8-16
	l8.8-77.6l-7.2-1.6C183.2,386,144,339.6,144,284.4c0-29.6,12-58.4,32.8-79.2s49.6-32.8,79.2-32.8c1.6,0,3.2,0,4.8,0
	c57.6,2.4,106.4,52,107.2,109.6c0.8,56-38.4,103.2-92.8,112l-7.2,1.6L276.8,474z M496,424.4H287.2l-1.6-15.2
	C344,395.6,384.8,342.8,384,282c-1.6-66.4-56-123.2-122.4-125.6c-36-1.6-70.4,12-96,37.6c-24,24-37.6,56-37.6,90.4
	c0,60,41.6,111.2,99.2,124.8l-1.6,15.2H16v-316h480V424.4z M16,16.4h480v76H16V16.4z"/>
<path style="fill:#2EA2DB;" d="M352.8,284.4c-54.4-77.6-143.2-77.6-197.6,0l0,0l0,0C209.6,362,297.6,362,352.8,284.4L352.8,284.4
	L352.8,284.4z"/>
<circle style="fill:#193651;" cx="253.6" cy="284.4" r="31.2"/>
<circle style="fill:#FFFFFF;" cx="240" cy="263.6" r="10.4"/>
<g>
	<rect x="361.6" y="46" style="fill:#193651;" width="16" height="16"/>
	<rect x="408.8" y="46" style="fill:#193651;" width="16" height="16"/>
	<rect x="456" y="46" style="fill:#193651;" width="16" height="16"/>
</g>
<g>
</g>
<g>
</g>
<g>
</g>
<g>
</g>
<g>
</g>
<g>
</g>
<g>
</g>
<g>
</g>
<g>
</g>
<g>
</g>
<g>
</g>
<g>
</g>
<g>
</g>
<g>
</g>
<g>
</g>
</svg>
