<?xml version="1.0" encoding="iso-8859-1"?>
<!-- Generator: Adobe Illustrator 19.0.0, SVG Export Plug-In . SVG Version: 6.00 Build 0)  -->
<svg version="1.1" id="Capa_1" xmlns="http://www.w3.org/2000/svg" xmlns:xlink="http://www.w3.org/1999/xlink" x="0px" y="0px"
	 viewBox="0 0 512 512" style="enable-background:new 0 0 512 512;" xml:space="preserve">
<rect x="85.6" y="80.8" style="fill:#FFFFFF;" width="340.8" height="220"/>
<rect x="117.6" y="112.8" style="fill:#FDBF5E;" width="276.8" height="156"/>
<rect x="85.6" y="8" style="fill:#FFFFFF;" width="340.8" height="72.8"/>
<g>
	<circle style="fill:#193651;" cx="135.2" cy="44" r="9.6"/>
	<circle style="fill:#193651;" cx="172.8" cy="44" r="9.6"/>
	<circle style="fill:#193651;" cx="210.4" cy="44" r="9.6"/>
</g>
<polygon style="fill:#2EA2DB;" points="448,389.6 448,452.8 64,452.8 64,389.6 8,389.6 8,504 504,504 504,389.6 "/>
<g>
	<rect x="210.4" y="148" style="fill:#193651;" width="91.2" height="16"/>
	<rect x="210.4" y="188" style="fill:#193651;" width="91.2" height="16"/>
</g>
<polygon style="fill:#FFFFFF;" points="293.6,236 218.4,236 218.4,350.4 187.2,350.4 256,419.2 324.8,350.4 293.6,350.4 "/>
<g>
	<path style="fill:#193651;" d="M440,381.6v64H72v-64H0V512h512V381.6H440z M496,496H16v-98.4h40v64h400v-64h40V496z"/>
	<path style="fill:#193651;" d="M210.4,342.4H168l88,88l88-88h-42.4v-33.6h132.8V0H77.6v308.8h132.8V342.4z M304.8,358.4L256,408
		l-48.8-48.8h20V244h59.2v114.4H304.8z M93.6,16h324.8v56.8H93.6V16z M93.6,292.8v-204h324.8v204H301.6V228h-91.2v64.8H93.6z"/>
</g>
<g>
</g>
<g>
</g>
<g>
</g>
<g>
</g>
<g>
</g>
<g>
</g>
<g>
</g>
<g>
</g>
<g>
</g>
<g>
</g>
<g>
</g>
<g>
</g>
<g>
</g>
<g>
</g>
<g>
</g>
</svg>
