<?xml version="1.0" encoding="iso-8859-1"?>
<!-- Generator: Adobe Illustrator 19.1.0, SVG Export Plug-In . SVG Version: 6.00 Build 0)  -->
<svg version="1.1" id="Capa_1" xmlns="http://www.w3.org/2000/svg" xmlns:xlink="http://www.w3.org/1999/xlink" x="0px" y="0px"
	 viewBox="0 0 433 433" style="enable-background:new 0 0 433 433;" xml:space="preserve">
<g>
	<path d="M433,143.5v226c0,4.14-3.36,7.5-7.5,7.5h-314c-4.15,0-7.5-3.36-7.5-7.5V297H7.5c-4.14,0-7.5-3.36-7.5-7.5v-226
		C0,59.36,3.36,56,7.5,56h314c4.14,0,7.5,3.36,7.5,7.5V136h96.5C429.64,136,433,139.36,433,143.5z M418,362V195.3H224.62V362H418z
		 M418,180.3V151H119v29.3H418z M314,136v-20.7H15V282h89V143.5c0-4.14,3.35-7.5,7.5-7.5H314z M314,100.3V71H15v29.3H314z
		 M209.62,362V195.3H119V362H209.62z"/>
	<path style="fill:#3DD0F2;" d="M418,151v29.3H119V151H418z M179.17,165.65c0-1.98-0.8-3.91-2.2-5.31c-1.4-1.39-3.33-2.19-5.3-2.19
		c-1.98,0-3.91,0.8-5.31,2.19c-1.39,1.4-2.19,3.34-2.19,5.31s0.8,3.91,2.19,5.3c1.4,1.4,3.33,2.2,5.31,2.2c1.97,0,3.9-0.8,5.3-2.2
		C178.37,169.56,179.17,167.62,179.17,165.65z M160.59,165.65c0-1.97-0.8-3.91-2.19-5.31c-1.4-1.39-3.33-2.19-5.31-2.19
		c-1.97,0-3.9,0.8-5.3,2.19c-1.39,1.4-2.19,3.34-2.19,5.31s0.8,3.91,2.19,5.3c1.4,1.4,3.33,2.2,5.3,2.2c1.98,0,3.91-0.8,5.31-2.2
		C159.79,169.56,160.59,167.62,160.59,165.65z M142.02,165.65c0-1.98-0.8-3.91-2.19-5.3c-1.4-1.4-3.33-2.2-5.31-2.2
		c-1.97,0-3.91,0.8-5.3,2.2c-1.4,1.39-2.2,3.32-2.2,5.3c0,1.97,0.8,3.91,2.2,5.3c1.4,1.4,3.33,2.2,5.3,2.2c1.98,0,3.91-0.8,5.31-2.2
		C141.22,169.56,142.02,167.62,142.02,165.65z"/>
	<path d="M357,210.71c4.14,0,7.5,3.35,7.5,7.5c0,4.14-3.36,7.5-7.5,7.5H244.31c-4.14,0-7.5-3.36-7.5-7.5c0-4.15,3.36-7.5,7.5-7.5
		H357z"/>
	<path d="M357,237.71c4.14,0,7.5,3.35,7.5,7.5c0,4.14-3.36,7.5-7.5,7.5H244.31c-4.14,0-7.5-3.36-7.5-7.5c0-4.15,3.36-7.5,7.5-7.5
		H357z"/>
	<path d="M357,264.71c4.14,0,7.5,3.35,7.5,7.5c0,4.14-3.36,7.5-7.5,7.5H244.31c-4.14,0-7.5-3.36-7.5-7.5c0-4.15,3.36-7.5,7.5-7.5
		H357z"/>
	<path style="fill:#F48C6C;" d="M314,71v29.3H15V71H314z M75.17,85.65c0-1.97-0.8-3.91-2.2-5.3c-1.39-1.4-3.33-2.2-5.3-2.2
		c-1.98,0-3.91,0.8-5.31,2.2c-1.39,1.39-2.19,3.32-2.19,5.3c0,1.97,0.8,3.91,2.19,5.3c1.4,1.4,3.33,2.2,5.31,2.2
		c1.97,0,3.9-0.8,5.3-2.2C74.37,89.55,75.17,87.62,75.17,85.65z M56.59,85.65c0-1.98-0.8-3.91-2.19-5.3c-1.4-1.4-3.33-2.2-5.31-2.2
		c-1.97,0-3.9,0.8-5.3,2.2c-1.39,1.39-2.19,3.32-2.19,5.3c0,1.97,0.8,3.91,2.19,5.3c1.4,1.4,3.33,2.2,5.3,2.2
		c1.98,0,3.91-0.8,5.31-2.2C55.79,89.56,56.59,87.62,56.59,85.65z M38.02,85.65c0-1.97-0.8-3.91-2.19-5.3
		c-1.4-1.4-3.33-2.2-5.31-2.2c-1.97,0-3.9,0.8-5.3,2.2c-1.4,1.39-2.2,3.32-2.2,5.3c0,1.97,0.8,3.91,2.2,5.3
		c1.4,1.4,3.33,2.2,5.3,2.2c1.98,0,3.91-0.8,5.31-2.2C37.22,89.55,38.02,87.62,38.02,85.65z"/>
	<path d="M188.31,210.71c4.14,0,7.5,3.35,7.5,7.5c0,4.14-3.36,7.5-7.5,7.5h-48c-4.14,0-7.5-3.36-7.5-7.5c0-4.15,3.36-7.5,7.5-7.5
		H188.31z"/>
	<path d="M188.31,237.71c4.14,0,7.5,3.35,7.5,7.5c0,4.14-3.36,7.5-7.5,7.5h-48c-4.14,0-7.5-3.36-7.5-7.5c0-4.15,3.36-7.5,7.5-7.5
		H188.31z"/>
	<path d="M188.31,264.71c4.14,0,7.5,3.35,7.5,7.5c0,4.14-3.36,7.5-7.5,7.5h-48c-4.14,0-7.5-3.36-7.5-7.5c0-4.15,3.36-7.5,7.5-7.5
		H188.31z"/>
	<path d="M176.97,160.34c1.4,1.4,2.2,3.33,2.2,5.31c0,1.97-0.8,3.91-2.2,5.3c-1.4,1.4-3.33,2.2-5.3,2.2c-1.98,0-3.91-0.8-5.31-2.2
		c-1.39-1.39-2.19-3.33-2.19-5.3s0.8-3.91,2.19-5.31c1.4-1.39,3.33-2.19,5.31-2.19C173.64,158.15,175.57,158.95,176.97,160.34z"/>
	<path d="M158.4,160.34c1.39,1.4,2.19,3.34,2.19,5.31s-0.8,3.91-2.19,5.3c-1.4,1.4-3.33,2.2-5.31,2.2c-1.97,0-3.9-0.8-5.3-2.2
		c-1.39-1.39-2.19-3.33-2.19-5.3s0.8-3.91,2.19-5.31c1.4-1.39,3.33-2.19,5.3-2.19C155.07,158.15,157,158.95,158.4,160.34z"/>
	<path d="M139.83,160.35c1.39,1.39,2.19,3.32,2.19,5.3c0,1.97-0.8,3.91-2.19,5.3c-1.4,1.4-3.33,2.2-5.31,2.2
		c-1.97,0-3.9-0.8-5.3-2.2c-1.4-1.39-2.2-3.33-2.2-5.3c0-1.98,0.8-3.91,2.2-5.3c1.39-1.4,3.33-2.2,5.3-2.2
		C136.5,158.15,138.43,158.95,139.83,160.35z"/>
	<path d="M84.31,130.71c4.14,0,7.5,3.35,7.5,7.5c0,4.14-3.36,7.5-7.5,7.5h-48c-4.14,0-7.5-3.36-7.5-7.5c0-4.15,3.36-7.5,7.5-7.5
		H84.31z"/>
	<path d="M84.31,157.71c4.14,0,7.5,3.35,7.5,7.5c0,4.14-3.36,7.5-7.5,7.5h-48c-4.14,0-7.5-3.36-7.5-7.5c0-4.15,3.36-7.5,7.5-7.5
		H84.31z"/>
	<path d="M84.31,184.71c4.14,0,7.5,3.35,7.5,7.5c0,4.14-3.36,7.5-7.5,7.5h-48c-4.14,0-7.5-3.36-7.5-7.5c0-4.15,3.36-7.5,7.5-7.5
		H84.31z"/>
	<path d="M72.97,80.35c1.4,1.39,2.2,3.33,2.2,5.3s-0.8,3.9-2.2,5.3c-1.4,1.4-3.33,2.2-5.3,2.2c-1.98,0-3.91-0.8-5.31-2.2
		c-1.39-1.39-2.19-3.33-2.19-5.3c0-1.98,0.8-3.91,2.19-5.3c1.4-1.4,3.33-2.2,5.31-2.2C69.64,78.15,71.58,78.95,72.97,80.35z"/>
	<path d="M54.4,80.35c1.39,1.39,2.19,3.32,2.19,5.3c0,1.97-0.8,3.91-2.19,5.3c-1.4,1.4-3.33,2.2-5.31,2.2c-1.97,0-3.9-0.8-5.3-2.2
		c-1.39-1.39-2.19-3.33-2.19-5.3c0-1.98,0.8-3.91,2.19-5.3c1.4-1.4,3.33-2.2,5.3-2.2C51.07,78.15,53,78.95,54.4,80.35z"/>
	<path d="M35.83,80.35c1.39,1.39,2.19,3.33,2.19,5.3s-0.8,3.9-2.19,5.3c-1.4,1.4-3.33,2.2-5.31,2.2c-1.97,0-3.9-0.8-5.3-2.2
		c-1.4-1.39-2.2-3.33-2.2-5.3c0-1.98,0.8-3.91,2.2-5.3c1.4-1.4,3.33-2.2,5.3-2.2C32.5,78.15,34.43,78.95,35.83,80.35z"/>
</g>
<g>
</g>
<g>
</g>
<g>
</g>
<g>
</g>
<g>
</g>
<g>
</g>
<g>
</g>
<g>
</g>
<g>
</g>
<g>
</g>
<g>
</g>
<g>
</g>
<g>
</g>
<g>
</g>
<g>
</g>
</svg>
