<?xml version="1.0" encoding="iso-8859-1"?>
<!-- Generator: Adobe Illustrator 19.0.0, SVG Export Plug-In . SVG Version: 6.00 Build 0)  -->
<svg version="1.1" id="Capa_1" xmlns="http://www.w3.org/2000/svg" xmlns:xlink="http://www.w3.org/1999/xlink" x="0px" y="0px"
	 viewBox="0 0 512 512" style="enable-background:new 0 0 512 512;" xml:space="preserve">
<path style="fill:#C1C1C1;" d="M406.135,40.634H454.8c18.298,0,33.132,14.834,33.132,33.132v397.602
	c0,18.298-14.834,33.132-33.132,33.132H57.199c-18.298,0-33.132-14.834-33.132-33.132V73.766c0-18.298,14.834-33.132,33.132-33.132
	h48.664H406.135z"/>
<path style="fill:#A8A8A8;" d="M454.8,40.634h-24.849c18.298,0,33.132,14.834,33.132,33.132v397.602
	c0,18.298-14.834,33.132-33.132,33.132H454.8c18.298,0,33.132-14.834,33.132-33.132V73.766
	C487.932,55.468,473.098,40.634,454.8,40.634z"/>
<path style="fill:#EEEEEF;" d="M487.932,438.232c0,18.298-14.834,33.132-33.132,33.132H57.199
	c-18.298,0-33.132-14.834-33.132-33.132V156.601h463.866L487.932,438.232z"/>
<path style="fill:#D9D9D9;" d="M463.083,156.601l-0.001,281.631c0,18.298-14.834,33.132-33.132,33.132h24.85
	c18.298,0,33.132-14.834,33.132-33.132l0.001-281.631L463.083,156.601L463.083,156.601z"/>
<path style="fill:#F35657;" d="M487.932,173.167V73.766c0-18.298-14.834-33.132-33.132-33.132h-48.664H105.864H57.199
	c-18.298,0-33.132,14.834-33.132,33.132v99.401L487.932,173.167L487.932,173.167z"/>
<path style="fill:#CC4142;" d="M454.8,40.634h-24.849c18.298,0,33.132,14.834,33.132,33.132v99.401h24.848V73.766
	C487.932,55.468,473.098,40.634,454.8,40.634z"/>
<path style="fill:#C1C1C1;" d="M371.966,73.766c0,9.15,7.417,16.567,16.567,16.567S405.1,82.916,405.1,73.766v-49.7
	c0-9.15-7.417-16.567-16.567-16.567s-16.567,7.417-16.567,16.567V73.766z"/>
<path style="fill:#A8A8A8;" d="M388.533,67.036c-9.15,0-16.567-7.417-16.567-16.567v23.297c0,9.15,7.417,16.567,16.567,16.567
	S405.1,82.916,405.1,73.766V50.469C405.099,59.619,397.682,67.036,388.533,67.036z"/>
<path style="fill:#C1C1C1;" d="M106.899,73.766c0,9.15,7.417,16.567,16.567,16.567c9.15,0,16.567-7.417,16.567-16.567v-49.7
	c0-9.15-7.417-16.567-16.567-16.567c-9.15,0-16.567,7.417-16.567,16.567V73.766z"/>
<path style="fill:#A8A8A8;" d="M123.465,67.036c-9.15,0-16.567-7.417-16.567-16.567v23.297c0,9.15,7.417,16.567,16.567,16.567
	c9.15,0,16.567-7.417,16.567-16.567V50.469C140.032,59.619,132.614,67.036,123.465,67.036z"/>
<g>
	<path style="fill:#121212;" d="M495.432,173.148v-33.095c0-0.007,0.001-0.013,0.001-0.019s-0.001-0.013-0.001-0.019V73.766
		c0-22.405-18.228-40.632-40.632-40.632h-42.2v-9.067C412.6,10.796,401.803,0,388.533,0c-13.271,0-24.067,10.796-24.067,24.067
		v9.067H147.533v-9.067C147.533,10.796,136.736,0,123.466,0S99.399,10.796,99.399,24.067v9.067h-42.2
		c-22.405,0-40.632,18.228-40.632,40.632v397.602c0,22.405,18.228,40.632,40.632,40.632H454.8c22.405,0,40.632-18.228,40.632-40.632
		V173.186c0-0.007,0.001-0.013,0.001-0.019C495.433,173.161,495.432,173.154,495.432,173.148z M31.567,180.667h60.332
		c4.142,0,7.5-3.358,7.5-7.5s-3.358-7.5-7.5-7.5H31.567v-18.134h448.865v18.134H121.899c-4.142,0-7.5,3.358-7.5,7.5
		s3.358,7.5,7.5,7.5h358.533v257.564c0,14.134-11.499,25.632-25.632,25.632H57.199c-14.134,0-25.632-11.499-25.632-25.632
		C31.567,438.231,31.567,180.667,31.567,180.667z M388.533,15c4.999,0,9.067,4.067,9.067,9.067v49.68
		c0,0.007-0.001,0.013-0.001,0.019c0,0.003,0,0.006,0,0.01c-0.005,4.995-4.07,9.057-9.066,9.057c-4.998,0-9.064-4.065-9.067-9.062
		c0-0.002,0-0.003,0-0.005c0-0.003-0.001-0.006-0.001-0.01v-49.69C379.466,19.067,383.533,15,388.533,15z M114.399,24.067
		c0-5,4.067-9.067,9.067-9.067c4.999,0,9.067,4.067,9.067,9.067v49.68c0,0.007-0.001,0.013-0.001,0.019c0,0.003,0,0.006,0,0.01
		c-0.005,4.995-4.07,9.057-9.066,9.057c-5,0-9.067-4.067-9.067-9.066C114.399,73.767,114.399,24.067,114.399,24.067z M57.199,48.134
		h42.2v18.133h-0.784c-4.142,0-7.5,3.358-7.5,7.5s3.358,7.5,7.5,7.5h1.987c3.16,9.608,12.212,16.566,22.864,16.566
		s19.704-6.959,22.864-16.566h1.986c4.142,0,7.5-3.358,7.5-7.5s-3.358-7.5-7.5-7.5h-0.783V48.134h216.933v18.133h-0.784
		c-4.142,0-7.5,3.358-7.5,7.5s3.358,7.5,7.5,7.5h1.987c3.16,9.608,12.212,16.566,22.864,16.566s19.704-6.959,22.864-16.566h1.986
		c4.142,0,7.5-3.358,7.5-7.5s-3.358-7.5-7.5-7.5H412.6V48.134h42.2c14.134,0,25.632,11.499,25.632,25.632v58.767H31.567V73.766
		C31.567,59.632,43.065,48.134,57.199,48.134z M454.8,497H57.199c-14.134,0-25.632-11.499-25.632-25.632v-1.638
		c6.998,5.705,15.921,9.134,25.632,9.134H454.8c9.711,0,18.635-3.429,25.632-9.134v1.638C480.432,485.501,468.934,497,454.8,497z"/>
	<path style="fill:#121212;" d="M73.766,329.766h66.266c4.142,0,7.5-3.358,7.5-7.5v-66.267c0-4.142-3.358-7.5-7.5-7.5H73.766
		c-4.142,0-7.5,3.358-7.5,7.5v66.267C66.266,326.408,69.624,329.766,73.766,329.766z M81.266,263.499h51.266v51.267H81.266V263.499z
		"/>
	<path style="fill:#121212;" d="M173.165,329.766h66.267c4.142,0,7.5-3.358,7.5-7.5v-66.267c0-4.142-3.358-7.5-7.5-7.5h-66.267
		c-4.142,0-7.5,3.358-7.5,7.5v66.267C165.665,326.408,169.023,329.766,173.165,329.766z M180.665,263.499h51.267v51.267h-51.267
		V263.499z"/>
	<path style="fill:#121212;" d="M272.566,329.766h66.267c4.142,0,7.5-3.358,7.5-7.5v-66.267c0-4.142-3.358-7.5-7.5-7.5h-66.267
		c-4.142,0-7.5,3.358-7.5,7.5v66.267C265.066,326.408,268.424,329.766,272.566,329.766z M280.066,263.499h51.267v51.267h-51.267
		V263.499z"/>
	<path style="fill:#121212;" d="M371.965,329.766h66.266c4.142,0,7.5-3.358,7.5-7.5v-66.267c0-4.142-3.358-7.5-7.5-7.5h-66.266
		c-4.142,0-7.5,3.358-7.5,7.5v66.267C364.465,326.408,367.823,329.766,371.965,329.766z M379.465,263.499h51.266v51.267h-51.266
		V263.499z"/>
	<path style="fill:#121212;" d="M73.766,429.167h66.266c4.142,0,7.5-3.358,7.5-7.5V355.4c0-4.142-3.358-7.5-7.5-7.5H73.766
		c-4.142,0-7.5,3.358-7.5,7.5v66.267C66.266,425.809,69.624,429.167,73.766,429.167z M81.266,362.9h51.266v51.267H81.266V362.9z"/>
	<path style="fill:#121212;" d="M173.165,429.167h66.267c4.142,0,7.5-3.358,7.5-7.5V355.4c0-4.142-3.358-7.5-7.5-7.5h-66.267
		c-4.142,0-7.5,3.358-7.5,7.5v66.267C165.665,425.809,169.023,429.167,173.165,429.167z M180.665,362.9h51.267v51.267h-51.267V362.9
		z"/>
	<path style="fill:#121212;" d="M272.566,429.167h66.267c4.142,0,7.5-3.358,7.5-7.5V355.4c0-4.142-3.358-7.5-7.5-7.5h-66.267
		c-4.142,0-7.5,3.358-7.5,7.5v66.267C265.066,425.809,268.424,429.167,272.566,429.167z M280.066,362.9h51.267v51.267h-51.267V362.9
		z"/>
	<path style="fill:#121212;" d="M371.965,429.167h66.266c4.142,0,7.5-3.358,7.5-7.5V355.4c0-4.142-3.358-7.5-7.5-7.5h-66.266
		c-4.142,0-7.5,3.358-7.5,7.5v66.267C364.465,425.809,367.823,429.167,371.965,429.167z M379.465,362.9h51.266v51.267h-51.266V362.9
		z"/>
	<path style="fill:#121212;" d="M90.332,230.365h33.135c4.142,0,7.5-3.358,7.5-7.5s-3.358-7.5-7.5-7.5H90.332
		c-4.142,0-7.5,3.358-7.5,7.5S86.189,230.365,90.332,230.365z"/>
	<path style="fill:#121212;" d="M189.731,230.365h33.135c4.142,0,7.5-3.358,7.5-7.5s-3.358-7.5-7.5-7.5h-33.135
		c-4.142,0-7.5,3.358-7.5,7.5S185.589,230.365,189.731,230.365z"/>
	<path style="fill:#121212;" d="M289.131,230.365h33.135c4.142,0,7.5-3.358,7.5-7.5s-3.358-7.5-7.5-7.5h-33.135
		c-4.142,0-7.5,3.358-7.5,7.5S284.989,230.365,289.131,230.365z"/>
	<path style="fill:#121212;" d="M388.531,230.365h33.135c4.142,0,7.5-3.358,7.5-7.5s-3.358-7.5-7.5-7.5h-33.135
		c-4.142,0-7.5,3.358-7.5,7.5S384.389,230.365,388.531,230.365z"/>
</g>
<g>
</g>
<g>
</g>
<g>
</g>
<g>
</g>
<g>
</g>
<g>
</g>
<g>
</g>
<g>
</g>
<g>
</g>
<g>
</g>
<g>
</g>
<g>
</g>
<g>
</g>
<g>
</g>
<g>
</g>
</svg>
