<?xml version="1.0" encoding="iso-8859-1"?>
<!-- Generator: Adobe Illustrator 19.0.0, SVG Export Plug-In . SVG Version: 6.00 Build 0)  -->
<svg version="1.1" id="Capa_1" xmlns="http://www.w3.org/2000/svg" xmlns:xlink="http://www.w3.org/1999/xlink" x="0px" y="0px"
	 viewBox="0 0 510.4 510.4" style="enable-background:new 0 0 510.4 510.4;" xml:space="preserve">
<rect x="47.2" y="39.2" style="fill:#FFFFFF;" width="416" height="463.2"/>
<rect x="79.2" y="71.2" style="fill:#FDBF5E;" width="352" height="399.2"/>
<g>
	<polygon style="fill:#FFFFFF;" points="360.8,69.6 149.6,69.6 155.2,8 355.2,8 	"/>
	<path style="fill:#FFFFFF;" d="M124,440.8h58.4v-80c-18.4,8-37.6,14.4-58.4,20C124,380.8,124,440.8,124,440.8z"/>
	<path style="fill:#FFFFFF;" d="M226.4,440.8h58.4v-136c-17.6,12-36.8,24-58.4,35.2V440.8L226.4,440.8z"/>
	<path style="fill:#FFFFFF;" d="M328,270.4v170.4h58.4V213.6C386.4,213.6,366.4,238.4,328,270.4z"/>
</g>
<g>
	<path style="fill:#193651;" d="M365.6,31.2L362.4,0H148l-3.2,31.2H39.2v479.2h432V31.2H365.6z M162.4,16h184.8l4.8,45.6H158.4
		L162.4,16z M455.2,494.4h-400V47.2h88L140,78.4h229.6l-2.4-31.2h88V494.4z"/>
	<path style="fill:#193651;" d="M121.6,372.8l-5.6,1.6v74.4h74.4v-100l-11.2,4.8C160,360.8,140.8,367.2,121.6,372.8z M174.4,432.8
		H132v-46.4c14.4-4,28-8.8,42.4-14.4V432.8L174.4,432.8z"/>
	<path style="fill:#193651;" d="M222.4,332.8l-4,2.4v113.6h74.4v-160l-12.8,8.8C261.6,310.4,241.6,322.4,222.4,332.8z M276,432.8
		h-42.4v-88c14.4-8,28.8-16,42.4-25.6V432.8z"/>
	<path style="fill:#193651;" d="M323.2,264.8l-3.2,2.4v181.6h74.4V190.4L380,208C380,208.8,360,233.6,323.2,264.8z M378.4,234.4
		v198.4H336V274.4C355.2,258.4,368.8,244,378.4,234.4z"/>
	<rect x="127.2" y="119.2" style="fill:#193651;" width="117.6" height="16"/>
	<rect x="276.8" y="119.2" style="fill:#193651;" width="50.4" height="16"/>
	<rect x="210.4" y="163.2" style="fill:#193651;" width="117.6" height="16"/>
	<rect x="127.2" y="163.2" style="fill:#193651;" width="50.4" height="16"/>
	<rect x="130.4" y="207.2" style="fill:#193651;" width="16" height="16"/>
	<rect x="183.2" y="207.2" style="fill:#193651;" width="16" height="16"/>
	<rect x="236.8" y="207.2" style="fill:#193651;" width="16" height="16"/>
</g>
<g>
</g>
<g>
</g>
<g>
</g>
<g>
</g>
<g>
</g>
<g>
</g>
<g>
</g>
<g>
</g>
<g>
</g>
<g>
</g>
<g>
</g>
<g>
</g>
<g>
</g>
<g>
</g>
<g>
</g>
</svg>
