<?xml version="1.0" encoding="iso-8859-1"?>
<!-- Generator: Adobe Illustrator 19.1.0, SVG Export Plug-In . SVG Version: 6.00 Build 0)  -->
<svg version="1.1" id="Capa_1" xmlns="http://www.w3.org/2000/svg" xmlns:xlink="http://www.w3.org/1999/xlink" x="0px" y="0px"
	 viewBox="0 0 472.14 472.14" style="enable-background:new 0 0 472.14 472.14;" xml:space="preserve">
<g>
	<path d="M403.93,277.63c37.72,0.62,68.21,31.49,68.21,69.35c0,38.25-31.12,69.36-69.37,69.36h-96.33c-4.15,0-7.5-3.35-7.5-7.5
		V318.6c0-4.14,3.35-7.5,7.5-7.5h8.48l-26.78-46.38l-26.78,46.38h8.49c4.14,0,7.5,3.36,7.5,7.5v90.24c0,4.15-3.36,7.5-7.5,7.5
		h-79.08c-47.77,0-86.62-38.85-86.62-86.61c0-16.89,4.86-32.66,13.25-46H69.36C31.12,283.73,0,252.62,0,214.37
		c0-37.86,30.49-68.73,68.2-69.35c0-0.01,0-0.01,0-0.02c0-49.19,40.02-89.2,89.21-89.2c2.93,0,5.89,0.15,9.03,0.46
		c3.84,0.38,6.76,3.61,6.76,7.47v99.21c0,4.14-3.36,7.5-7.5,7.5h-8.48l26.77,46.37l26.78-46.37h-8.48c-4.14,0-7.5-3.36-7.5-7.5
		v-86.2c0-2.76,1.52-5.3,3.95-6.61c2.43-1.31,5.38-1.17,7.68,0.34c17.58,11.6,30.5,29.11,36.46,49.04
		c11.9-5.92,25.03-9.01,38.49-9.01c47.76,0,86.62,38.85,86.62,86.61c0,2.9-0.16,5.8-0.44,8.66c22.05,16.26,36.38,42.41,36.38,71.84
		C403.93,277.62,403.93,277.62,403.93,277.63z M457.14,346.98c0-29.97-24.39-54.36-54.37-54.36c-1.92,0-3.91,0.11-5.92,0.33
		c-2.23,0.24-4.47-0.54-6.07-2.12c-1.61-1.59-2.41-3.81-2.2-6.05c0.24-2.44,0.35-4.85,0.35-7.17c0-40.91-33.28-74.2-74.2-74.2
		c-36.21,0-66.95,25.86-73.1,61.5c-0.43,2.49-2.09,4.6-4.41,5.61c-2.32,1-4.99,0.77-7.11-0.63c-11.7-7.71-25.3-11.78-39.34-11.78
		c-39.49,0-71.62,32.13-71.62,71.62s32.13,71.61,71.62,71.61h71.58V326.1h-13.98c-2.68,0-5.15-1.43-6.49-3.75
		c-1.34-2.32-1.34-5.18,0-7.5l39.77-68.88c1.34-2.32,3.81-3.75,6.49-3.75c2.68,0,5.16,1.43,6.5,3.75l39.76,68.88
		c1.34,2.32,1.34,5.18,0,7.5s-3.81,3.75-6.49,3.75h-13.97v75.24h88.83C432.75,401.34,457.14,376.96,457.14,346.98z M314.73,188.41
		c13.68,0,26.66,3.1,38.26,8.63c-0.04-39.45-32.15-71.54-71.62-71.54c-14.06,0-27.66,4.07-39.34,11.78
		c-2.11,1.39-4.79,1.63-7.11,0.62c-2.32-1-3.98-3.11-4.41-5.6c-2.61-15.12-9.95-29.04-20.72-39.82v62.96h13.97
		c2.68,0,5.16,1.43,6.49,3.75c1.34,2.32,1.34,5.18,0,7.5l-39.77,68.87c-0.67,1.16-1.62,2.1-2.74,2.74
		c-1.12,0.65-2.41,1.01-3.75,1.01c-2.68,0-5.16-1.43-6.5-3.75l-39.76-68.87c-1.34-2.32-1.34-5.18,0-7.5
		c1.34-2.32,3.82-3.75,6.5-3.75h13.97V70.8c-0.27,0-0.53,0-0.79,0c-40.92,0-74.21,33.29-74.21,74.2c0,2.34,0.12,4.74,0.35,7.15
		c0.22,2.25-0.58,4.47-2.19,6.06c-1.6,1.59-3.84,2.37-6.08,2.12c-1.97-0.21-3.96-0.32-5.92-0.32c-29.97,0-54.36,24.38-54.36,54.36
		c0,29.97,24.39,54.36,54.36,54.36h59.97c15.7-15.81,37.44-25.62,61.44-25.62c13.44,0,26.56,3.09,38.47,9.01
		C240.31,214.64,274.75,188.41,314.73,188.41z"/>
	<path style="fill:#3DD0F2;" d="M402.77,292.62c29.98,0,54.37,24.39,54.37,54.36c0,29.98-24.39,54.36-54.37,54.36h-88.83V326.1
		h13.97c2.68,0,5.15-1.43,6.49-3.75s1.34-5.18,0-7.5l-39.76-68.88c-1.34-2.32-3.82-3.75-6.5-3.75c-2.68,0-5.15,1.43-6.49,3.75
		l-39.77,68.88c-1.34,2.32-1.34,5.18,0,7.5c1.34,2.32,3.81,3.75,6.49,3.75h13.98v75.24h-71.58c-39.49,0-71.62-32.12-71.62-71.61
		s32.13-71.62,71.62-71.62c14.04,0,27.64,4.07,39.34,11.78c2.12,1.4,4.79,1.63,7.11,0.63c2.32-1.01,3.98-3.12,4.41-5.61
		c6.15-35.64,36.89-61.5,73.1-61.5c40.92,0,74.2,33.29,74.2,74.2c0,2.32-0.11,4.73-0.35,7.17c-0.21,2.24,0.59,4.46,2.2,6.05
		c1.6,1.58,3.84,2.36,6.07,2.12C398.86,292.73,400.85,292.62,402.77,292.62z"/>
	<path style="fill:#F48C6C;" d="M352.99,197.04c-11.6-5.53-24.58-8.63-38.26-8.63c-39.98,0-74.42,26.23-85.49,63.71
		c-11.91-5.92-25.03-9.01-38.47-9.01c-24,0-45.74,9.81-61.44,25.62H69.36c-29.97,0-54.36-24.39-54.36-54.36
		c0-29.98,24.39-54.36,54.36-54.36c1.96,0,3.95,0.11,5.92,0.32c2.24,0.25,4.48-0.53,6.08-2.12c1.61-1.59,2.41-3.81,2.19-6.06
		c-0.23-2.41-0.35-4.81-0.35-7.15c0-40.91,33.29-74.2,74.21-74.2c0.26,0,0.52,0,0.79,0v84.64h-13.97c-2.68,0-5.16,1.43-6.5,3.75
		c-1.34,2.32-1.34,5.18,0,7.5l39.76,68.87c1.34,2.32,3.82,3.75,6.5,3.75c1.34,0,2.63-0.36,3.75-1.01c1.12-0.64,2.07-1.58,2.74-2.74
		l39.77-68.87c1.34-2.32,1.34-5.18,0-7.5c-1.33-2.32-3.81-3.75-6.49-3.75h-13.97V92.48c10.77,10.78,18.11,24.7,20.72,39.82
		c0.43,2.49,2.09,4.6,4.41,5.6c2.32,1.01,5,0.77,7.11-0.62c11.68-7.71,25.28-11.78,39.34-11.78
		C320.84,125.5,352.95,157.59,352.99,197.04z"/>
</g>
<g>
</g>
<g>
</g>
<g>
</g>
<g>
</g>
<g>
</g>
<g>
</g>
<g>
</g>
<g>
</g>
<g>
</g>
<g>
</g>
<g>
</g>
<g>
</g>
<g>
</g>
<g>
</g>
<g>
</g>
</svg>
