<?xml version="1.0" encoding="iso-8859-1"?>
<!-- Generator: Adobe Illustrator 19.0.0, SVG Export Plug-In . SVG Version: 6.00 Build 0)  -->
<svg version="1.1" id="Capa_1" xmlns="http://www.w3.org/2000/svg" xmlns:xlink="http://www.w3.org/1999/xlink" x="0px" y="0px"
	 viewBox="0 0 512 512" style="enable-background:new 0 0 512 512;" xml:space="preserve">
<g>
	
		<rect x="254.746" y="42.283" transform="matrix(0.707 -0.7073 0.7073 0.707 41.4586 200.5023)" style="fill:#193651;" width="15.877" height="15.877"/>
	
		<rect x="301.097" y="88.591" transform="matrix(-0.7071 -0.7071 0.7071 -0.7071 459.3 383.306)" style="fill:#193651;" width="15.876" height="15.876"/>
	
		<rect x="346.813" y="134.354" transform="matrix(0.7071 -0.7071 0.7071 0.7071 3.2888 292.523)" style="fill:#193651;" width="15.876" height="15.876"/>
</g>
<path style="fill:#FFFFFF;" d="M181.78,133.358h-38.102V28.577c0-10.319,8.732-19.051,19.051-19.051l0,0
	c10.319,0,19.051,8.732,19.051,19.051L181.78,133.358L181.78,133.358z"/>
<g>
	<polygon style="fill:#2EA2DB;" points="49.216,358.797 43.659,283.386 129.389,97.637 162.729,111.132 	"/>
	<polygon style="fill:#2EA2DB;" points="276.242,358.797 282.592,283.386 196.068,97.637 162.729,111.132 	"/>
</g>
<g>
	<circle style="fill:#FFFFFF;" cx="162.729" cy="111.132" r="54.772"/>
	<circle style="fill:#FFFFFF;" cx="162.729" cy="111.132" r="23.02"/>
</g>
<path style="fill:#193651;" d="M162.729,141.594c-16.797,0-30.462-13.665-30.462-30.462s13.665-30.462,30.462-30.462
	s30.462,13.665,30.462,30.462S179.525,141.594,162.729,141.594z M162.729,95.553c-8.59,0-15.578,6.988-15.578,15.578
	s6.988,15.578,15.578,15.578s15.578-6.988,15.578-15.578S171.319,95.553,162.729,95.553z"/>
<rect x="409.6" y="9.526" style="fill:#FDBF5E;" width="94.462" height="369.116"/>
<path style="fill:#4FBF9F;" d="M488.186,423.095h-57.153v78.586h57.153c8.732,0,15.876-7.144,15.876-15.876V438.97
	C504.062,430.239,496.918,423.095,488.186,423.095z"/>
<polygon style="fill:#FFFFFF;" points="430.239,423.095 58.741,423.095 11.907,461.991 58.741,501.681 430.239,501.681 "/>
<g>
	<path style="fill:#193651;" d="M46.04,260.366l-10.319,22.226l7.938,107.957l47.628-104.781
		c22.226,8.732,46.04,13.495,71.442,13.495s49.216-4.763,71.442-13.495l47.628,104.781l8.732-107.957l-10.319-22.226
		c18.257-14.288,32.546-31.752,41.278-50.803l-14.288-6.35c-7.144,16.67-19.051,30.958-33.34,42.865l-51.597-111.132
		c2.381-7.144,3.969-14.288,3.969-22.226c0-25.402-15.082-46.834-35.721-57.153V28.577c0-15.082-11.907-26.989-26.989-26.989
		c-15.082,0-26.989,11.907-26.989,26.989v26.195c-21.433,10.319-35.721,31.752-35.721,57.153c0,7.938,1.588,15.082,3.969,22.226
		L53.185,245.284c-14.288-11.907-26.195-26.195-33.34-42.865l-14.288,6.35C13.495,228.614,27.783,246.078,46.04,260.366z
		 M162.729,283.386c-23.02,0-44.453-3.969-64.298-11.907l46.04-100.019c6.35,1.588,12.701,3.175,19.051,3.175
		c6.35,0,12.701-0.794,19.051-3.175l45.247,100.019C207.975,278.623,185.749,283.386,162.729,283.386z M274.654,284.974
		l-3.175,42.865L196.862,165.11c6.35-3.969,11.113-8.732,15.876-14.288L274.654,284.974z M194.481,165.904L194.481,165.904
		L194.481,165.904z M151.616,28.577c0-6.35,4.763-11.113,11.113-11.113c6.35,0,11.113,4.763,11.113,11.113v20.639
		c-3.969-0.794-7.144-0.794-11.113-0.794s-7.938,0.794-11.113,0.794V28.577z M162.729,64.298c26.195,0,46.834,21.433,46.834,46.834
		c0,26.195-21.433,46.834-46.834,46.834c-26.195,0-46.834-21.433-46.834-46.834S137.327,64.298,162.729,64.298z M129.389,165.11
		L54.772,327.839l-3.175-42.865l61.916-134.152C118.276,156.378,123.833,161.141,129.389,165.11z"/>
	<path style="fill:#193651;" d="M512,1.588H401.662V386.58H512V1.588z M496.124,370.704h-78.586V340.54h43.659v-15.876h-43.659
		v-30.164h29.371v-15.876h-29.371v-30.164h43.659v-15.876h-43.659v-30.164h29.371v-15.876h-29.371v-30.164h43.659v-15.876h-43.659
		v-30.164h29.371V94.462h-29.371V64.298h43.659V48.422h-43.659V17.464h78.586V370.704z"/>
	<path style="fill:#193651;" d="M488.186,415.157H56.36L0,462.784l56.36,47.628h431.826c13.495,0,23.814-10.319,23.814-23.814
		v-46.834C512,425.476,500.887,415.157,488.186,415.157z M23.814,461.991l37.309-31.752h361.178v63.504H61.916L23.814,461.991z
		 M496.124,485.805c0,4.763-3.175,7.938-7.938,7.938h-50.009v-62.71h49.216c4.763,0,7.938,3.175,7.938,7.938v46.834H496.124z"/>
</g>
<polygon style="fill:#F16051;" points="77.792,450.084 422.301,450.084 422.301,474.691 77.792,474.691 61.916,461.991 "/>
<g>
</g>
<g>
</g>
<g>
</g>
<g>
</g>
<g>
</g>
<g>
</g>
<g>
</g>
<g>
</g>
<g>
</g>
<g>
</g>
<g>
</g>
<g>
</g>
<g>
</g>
<g>
</g>
<g>
</g>
</svg>
