<?xml version="1.0" encoding="iso-8859-1"?>
<!-- Generator: Adobe Illustrator 19.0.0, SVG Export Plug-In . SVG Version: 6.00 Build 0)  -->
<svg xmlns="http://www.w3.org/2000/svg" xmlns:xlink="http://www.w3.org/1999/xlink" version="1.1" id="Layer_1" x="0px" y="0px" viewBox="0 0 512 512" style="enable-background:new 0 0 512 512;" xml:space="preserve" width="512" height="512">
<g id="XMLID_3589_">
	<g id="XMLID_2210_">
		<g id="XMLID_1737_">
			<path id="XMLID_2384_" style="fill:#DDEDE5;" d="M504.5,113.95v285.24c0,10.9-8.84,19.74-19.75,19.74H56.38     c-10.91,0-19.75-8.84-19.75-19.74V113.95H504.5z"/>
			<path id="XMLID_2381_" style="fill:#AFC3C3;" d="M262.49,358.9c0,21.57-5.12,41.96-14.22,60.03H56.38     c-10.91,0-19.75-8.84-19.75-19.74V261.43c24.01-22.63,56.35-36.53,91.87-36.53C202.38,224.9,262.49,285.01,262.49,358.9z"/>
			<rect id="XMLID_1966_" x="36.633" y="113.946" style="fill:#AFC3C3;" width="467.867" height="24.862"/>
			<path id="XMLID_1824_" style="fill:#FF4F19;" d="M504.5,93.735v32.835H36.633V93.735c0-23.29,18.875-42.165,42.165-42.165     h383.538C485.625,51.57,504.5,70.445,504.5,93.735z"/>
			<rect id="XMLID_1821_" x="36.633" y="113.946" style="fill:#FF9900;" width="467.867" height="12.624"/>
			<path id="XMLID_1818_" style="fill:#F40029;" d="M182.783,51.57v19.882c0,6.232-5.055,11.297-11.297,11.297h-63.543     c-6.241,0-11.297-5.065-11.297-11.297V51.57H182.783z"/>
			<path id="XMLID_1811_" style="fill:#F40029;" d="M444.487,51.57v19.882c0,6.232-5.055,11.297-11.297,11.297h-63.543     c-6.241,0-11.297-5.065-11.297-11.297V51.57H444.487z"/>
			<g id="XMLID_1778_">
				<g id="XMLID_2260_">
					<rect id="XMLID_2266_" x="108.884" y="32.108" style="fill:#4E7693;" width="61.661" height="38.399"/>
					<g id="XMLID_2264_">
						<rect id="XMLID_2265_" x="108.884" y="32.108" style="fill:#618BAA;" width="61.661" height="12.195"/>
					</g>
					<rect id="XMLID_2263_" x="370.588" y="32.108" style="fill:#4E7693;" width="61.661" height="38.399"/>
					<g id="XMLID_2261_">
						<rect id="XMLID_2262_" x="370.588" y="32.108" style="fill:#618BAA;" width="61.661" height="12.195"/>
					</g>
				</g>
			</g>
		</g>
		<g id="XMLID_2066_">
			<circle id="XMLID_2118_" style="fill:#FF4F19;" cx="128.497" cy="358.895" r="120.997"/>
			<circle id="XMLID_2105_" style="fill:#DDEDE5;" cx="128.497" cy="358.895" r="95.127"/>
			<g id="XMLID_2067_">
				<circle id="XMLID_2070_" style="fill:#4E7693;" cx="128.497" cy="358.799" r="10.796"/>
			</g>
		</g>
		<rect id="XMLID_2257_" x="339" y="183" style="fill:#FF4F19;" width="24.667" height="24.667"/>
	</g>
	<g id="XMLID_712_">
		<path id="XMLID_811_" d="M420.511,411.43H245.755c7.218-16.047,11.238-33.83,11.238-52.535c0-39.846-18.231-75.514-46.789-99.102    h5.448c4.142,0,7.5-3.358,7.5-7.5s-3.358-7.5-7.5-7.5h-19.455c-1.942,0-3.706,0.745-5.038,1.956    c-18.549-10.406-39.923-16.351-62.662-16.351c-32.258,0-61.775,11.952-84.364,31.655v-61.898c0-4.142-3.358-7.5-7.5-7.5    s-7.5,3.358-7.5,7.5V277.5c0,0.004,0.001,0.007,0.001,0.011C10.937,299.688,0,328.037,0,358.895    c0,70.854,57.644,128.497,128.497,128.497c46.095,0,86.593-24.402,109.271-60.962h182.743c4.143,0,7.5-3.358,7.5-7.5    S424.653,411.43,420.511,411.43z M128.497,472.392C65.915,472.392,15,421.478,15,358.895c0-62.582,50.915-113.497,113.497-113.497    c62.583,0,113.497,50.915,113.497,113.497C241.994,421.478,191.079,472.392,128.497,472.392z"/>
		<path id="XMLID_806_" d="M462.334,44.068h-22.585v-11.96c0-4.142-3.357-7.5-7.5-7.5h-61.661c-4.143,0-7.5,3.358-7.5,7.5v11.96    h-39.599c-4.143,0-7.5,3.358-7.5,7.5s3.357,7.5,7.5,7.5h39.599v11.439c0,4.142,3.357,7.5,7.5,7.5h61.661    c4.143,0,7.5-3.358,7.5-7.5V59.068h22.585c19.115,0,34.666,15.551,34.666,34.666v25.341H44.133V93.733    c0-19.115,15.551-34.666,34.666-34.666h22.585v11.439c0,4.142,3.358,7.5,7.5,7.5h61.661c4.142,0,7.5-3.358,7.5-7.5V59.068h115.133    c4.143,0,7.5-3.358,7.5-7.5s-3.357-7.5-7.5-7.5H178.044v-11.96c0-4.142-3.358-7.5-7.5-7.5h-61.661c-4.142,0-7.5,3.358-7.5,7.5    v11.96H78.799c-27.386,0-49.666,22.28-49.666,49.666v76.111c0,4.142,3.358,7.5,7.5,7.5s7.5-3.358,7.5-7.5v-35.77H497v265.109    c0,6.753-5.493,12.247-12.246,12.247h-33.932c-4.143,0-7.5,3.358-7.5,7.5s3.357,7.5,7.5,7.5h33.932    c15.023,0,27.246-12.223,27.246-27.247V93.733C512,66.348,489.72,44.068,462.334,44.068z M424.749,63.007h-46.661V39.608h46.661    V63.007z M116.384,39.608h46.661v23.399h-46.661V39.608z"/>
		<path id="XMLID_804_" d="M215.652,219.528c4.142,0,7.5-3.358,7.5-7.5s-3.358-7.5-7.5-7.5h-19.455c-4.142,0-7.5,3.358-7.5,7.5    s3.358,7.5,7.5,7.5H215.652z"/>
		<path id="XMLID_802_" d="M255.19,219.528h19.455c4.143,0,7.5-3.358,7.5-7.5s-3.357-7.5-7.5-7.5H255.19c-4.142,0-7.5,3.358-7.5,7.5    S251.048,219.528,255.19,219.528z"/>
		<path id="XMLID_798_" d="M255.19,259.793h19.455c4.143,0,7.5-3.358,7.5-7.5s-3.357-7.5-7.5-7.5H255.19c-4.142,0-7.5,3.358-7.5,7.5    S251.048,259.793,255.19,259.793z"/>
		<path id="XMLID_779_" d="M255.19,300.059h19.455c4.143,0,7.5-3.358,7.5-7.5s-3.357-7.5-7.5-7.5H255.19c-4.142,0-7.5,3.358-7.5,7.5    S251.048,300.059,255.19,300.059z"/>
		<path id="XMLID_1110_" d="M319.174,369.194V173.118c0-4.142-3.357-7.5-7.5-7.5s-7.5,3.358-7.5,7.5v196.077    c0,4.142,3.357,7.5,7.5,7.5S319.174,373.336,319.174,369.194z"/>
		<path id="XMLID_1186_" d="M455.63,255.86c-4.143,0-7.5,3.358-7.5,7.5s3.357,7.5,7.5,7.5h15.063c4.143,0,7.5-3.358,7.5-7.5    c0-4.093-3.28-7.414-7.354-7.493v-36.548c0-2.947-1.727-5.622-4.412-6.835c-2.684-1.211-5.833-0.741-8.046,1.208l-7.708,6.791    c-3.107,2.738-3.408,7.477-0.67,10.585c1.531,1.738,3.687,2.598,5.836,2.539v22.253H455.63z"/>
		<path id="XMLID_1187_" d="M437.14,255.868v-36.548c0-2.947-1.727-5.622-4.412-6.835c-2.684-1.211-5.833-0.742-8.045,1.207    l-7.709,6.791c-3.108,2.738-3.409,7.477-0.671,10.585c1.531,1.738,3.686,2.599,5.837,2.54v22.253h-0.209    c-4.143,0-7.5,3.358-7.5,7.5s3.357,7.5,7.5,7.5h15.063c4.143,0,7.5-3.358,7.5-7.5C444.493,259.268,441.214,255.947,437.14,255.868    z"/>
		<path id="XMLID_1188_" d="M429.608,323.648v-36.548c0-2.947-1.727-5.622-4.412-6.835c-2.685-1.212-5.833-0.741-8.046,1.207    l-7.708,6.79c-3.107,2.738-3.408,7.478-0.67,10.585c1.531,1.738,3.685,2.603,5.836,2.54v22.254H414.4c-4.143,0-7.5,3.358-7.5,7.5    s3.357,7.5,7.5,7.5h15.062c4.143,0,7.5-3.358,7.5-7.5C436.962,327.047,433.683,323.726,429.608,323.648z"/>
		<path id="XMLID_767_" d="M381.158,323.64c-4.143,0-7.5,3.358-7.5,7.5s3.357,7.5,7.5,7.5h15.063c4.143,0,7.5-3.358,7.5-7.5    c0-4.093-3.279-7.414-7.354-7.493v-36.548c0-2.947-1.727-5.622-4.412-6.835c-2.685-1.212-5.833-0.741-8.045,1.207l-7.709,6.79    c-3.108,2.738-3.409,7.477-0.671,10.585c1.531,1.739,3.688,2.603,5.837,2.54v22.254H381.158z"/>
		<path id="XMLID_747_" d="M128.497,256.268c-56.589,0-102.627,46.038-102.627,102.627s46.038,102.627,102.627,102.627    s102.627-46.038,102.627-102.627S185.085,256.268,128.497,256.268z M128.497,446.522c-48.318,0-87.627-39.309-87.627-87.627    s39.309-87.627,87.627-87.627s87.627,39.309,87.627,87.627S176.814,446.522,128.497,446.522z"/>
		<path id="XMLID_1194_" d="M128.497,298.991c4.142,0,7.5-3.358,7.5-7.5v-8.12c0-4.142-3.358-7.5-7.5-7.5s-7.5,3.358-7.5,7.5v8.12    C120.997,295.633,124.354,298.991,128.497,298.991z"/>
		<path id="XMLID_1195_" d="M128.497,418.799c-4.142,0-7.5,3.358-7.5,7.5v8.119c0,4.142,3.358,7.5,7.5,7.5s7.5-3.358,7.5-7.5v-8.119    C135.997,422.157,132.639,418.799,128.497,418.799z"/>
		<path id="XMLID_746_" d="M204.02,351.395h-8.119c-4.142,0-7.5,3.358-7.5,7.5s3.358,7.5,7.5,7.5h8.119c4.142,0,7.5-3.358,7.5-7.5    S208.162,351.395,204.02,351.395z"/>
		<path id="XMLID_745_" d="M61.093,351.395h-8.119c-4.142,0-7.5,3.358-7.5,7.5s3.358,7.5,7.5,7.5h8.119c4.142,0,7.5-3.358,7.5-7.5    S65.235,351.395,61.093,351.395z"/>
		<path id="XMLID_1198_" d="M176.159,318.733c1.919,0,3.839-0.732,5.303-2.197l5.741-5.741c2.929-2.929,2.929-7.678,0-10.606    c-2.929-2.929-7.678-2.929-10.606,0l-5.741,5.741c-2.929,2.929-2.929,7.678,0,10.606    C172.32,318.001,174.239,318.733,176.159,318.733z"/>
		<path id="XMLID_1199_" d="M75.532,401.254l-5.741,5.741c-2.929,2.929-2.929,7.678,0,10.606c1.464,1.464,3.384,2.197,5.303,2.197    s3.839-0.732,5.303-2.197l5.741-5.741c2.929-2.929,2.929-7.678,0-10.606C83.209,398.325,78.46,398.325,75.532,401.254z"/>
		<path id="XMLID_1200_" d="M181.462,401.254c-2.929-2.929-7.678-2.929-10.606,0c-2.929,2.929-2.929,7.678,0,10.606l5.741,5.741    c1.464,1.464,3.384,2.197,5.303,2.197s3.839-0.732,5.303-2.197c2.929-2.929,2.929-7.678,0-10.606L181.462,401.254z"/>
		<path id="XMLID_744_" d="M80.397,300.189c-2.929-2.929-7.678-2.929-10.606,0c-2.929,2.929-2.929,7.678,0,10.606l5.741,5.741    c1.464,1.464,3.384,2.197,5.303,2.197s3.839-0.732,5.303-2.197c2.929-2.929,2.929-7.678,0-10.606L80.397,300.189z"/>
		<path id="XMLID_729_" d="M141.434,345.861c-1.647-1.647-3.539-2.896-5.554-3.783v-30.845c0-4.142-3.358-7.5-7.5-7.5    s-7.5,3.358-7.5,7.5v30.953c-1.926,0.88-3.737,2.092-5.321,3.675c-3.456,3.456-5.359,8.05-5.359,12.938s1.903,9.482,5.359,12.938    c3.456,3.456,8.05,5.359,12.938,5.359c4.887,0,9.481-1.903,12.937-5.359c3.456-3.456,5.359-8.05,5.359-12.938    S144.89,349.317,141.434,345.861L141.434,345.861z M130.828,361.13c-0.84,0.84-1.821,0.965-2.331,0.965    c-0.51,0-1.491-0.125-2.331-0.965c-0.84-0.84-0.965-1.821-0.965-2.331s0.125-1.491,0.965-2.331    c0.643-0.643,1.487-0.964,2.331-0.964c0.844,0,1.688,0.321,2.331,0.963c0.84,0.84,0.965,1.821,0.965,2.331    S131.667,360.29,130.828,361.13z"/>
		<path id="XMLID_727_" d="M363.667,215.167c4.143,0,7.5-3.358,7.5-7.5V183c0-4.142-3.357-7.5-7.5-7.5H339    c-4.143,0-7.5,3.358-7.5,7.5v24.667c0,4.142,3.357,7.5,7.5,7.5H363.667z M346.5,190.5h9.667v9.667H346.5V190.5z"/>
	</g>
</g>















</svg>
