<?xml version="1.0" encoding="iso-8859-1"?>
<!-- Generator: Adobe Illustrator 19.0.0, SVG Export Plug-In . SVG Version: 6.00 Build 0)  -->
<svg version="1.1" id="Capa_1" xmlns="http://www.w3.org/2000/svg" xmlns:xlink="http://www.w3.org/1999/xlink" x="0px" y="0px"
	 viewBox="0 0 514.4 514.4" style="enable-background:new 0 0 514.4 514.4;" xml:space="preserve">
<polygon style="fill:#FFFFFF;" points="283.6,382.4 283.6,8 87.6,8 9.2,84.8 9.2,382.4 "/>
<polygon style="fill:#4FBF9F;" points="41.2,350.4 41.2,100 100.4,40 251.6,40 251.6,350.4 "/>
<polygon style="fill:#E1E6E9;" points="100.4,100 41.2,100 100.4,40 "/>
<polygon style="fill:#FDBF5E;" points="505.2,94.4 327.6,93.6 327.6,65.6 228.4,64.8 228.4,103.2 227.6,268 504.4,269.6 "/>
<g>
	<polygon style="fill:#FFFFFF;" points="327.6,65.6 327.6,94.4 485.2,94.4 485.2,32 332.4,32 332.4,8 247.6,8 247.6,65.6 	"/>
	<path style="fill:#FFFFFF;" d="M446.8,379.2c2.4-13.6,1.6-28-0.8-41.6l26.4-16.8l-16-37.6l-30.4,8c-8-11.2-18.4-20.8-29.6-28.8
		l6.4-30.4l-38.4-15.2l-16,27.2c-13.6-2.4-28-1.6-41.6,0.8L290,218.4l-37.6,16l8,30.4c-11.2,8-20.8,18.4-28.8,29.6l-30.4-6.4
		L186,325.6l27.2,16c-2.4,13.6-1.6,28,0.8,41.6L187.6,400l16,37.6l30.4-8c8,11.2,18.4,20.8,29.6,28.8l-5.6,30.4l37.6,15.2l16-27.2
		c13.6,2.4,28,1.6,41.6-0.8l16.8,26.4l37.6-16l-8-30.4c11.2-8,20.8-18.4,28.8-29.6l30.4,6.4l15.2-37.6L446.8,379.2z"/>
	<circle style="fill:#FFFFFF;" cx="330" cy="360" r="56"/>
</g>
<g>
	<rect x="92.4" y="196" style="fill:#193651;" width="107.2" height="16"/>
	<rect x="92.4" y="131.2" style="fill:#193651;" width="107.2" height="16"/>
	<rect x="92.4" y="261.6" style="fill:#193651;" width="107.2" height="16"/>
	<rect x="310.8" y="149.6" style="fill:#193651;" width="16" height="16"/>
	<rect x="358" y="149.6" style="fill:#193651;" width="16" height="16"/>
	<rect x="406" y="149.6" style="fill:#193651;" width="16" height="16"/>
	<path style="fill:#193651;" d="M513.2,86.4h-20V24H340.4V0H83.6L1.2,81.6v308.8h187.2l-11.2,7.2l21.6,49.6l32-8
		c7.2,8.8,15.2,16.8,24,23.2l-7.2,32l50.4,20l16.8-28c11.2,1.6,22.4,0.8,33.6-0.8l17.6,27.2l49.6-21.6l-8-32
		c8.8-7.2,16.8-15.2,23.2-24l32,7.2l20-50.4l-28-16.8c1.6-11.2,0.8-22.4-0.8-33.6l27.2-17.6l-20-46.4h50.4L513.2,86.4z M255.6,16
		h69.6v24H478v45.6H336.4v-28h-80V16H255.6z M17.2,374.4V88l73.6-72.8h148.8v41.6h-19.2L219.6,276h16.8c-3.2,3.2-5.6,6.4-8,9.6
		l-32-7.2l-20,50.4l28,16.8c-0.8,9.6-0.8,19.2,0,28H17.2V374.4z M462,317.6l-24.8,16l0.8,5.6c2.4,12.8,3.2,25.6,0.8,38.4l-0.8,5.6
		l25.6,15.2L454,424l-29.6-7.2l-3.2,4.8c-7.2,11.2-16,20-27.2,28l-4.8,3.2l7.2,28.8l-24.8,11.2l-16-24.8l-5.6,0.8
		c-12.8,2.4-25.6,3.2-38.4,0.8l-5.6-0.8l-15.2,25.6l-25.6-9.6l6.4-28.8l-4.8-3.2c-11.2-7.2-20-16-28-27.2l-3.2-4.8l-26.4,7.2
		L198,403.2l24.8-16l-0.8-5.6c-2.4-12.8-3.2-25.6-0.8-38.4l0.8-5.6l-25.6-15.2l9.6-25.6l28.8,6.4l3.2-4.8c7.2-11.2,16-20,27.2-28
		l4.8-3.2l-7.2-28.8l24.8-11.2l16,24.8l5.6-0.8c12.8-2.4,25.6-3.2,38.4-0.8l5.6,0.8l15.2-25.6l25.6,9.6l-6.4,28.8l4.8,3.2
		c11.2,7.2,20,16,28,27.2l3.2,4.8l28.8-7.2L462,317.6z M251.6,261.6L251.6,261.6L251.6,261.6L251.6,261.6z M424.4,276.8h23.2
		l-18.4,4.8C426.8,280,425.2,278.4,424.4,276.8z M496.4,261.6h-89.6c-0.8-0.8-1.6-1.6-2.4-2.4l7.2-32l-50.4-20l-16.8,28
		c-11.2-1.6-22.4-0.8-33.6,0.8l-17.6-27.2l-49.6,21.6l8,30.4h-15.2v-188l82.4,0.8v28l178.4,0.8L496.4,261.6z"/>
	<path style="fill:#193651;" d="M330,296.8c-35.2,0-64,28.8-64,64s28.8,64,64,64s64-28.8,64-64C394,324.8,365.2,296.8,330,296.8z
		 M330,408c-26.4,0-48-21.6-48-48s21.6-48,48-48s48,21.6,48,48S356.4,408,330,408z"/>
</g>
<g>
</g>
<g>
</g>
<g>
</g>
<g>
</g>
<g>
</g>
<g>
</g>
<g>
</g>
<g>
</g>
<g>
</g>
<g>
</g>
<g>
</g>
<g>
</g>
<g>
</g>
<g>
</g>
<g>
</g>
</svg>
