<?xml version="1.0" encoding="iso-8859-1"?>
<!-- Generator: Adobe Illustrator 19.0.0, SVG Export Plug-In . SVG Version: 6.00 Build 0)  -->
<svg version="1.1" id="Capa_1" xmlns="http://www.w3.org/2000/svg" xmlns:xlink="http://www.w3.org/1999/xlink" x="0px" y="0px"
	 viewBox="0 0 511.999 511.999" style="enable-background:new 0 0 511.999 511.999;" xml:space="preserve">
<path style="fill:#FFB124;" d="M386.267,504.713H125.735c-15.66,0-28.355-12.695-28.355-28.355V35.641
	c0-15.66,12.695-28.355,28.355-28.355h260.531c15.66,0,28.355,12.695,28.355,28.355v440.717
	C414.621,492.019,401.926,504.713,386.267,504.713z"/>
<path style="fill:#FF901E;" d="M386.267,7.287h-36.964c15.66,0,28.355,12.695,28.355,28.355v440.717
	c0,15.66-12.695,28.355-28.355,28.355h36.964c15.66,0,28.355-12.695,28.355-28.355V35.641
	C414.621,19.982,401.927,7.287,386.267,7.287z"/>
<path style="fill:#FFFCFD;" d="M369.629,429.183H142.373c-4.338,0-7.855-3.517-7.855-7.855V54.253c0-4.338,3.517-7.855,7.855-7.855
	h227.256c4.338,0,7.855,3.517,7.855,7.855v367.076C377.484,425.667,373.967,429.183,369.629,429.183z"/>
<path style="fill:#E6E6E6;" d="M369.629,46.398h-37.138c4.338,0,7.855,3.517,7.855,7.855v367.076c0,4.338-3.517,7.855-7.855,7.855
	h37.138c4.338,0,7.855-3.517,7.855-7.855V54.253C377.484,49.915,373.967,46.398,369.629,46.398z"/>
<path style="fill:#21D8DE;" d="M369.629,46.398H142.373c-4.338,0-7.855,3.517-7.855,7.855v34.159h242.965v-34.16
	C377.484,49.915,373.967,46.398,369.629,46.398z"/>
<path style="fill:#11B9C1;" d="M371.212,46.557c-0.511-0.104-1.041-0.16-1.583-0.16h-37.138c4.338,0,7.855,3.517,7.855,7.855v34.159
	h37.138V54.253c0-1.898-0.673-3.639-1.794-4.996C374.57,47.899,373.002,46.924,371.212,46.557z"/>
<circle style="fill:#FFFCFD;" cx="256.001" cy="463.01" r="16.534"/>
<g>
	<path style="fill:#61AFF6;" d="M204.26,177.698h-36.883c-2.26,0-4.092-1.832-4.092-4.092v-36.883c0-2.26,1.832-4.092,4.092-4.092
		h36.883c2.26,0,4.092,1.832,4.092,4.092v36.883C208.352,175.866,206.52,177.698,204.26,177.698z"/>
	<path style="fill:#61AFF6;" d="M204.26,271.32h-36.883c-2.26,0-4.092-1.832-4.092-4.092v-36.883c0-2.26,1.832-4.092,4.092-4.092
		h36.883c2.26,0,4.092,1.832,4.092,4.092v36.883C208.352,269.488,206.52,271.32,204.26,271.32z"/>
	<path style="fill:#61AFF6;" d="M204.26,364.941h-36.883c-2.26,0-4.092-1.832-4.092-4.092v-36.883c0-2.26,1.832-4.092,4.092-4.092
		h36.883c2.26,0,4.092,1.832,4.092,4.092v36.883C208.352,363.109,206.52,364.941,204.26,364.941z"/>
</g>
<path d="M386.267,0H125.735c-19.653,0-35.641,15.989-35.641,35.641v328.443c0,4.024,3.262,7.287,7.287,7.287
	s7.287-3.262,7.287-7.287V35.641c0-11.617,9.451-21.068,21.068-21.068h260.531c11.617,0,21.068,9.451,21.068,21.068v440.717
	c0,11.617-9.452,21.068-21.068,21.068H125.735c-11.617,0-21.068-9.451-21.068-21.068v-73.899c0-4.024-3.262-7.287-7.287-7.287
	s-7.287,3.262-7.287,7.287v73.899c0,19.653,15.989,35.641,35.641,35.641h260.531c19.653,0,35.641-15.989,35.641-35.641V35.641
	C421.908,15.989,405.919,0,386.267,0z"/>
<path d="M384.77,421.329V95.698V54.252c0-8.349-6.792-15.141-15.141-15.141H142.373c-8.349,0-15.141,6.792-15.141,15.141v41.446
	v325.63c0,8.349,6.792,15.141,15.141,15.141h227.256C377.978,436.47,384.77,429.677,384.77,421.329z M141.805,54.252
	c0-0.313,0.255-0.568,0.568-0.568h227.256c0.313,0,0.568,0.255,0.568,0.568v26.873H141.805V54.252z M141.805,421.329V95.698h228.393
	v325.63c0,0.313-0.255,0.568-0.568,0.568H142.373C142.059,421.897,141.805,421.642,141.805,421.329z"/>
<path d="M232.18,463.012c0,13.135,10.686,23.821,23.821,23.821c13.135,0,23.821-10.686,23.821-23.821s-10.686-23.82-23.821-23.82
	C242.866,439.192,232.18,449.878,232.18,463.012z M265.249,463.012c0,5.099-4.148,9.248-9.248,9.248
	c-5.099,0-9.248-4.148-9.248-9.248s4.148-9.248,9.248-9.248C261.101,453.765,265.249,457.913,265.249,463.012z"/>
<path d="M204.26,125.344h-36.883c-6.274,0-11.379,5.104-11.379,11.378v36.884c0,6.274,5.104,11.378,11.379,11.378h36.883
	c6.274,0,11.379-5.104,11.379-11.378v-36.884C215.639,130.449,210.534,125.344,204.26,125.344z M201.066,170.411h-30.495v-30.494
	h30.494L201.066,170.411L201.066,170.411z"/>
<path d="M204.26,218.966h-36.883c-6.274,0-11.379,5.104-11.379,11.379v36.883c0,6.274,5.104,11.379,11.379,11.379h36.883
	c6.274,0,11.379-5.104,11.379-11.379v-36.883C215.639,224.07,210.534,218.966,204.26,218.966z M201.066,264.033h-30.495v-30.494
	h30.494L201.066,264.033L201.066,264.033z"/>
<path d="M204.26,312.588h-36.883c-6.274,0-11.379,5.104-11.379,11.379v36.883c0,6.274,5.104,11.378,11.379,11.378h36.883
	c6.274,0,11.379-5.104,11.379-11.378v-36.883C215.639,317.692,210.534,312.588,204.26,312.588z M201.066,357.655h-30.495v-30.494
	h30.494L201.066,357.655L201.066,357.655z"/>
<path d="M347.973,135.338h-53.728c-4.025,0-7.287,3.262-7.287,7.287c0,4.024,3.262,7.287,7.287,7.287h53.728
	c4.025,0,7.287-3.262,7.287-7.287C355.26,138.6,351.998,135.338,347.973,135.338z"/>
<path d="M244.343,149.911h12.751c4.025,0,7.287-3.262,7.287-7.287c0-4.024-3.262-7.287-7.287-7.287h-12.751
	c-4.024,0-7.287,3.262-7.287,7.287C237.056,146.648,240.318,149.911,244.343,149.911z"/>
<path d="M347.973,160.418h-103.63c-4.024,0-7.287,3.262-7.287,7.287c0,4.024,3.262,7.287,7.287,7.287h103.631
	c4.025,0,7.287-3.262,7.287-7.287C355.26,163.68,351.998,160.418,347.973,160.418z"/>
<path d="M347.973,228.96h-103.63c-4.024,0-7.287,3.262-7.287,7.287c0,4.024,3.262,7.287,7.287,7.287h103.631
	c4.025,0,7.287-3.262,7.287-7.287C355.26,232.222,351.998,228.96,347.973,228.96z"/>
<path d="M347.973,254.039h-103.63c-4.024,0-7.287,3.262-7.287,7.287s3.262,7.287,7.287,7.287h103.631
	c4.025,0,7.287-3.262,7.287-7.287S351.998,254.039,347.973,254.039z"/>
<path d="M347.973,322.581h-103.63c-4.024,0-7.287,3.262-7.287,7.287s3.262,7.287,7.287,7.287h103.631
	c4.025,0,7.287-3.262,7.287-7.287S351.998,322.581,347.973,322.581z"/>
<path d="M347.973,347.661h-103.63c-4.024,0-7.287,3.262-7.287,7.287s3.262,7.287,7.287,7.287h103.631
	c4.025,0,7.287-3.262,7.287-7.287S351.998,347.661,347.973,347.661z"/>
<g>
</g>
<g>
</g>
<g>
</g>
<g>
</g>
<g>
</g>
<g>
</g>
<g>
</g>
<g>
</g>
<g>
</g>
<g>
</g>
<g>
</g>
<g>
</g>
<g>
</g>
<g>
</g>
<g>
</g>
</svg>
