<?xml version="1.0" encoding="iso-8859-1"?>
<!-- Generator: Adobe Illustrator 19.0.0, SVG Export Plug-In . SVG Version: 6.00 Build 0)  -->
<svg version="1.1" id="Capa_1" xmlns="http://www.w3.org/2000/svg" xmlns:xlink="http://www.w3.org/1999/xlink" x="0px" y="0px"
	 viewBox="0 0 511.999 511.999" style="enable-background:new 0 0 511.999 511.999;" xml:space="preserve">
<path style="fill:#EFEFEF;" d="M100.265,7.5c-19.842,0-36.076,16.234-36.076,36.075v424.848c0,19.841,16.234,36.075,36.076,36.075
	c3.891,0,125.471,0,127.874,0V7.5C223.759,7.5,118.467,7.5,100.265,7.5z"/>
<path style="fill:#DDDDDD;" d="M94.19,468.423V43.576c0-19.841,16.234-36.075,36.076-36.075h-30.002
	c-19.842,0-36.076,16.234-36.076,36.075v424.848c0,19.841,16.234,36.075,36.076,36.075h30.002
	C110.425,504.5,94.19,488.266,94.19,468.423z"/>
<circle style="fill:#666666;" cx="114.236" cy="55.323" r="16.978"/>
<path style="fill:#535454;" d="M114.24,38.359C101.295,38.34,92.956,52.428,99.53,63.813c6.575,11.389,22.945,11.203,29.4-0.013
	C115.86,63.781,107.72,49.692,114.24,38.359z"/>
<path style="fill:#EFEFEF;" d="M411.734,504.5H228.138c-19.841,0-36.076-16.234-36.076-36.075V43.576
	c0-19.841,16.234-36.075,36.076-36.075h183.596c19.841,0,36.076,16.234,36.076,36.075v424.848
	C447.81,488.266,431.576,504.5,411.734,504.5z"/>
<path style="fill:#DDDDDD;" d="M213.854,468.423V43.576c0-19.841,16.234-36.075,36.076-36.075h-21.791
	c-19.841,0-36.076,16.234-36.076,36.075v424.848c0,19.841,16.234,36.075,36.076,36.075h21.791
	C230.088,504.5,213.854,488.266,213.854,468.423z"/>
<path style="fill:#A4D9F4;" d="M418.13,402.009H221.743c-4.315,0-7.813-3.498-7.813-7.813V89.308c0-4.315,3.498-7.813,7.813-7.813
	h196.386c4.315,0,7.813,3.498,7.813,7.813v304.887C425.942,398.511,422.444,402.009,418.13,402.009z"/>
<path style="fill:#7CC9E8;" d="M235.681,394.196V89.308c0-4.315,3.498-7.813,7.813-7.813h-21.751c-4.315,0-7.813,3.498-7.813,7.813
	v304.887c0,4.315,3.498,7.813,7.813,7.813h21.751C239.179,402.009,235.681,398.511,235.681,394.196z"/>
<circle style="fill:#DDDDDD;" cx="319.939" cy="452.137" r="28.022"/>
<path style="fill:#CCCCCC;" d="M315.556,424.457c-3.301,0.522-6.564,1.639-9.632,3.41c-13.404,7.738-17.996,24.878-10.258,38.281
	c9.858,17.075,33.746,18.829,46.051,3.621C316.421,473.768,299.426,444.392,315.556,424.457z"/>
<path style="fill:#70B5E8;" d="M213.929,89.308v23.651h212.013V89.308c0-4.315-3.498-7.813-7.813-7.813H221.743
	C217.428,81.495,213.929,84.993,213.929,89.308z"/>
<path style="fill:#52A5D8;" d="M235.681,89.308c0-4.315,3.498-7.813,7.813-7.813h-21.751c-1.079,0-2.106,0.219-3.041,0.614
	c-1.402,0.593-2.595,1.584-3.438,2.831c-0.281,0.416-0.523,0.86-0.72,1.327c-0.396,0.935-0.614,1.962-0.614,3.041v23.651h21.751
	V89.308z"/>
<path style="fill:#898989;" d="M259.096,305.522h-20.07c-1.84,0-3.345-1.505-3.345-3.345v-20.07c0-1.84,1.505-3.345,3.345-3.345
	h20.07c1.84,0,3.345,1.505,3.345,3.345v20.07C262.441,304.017,260.936,305.522,259.096,305.522z"/>
<path style="fill:#92B620;" d="M259.096,380.489h-20.07c-1.84,0-3.345-1.505-3.345-3.345v-20.07c0-1.84,1.505-3.345,3.345-3.345
	h20.07c1.84,0,3.345,1.505,3.345,3.345v20.07C262.441,378.984,260.936,380.489,259.096,380.489z"/>
<path style="fill:#70B5E8;" d="M306.346,380.489h-20.07c-1.84,0-3.345-1.505-3.345-3.345v-20.07c0-1.84,1.505-3.345,3.345-3.345
	h20.07c1.84,0,3.345,1.505,3.345,3.345v20.07C309.691,378.984,308.186,380.489,306.346,380.489z"/>
<path style="fill:#52A5D8;" d="M353.596,380.489h-20.07c-1.84,0-3.345-1.505-3.345-3.345v-20.07c0-1.84,1.505-3.345,3.345-3.345
	h20.07c1.84,0,3.345,1.505,3.345,3.345v20.07C356.941,378.984,355.436,380.489,353.596,380.489z"/>
<path style="fill:#FFB70D;" d="M400.846,380.489h-20.07c-1.84,0-3.345-1.505-3.345-3.345v-20.07c0-1.84,1.505-3.345,3.345-3.345
	h20.07c1.84,0,3.345,1.505,3.345,3.345v20.07C404.191,378.984,402.686,380.489,400.846,380.489z"/>
<path style="fill:#92B620;" d="M259.096,161.134h-20.07c-1.84,0-3.345-1.505-3.345-3.345v-20.07c0-1.84,1.505-3.345,3.345-3.345
	h20.07c1.84,0,3.345,1.505,3.345,3.345v20.07C262.441,159.629,260.936,161.134,259.096,161.134z"/>
<path style="fill:#F94A46;" d="M306.346,161.134h-20.07c-1.84,0-3.345-1.505-3.345-3.345v-20.07c0-1.84,1.505-3.345,3.345-3.345
	h20.07c1.84,0,3.345,1.505,3.345,3.345v20.07C309.691,159.629,308.186,161.134,306.346,161.134z"/>
<path style="fill:#FFB70D;" d="M353.596,161.134h-20.07c-1.84,0-3.345-1.505-3.345-3.345v-20.07c0-1.84,1.505-3.345,3.345-3.345
	h20.07c1.84,0,3.345,1.505,3.345,3.345v20.07C356.941,159.629,355.436,161.134,353.596,161.134z"/>
<path style="fill:#EFEFEF;" d="M400.847,161.134h-20.07c-1.84,0-3.345-1.505-3.345-3.345v-20.07c0-1.84,1.505-3.345,3.345-3.345
	h20.07c1.84,0,3.345,1.505,3.345,3.345v20.07C404.191,159.629,402.686,161.134,400.847,161.134z"/>
<path style="fill:#DDA36F;" d="M259.096,208.85h-20.07c-1.84,0-3.345-1.505-3.345-3.345v-20.07c0-1.84,1.505-3.345,3.345-3.345
	h20.07c1.84,0,3.345,1.505,3.345,3.345v20.07C262.441,207.345,260.936,208.85,259.096,208.85z"/>
<path style="fill:#70B5E8;" d="M306.346,208.85h-20.07c-1.84,0-3.345-1.505-3.345-3.345v-20.07c0-1.84,1.505-3.345,3.345-3.345
	h20.07c1.84,0,3.345,1.505,3.345,3.345v20.07C309.691,207.345,308.186,208.85,306.346,208.85z"/>
<path style="fill:#F9D698;" d="M353.596,208.85h-20.07c-1.84,0-3.345-1.505-3.345-3.345v-20.07c0-1.84,1.505-3.345,3.345-3.345
	h20.07c1.84,0,3.345,1.505,3.345,3.345v20.07C356.941,207.345,355.436,208.85,353.596,208.85z"/>
<path style="fill:#70B5E8;" d="M400.847,208.85h-20.07c-1.84,0-3.345-1.505-3.345-3.345v-20.07c0-1.84,1.505-3.345,3.345-3.345
	h20.07c1.84,0,3.345,1.505,3.345,3.345v20.07C404.191,207.345,402.686,208.85,400.847,208.85z"/>
<path style="fill:#EFEFEF;" d="M259.096,257.187h-20.07c-1.84,0-3.345-1.505-3.345-3.345v-20.07c0-1.84,1.505-3.345,3.345-3.345
	h20.07c1.84,0,3.345,1.505,3.345,3.345v20.07C262.441,255.68,260.936,257.187,259.096,257.187z"/>
<path style="fill:#FFB70D;" d="M306.346,257.187h-20.07c-1.84,0-3.345-1.505-3.345-3.345v-20.07c0-1.84,1.505-3.345,3.345-3.345
	h20.07c1.84,0,3.345,1.505,3.345,3.345v20.07C309.691,255.68,308.186,257.187,306.346,257.187z"/>
<path style="fill:#70B5E8;" d="M353.596,257.187h-20.07c-1.84,0-3.345-1.505-3.345-3.345v-20.07c0-1.84,1.505-3.345,3.345-3.345
	h20.07c1.84,0,3.345,1.505,3.345,3.345v20.07C356.941,255.68,355.436,257.187,353.596,257.187z"/>
<path style="fill:#EFEFEF;" d="M400.847,257.187h-20.07c-1.84,0-3.345-1.505-3.345-3.345v-20.07c0-1.84,1.505-3.345,3.345-3.345
	h20.07c1.84,0,3.345,1.505,3.345,3.345v20.07C404.191,255.68,402.686,257.187,400.847,257.187z"/>
<path d="M138.711,55.323c0-13.497-10.982-24.478-24.478-24.478c-13.498,0-24.479,10.981-24.479,24.478s10.982,24.478,24.479,24.478
	S138.711,68.821,138.711,55.323z M104.755,55.323c0-5.225,4.252-9.478,9.479-9.478c5.226,0,9.478,4.251,9.478,9.478
	s-4.251,9.478-9.478,9.478C109.007,64.801,104.755,60.55,104.755,55.323z"/>
<circle cx="157.509" cy="55.323" r="7.174"/>
<path d="M349.979,56.651c4.143,0,7.5-3.358,7.5-7.5s-3.357-7.5-7.5-7.5h-32.465c-4.143,0-7.5,3.358-7.5,7.5s3.357,7.5,7.5,7.5
	H349.979z"/>
<path d="M283.662,53.317c0.27,0.41,0.58,0.79,0.93,1.14c0.34,0.34,0.729,0.66,1.14,0.93c0.4,0.27,0.84,0.5,1.29,0.69
	c0.46,0.19,0.931,0.33,1.41,0.43c0.48,0.09,0.97,0.14,1.46,0.14c3.474,0,6.594-2.374,7.36-6.03c0.09-0.48,0.14-0.98,0.14-1.46
	c0-0.49-0.05-0.99-0.14-1.47c-0.101-0.48-0.24-0.95-0.431-1.4c-0.189-0.46-0.42-0.89-0.689-1.3c-0.271-0.41-0.59-0.79-0.93-1.14
	c-0.351-0.34-0.73-0.66-1.141-0.93c-0.41-0.27-0.85-0.5-1.3-0.69c-0.45-0.19-0.92-0.33-1.4-0.43c-0.97-0.19-1.97-0.19-2.93,0
	c-0.48,0.1-0.95,0.24-1.41,0.43c-0.45,0.19-0.89,0.42-1.29,0.69c-0.41,0.27-0.8,0.59-1.14,0.93c-0.35,0.35-0.66,0.73-0.93,1.14
	c-0.271,0.41-0.511,0.84-0.691,1.3c-0.189,0.45-0.33,0.92-0.43,1.4c-0.1,0.48-0.15,0.98-0.15,1.47c0,0.48,0.05,0.98,0.15,1.46
	c0.1,0.48,0.24,0.95,0.43,1.4C283.151,52.467,283.391,52.907,283.662,53.317z"/>
<path d="M284.412,452.136c0,19.588,15.936,35.525,35.524,35.525c19.588,0,35.524-15.937,35.524-35.525s-15.937-35.524-35.524-35.524
	C300.348,416.612,284.412,432.548,284.412,452.136z M340.459,452.136c0,11.317-9.207,20.524-20.523,20.524
	c-11.317,0-20.523-9.207-20.523-20.524c0-11.317,9.207-20.523,20.523-20.523C331.253,431.613,340.459,440.82,340.459,452.136z"/>
<path d="M312.004,446.721v10.832c0,1.384,1.132,2.516,2.516,2.516h10.832c1.383,0,2.515-1.132,2.515-2.516v-10.832
	c0-1.384-1.132-2.516-2.515-2.516h-10.832C313.136,444.206,312.004,445.338,312.004,446.721z"/>
<path d="M399.027,409.509h19.103c8.444,0,15.314-6.869,15.314-15.314c0-10.523,0-294.362,0-304.887
	c0-7.388-5.259-13.572-12.231-15.002c-2.078-0.426-200.001-0.523-202.551,0c-6.972,1.43-12.232,7.613-12.232,15.002
	c0,10.527,0,294.365,0,304.887c0,8.444,6.869,15.314,15.315,15.314h142.282c4.142,0,7.5-3.357,7.5-7.5c0-4.143-3.358-7.5-7.5-7.5
	H221.743c-0.173,0-0.314-0.141-0.314-0.313V120.46h197.012v273.736c0,0.172-0.141,0.313-0.313,0.313h-19.103
	c-4.143,0-7.5,3.357-7.5,7.5C391.526,406.152,394.883,409.509,399.027,409.509z M221.43,105.459
	c0.14-16.383-0.295-16.464,0.314-16.464c204.217,0.146,196.699-0.306,196.699,0.313v16.151
	C418.443,105.459,221.43,105.459,221.43,105.459z"/>
<path d="M447.81,102.959c4.143,0,7.5-3.358,7.5-7.5V43.577C455.31,19.548,435.762,0,411.734,0c-6.16,0-300.783,0-311.47,0
	C76.236,0,56.689,19.548,56.689,43.577v333.689c0,4.143,3.357,7.5,7.5,7.5s7.5-3.357,7.5-7.5V43.577
	c0-15.757,12.819-28.576,28.575-28.576h95.001c-15.414,17.711-10.109-5.078-10.703,453.422c0,10.213,3.623,20.435,10.703,28.575
	h-95.001c-15.756,0-28.575-12.819-28.575-28.575v-56.155c0-4.143-3.357-7.5-7.5-7.5s-7.5,3.357-7.5,7.5v56.155
	c0,24.027,19.548,43.576,43.576,43.576c10.71,0,305.422,0,311.47,0c24.027,0,43.576-19.548,43.576-43.576V130.461
	c0-4.142-3.357-7.5-7.5-7.5c-4.142,0-7.5,3.358-7.5,7.5v337.962c0,15.756-12.819,28.575-28.575,28.575H228.138
	c-15.756,0-28.575-12.819-28.575-28.575V43.577c0-15.757,12.819-28.576,28.575-28.576h183.596c15.756,0,28.575,12.819,28.575,28.576
	v51.882C440.309,99.601,443.667,102.959,447.81,102.959z"/>
<path d="M259.09,346.228h-20.069c-5.98,0-10.847,4.865-10.847,10.846v20.07c0,5.979,4.865,10.846,10.847,10.846h20.069
	c5.979,0,10.846-4.865,10.846-10.846v-20.07C269.936,351.093,265.071,346.228,259.09,346.228z M254.935,372.989h-11.76v-11.76h11.76
	V372.989z"/>
<path d="M306.34,346.228h-20.07c-5.98,0-10.846,4.865-10.846,10.846v20.07c0,5.979,4.865,10.846,10.846,10.846h20.07
	c5.979,0,10.846-4.865,10.846-10.846v-20.07C317.186,351.093,312.32,346.228,306.34,346.228z M302.185,372.989h-11.76v-11.76h11.76
	V372.989z"/>
<path d="M353.59,346.228h-20.07c-5.979,0-10.846,4.865-10.846,10.846v20.07c0,5.979,4.865,10.846,10.846,10.846h20.07
	c5.98,0,10.846-4.865,10.846-10.846v-20.07C364.436,351.093,359.57,346.228,353.59,346.228z M349.435,372.989h-11.76v-11.76h11.76
	V372.989z"/>
<path d="M369.924,377.144c0,5.979,4.865,10.846,10.846,10.846h20.07c5.979,0,10.846-4.865,10.846-10.846v-20.07
	c0-5.979-4.865-10.846-10.846-10.846h-20.07c-5.979,0-10.846,4.865-10.846,10.846V377.144z M384.925,361.229h11.76v11.76h-11.76
	V361.229z"/>
<path d="M269.936,137.718c0-5.98-4.865-10.846-10.846-10.846h-20.07c-5.979,0-10.846,4.865-10.846,10.846v20.07
	c0,5.98,4.865,10.846,10.846,10.846h20.07c5.979,0,10.846-4.865,10.846-10.846V137.718z M254.935,153.633h-11.76v-11.76h11.76
	V153.633z"/>
<path d="M317.186,137.718c0-5.98-4.865-10.846-10.846-10.846h-20.07c-5.98,0-10.846,4.865-10.846,10.846v20.07
	c0,5.98,4.865,10.846,10.846,10.846h20.07c5.979,0,10.846-4.865,10.846-10.846V137.718z M302.185,153.633h-11.76v-11.76h11.76
	V153.633z"/>
<path d="M364.436,137.718c0-5.98-4.865-10.846-10.846-10.846h-20.07c-5.979,0-10.846,4.865-10.846,10.846v20.07
	c0,5.98,4.865,10.846,10.846,10.846h20.07c5.98,0,10.846-4.865,10.846-10.846V137.718z M349.435,153.633h-11.76v-11.76h11.76
	V153.633z"/>
<path d="M380.77,168.634h20.07c5.979,0,10.846-4.865,10.846-10.846v-20.07c0-5.98-4.865-10.846-10.846-10.846h-20.07
	c-5.979,0-10.846,4.865-10.846,10.846v20.07C369.924,163.769,374.79,168.634,380.77,168.634z M384.925,141.874h11.76v11.76h-11.76
	V141.874z"/>
<path d="M269.936,185.434c0-5.98-4.865-10.846-10.846-10.846h-20.07c-5.979,0-10.846,4.865-10.846,10.846v20.07
	c0,5.98,4.865,10.846,10.846,10.846h20.07c5.979,0,10.846-4.865,10.846-10.846V185.434z M254.935,201.349h-11.76v-11.76h11.76
	V201.349z"/>
<path d="M317.186,185.434c0-5.98-4.865-10.846-10.846-10.846h-20.07c-5.98,0-10.846,4.865-10.846,10.846v20.07
	c0,5.98,4.865,10.846,10.846,10.846h20.07c5.979,0,10.846-4.865,10.846-10.846V185.434z M302.185,201.349h-11.76v-11.76h11.76
	V201.349z"/>
<path d="M364.436,185.434c0-5.98-4.865-10.846-10.846-10.846h-20.07c-5.979,0-10.846,4.865-10.846,10.846v20.07
	c0,5.98,4.865,10.846,10.846,10.846h20.07c5.98,0,10.846-4.865,10.846-10.846V185.434z M349.435,201.349h-11.76v-11.76h11.76
	V201.349z"/>
<path d="M369.924,205.504c0,5.98,4.865,10.846,10.846,10.846h20.07c5.979,0,10.846-4.865,10.846-10.846v-20.07
	c0-5.98-4.865-10.846-10.846-10.846h-20.07c-5.979,0-10.846,4.865-10.846,10.846V205.504z M384.925,189.589h11.76v11.76h-11.76
	V189.589z"/>
<path d="M269.936,233.77c0-5.98-4.865-10.846-10.846-10.846h-20.07c-5.979,0-10.846,4.865-10.846,10.846v20.07
	c0,5.98,4.865,10.845,10.846,10.845h20.07c5.979,0,10.846-4.864,10.846-10.845V233.77z M254.935,249.685h-11.76v-11.759h11.76
	V249.685z"/>
<path d="M269.936,282.107c0-5.98-4.865-10.846-10.846-10.846h-20.07c-5.979,0-10.846,4.865-10.846,10.846v20.07
	c0,5.98,4.865,10.846,10.846,10.846h20.07c5.979,0,10.846-4.865,10.846-10.846V282.107z M254.935,298.022h-11.76v-11.76h11.76
	V298.022z"/>
<path d="M317.186,233.77c0-5.98-4.865-10.846-10.846-10.846h-20.07c-5.98,0-10.846,4.865-10.846,10.846v20.07
	c0,5.98,4.865,10.845,10.846,10.845h20.07c5.979,0,10.846-4.864,10.846-10.845V233.77z M302.185,249.685h-11.76v-11.759h11.76
	V249.685z"/>
<path d="M364.436,233.77c0-5.98-4.865-10.846-10.846-10.846h-20.07c-5.979,0-10.846,4.865-10.846,10.846v20.07
	c0,5.98,4.865,10.845,10.846,10.845h20.07c5.98,0,10.846-4.864,10.846-10.845V233.77z M349.435,249.685h-11.76v-11.759h11.76
	V249.685z"/>
<path d="M369.924,253.841c0,5.98,4.865,10.845,10.846,10.845h20.07c5.979,0,10.846-4.864,10.846-10.845v-20.07
	c0-5.98-4.865-10.846-10.846-10.846h-20.07c-5.979,0-10.846,4.865-10.846,10.846V253.841z M384.925,237.926h11.76v11.759h-11.76
	V237.926z"/>
<g>
</g>
<g>
</g>
<g>
</g>
<g>
</g>
<g>
</g>
<g>
</g>
<g>
</g>
<g>
</g>
<g>
</g>
<g>
</g>
<g>
</g>
<g>
</g>
<g>
</g>
<g>
</g>
<g>
</g>
</svg>
