<?xml version="1.0" encoding="iso-8859-1"?>
<!-- Generator: Adobe Illustrator 19.0.0, SVG Export Plug-In . SVG Version: 6.00 Build 0)  -->
<svg version="1.1" id="Capa_1" xmlns="http://www.w3.org/2000/svg" xmlns:xlink="http://www.w3.org/1999/xlink" x="0px" y="0px"
	 viewBox="0 0 512 512" style="enable-background:new 0 0 512 512;" xml:space="preserve">
<rect x="40" y="58.8" style="fill:#FFFFFF;" width="432" height="331.2"/>
<rect x="80" y="98.8" style="fill:#2EA2DB;" width="352" height="251.2"/>
<g>
	<rect x="114.4" y="193.2" style="fill:#FFFFFF;" width="283.2" height="48.8"/>
	<rect x="114.4" y="136.4" style="fill:#FFFFFF;" width="283.2" height="29.6"/>
	<rect x="114.4" y="273.2" style="fill:#FFFFFF;" width="69.6" height="40"/>
	<rect x="221.6" y="273.2" style="fill:#FFFFFF;" width="69.6" height="40"/>
	<rect x="328.8" y="273.2" style="fill:#FFFFFF;" width="69.6" height="40"/>
	<path style="fill:#FFFFFF;" d="M440.8,454H71.2C36,454,8,426,8,390.8l0,0h496l0,0C504,425.2,476,454,440.8,454z"/>
</g>
<g>
	<path style="fill:#193651;" d="M72,358.8h368v-268H72V358.8z M88,106.8h336V342H88V106.8z"/>
	<path style="fill:#193651;" d="M480,382.8v-332H32V382H0v8c0,39.2,32,71.2,71.2,71.2h369.6c39.2,0,71.2-32,71.2-71.2v-8h-32V382.8z
		 M48,66.8h416V382H48V66.8z M440.8,446H71.2c-28,0-50.4-20.8-54.4-47.2H496C491.2,425.2,468.8,446,440.8,446z"/>
	<rect x="200.8" y="414" style="fill:#193651;" width="16" height="16"/>
	<rect x="248" y="414" style="fill:#193651;" width="16" height="16"/>
	<rect x="295.2" y="414" style="fill:#193651;" width="16" height="16"/>
</g>
<g>
</g>
<g>
</g>
<g>
</g>
<g>
</g>
<g>
</g>
<g>
</g>
<g>
</g>
<g>
</g>
<g>
</g>
<g>
</g>
<g>
</g>
<g>
</g>
<g>
</g>
<g>
</g>
<g>
</g>
</svg>
