<?xml version="1.0" encoding="iso-8859-1"?>
<!-- Generator: Adobe Illustrator 19.0.0, SVG Export Plug-In . SVG Version: 6.00 Build 0)  -->
<svg version="1.1" id="Capa_1" xmlns="http://www.w3.org/2000/svg" xmlns:xlink="http://www.w3.org/1999/xlink" x="0px" y="0px"
	 viewBox="0 0 512 512" style="enable-background:new 0 0 512 512;" xml:space="preserve">
<g>
	<polygon style="fill:#EA8634;" points="129.267,149.555 129.267,149.565 88.713,149.565 129.267,109.01 	"/>
	<polygon style="fill:#EA8634;" points="423.287,149.565 382.733,149.565 382.733,149.555 382.733,109.01 	"/>
</g>
<polygon style="fill:#F4F6F8;" points="382.733,48.158 342.178,48.158 342.178,7.604 "/>
<polygon style="fill:#E4E8EB;" points="382.733,149.555 382.733,149.565 129.267,149.565 129.267,149.555 129.267,109.01 
	129.267,7.604 342.178,7.604 342.178,48.158 382.733,48.158 382.733,109.01 "/>
<path style="fill:#FFB448;" d="M423.287,149.565v334.554l-40.554-40.554H129.267l-40.554,40.554V149.565h40.554h253.465H423.287z"/>
<polygon style="fill:#FF9F43;" points="392.868,149.565 392.868,453.7 423.287,484.119 423.287,149.565 "/>
<path style="fill:#EE5253;" d="M256,190.099c8.395,0,15.208,6.813,15.208,15.208c0,8.405-6.813,15.208-15.208,15.208
	s-15.208-6.803-15.208-15.208C240.792,196.912,247.605,190.099,256,190.099z"/>
<path style="fill:#FECA57;" d="M423.287,484.119v0.01c-0.01,11.214-9.064,20.267-20.277,20.267H108.99
	c-11.213,0-20.267-9.054-20.277-20.267v-0.01l40.554-40.554h253.465L423.287,484.119z"/>
<path style="fill:#FFB448;" d="M392.868,484.119v0.01c-0.01,11.214-9.064,20.267-20.277,20.267h30.419
	c11.213,0,20.267-9.054,20.277-20.267v-0.01L392.868,453.7V484.119z"/>
<rect x="352.317" y="48.158" style="fill:#CAD0D7;" width="30.416" height="101.406"/>
<path d="M430.893,484.119L430.893,484.119V149.562c0-0.252-0.013-0.504-0.039-0.754c-0.01-0.109-0.031-0.214-0.046-0.32
	c-0.02-0.139-0.037-0.277-0.064-0.415c-0.024-0.125-0.06-0.245-0.09-0.369c-0.029-0.118-0.056-0.235-0.09-0.352
	c-0.036-0.121-0.082-0.237-0.124-0.357c-0.042-0.116-0.08-0.232-0.127-0.347c-0.046-0.111-0.1-0.217-0.151-0.325
	c-0.055-0.116-0.106-0.233-0.168-0.348c-0.056-0.105-0.12-0.205-0.18-0.307c-0.066-0.111-0.129-0.223-0.202-0.331
	c-0.075-0.113-0.159-0.219-0.24-0.326c-0.068-0.091-0.131-0.184-0.203-0.272c-0.15-0.184-0.309-0.359-0.475-0.526
	c-0.01-0.011-0.018-0.021-0.028-0.031l-38.333-38.334V48.162c0-0.252-0.013-0.504-0.039-0.754c-0.01-0.108-0.031-0.214-0.046-0.32
	c-0.02-0.139-0.036-0.278-0.064-0.415c-0.024-0.125-0.06-0.246-0.09-0.369c-0.029-0.117-0.056-0.235-0.09-0.352
	c-0.036-0.122-0.082-0.237-0.125-0.357c-0.042-0.116-0.08-0.232-0.128-0.347c-0.046-0.111-0.1-0.217-0.151-0.325
	c-0.055-0.117-0.106-0.234-0.167-0.348c-0.056-0.105-0.12-0.205-0.18-0.307c-0.066-0.111-0.129-0.223-0.202-0.331
	c-0.075-0.113-0.159-0.219-0.24-0.326c-0.068-0.09-0.131-0.184-0.203-0.271c-0.15-0.184-0.309-0.359-0.475-0.526
	c-0.01-0.01-0.018-0.021-0.028-0.031L347.55,2.226c-0.011-0.012-0.024-0.02-0.035-0.032c-0.167-0.164-0.341-0.321-0.521-0.471
	c-0.087-0.071-0.18-0.134-0.271-0.201c-0.108-0.082-0.215-0.165-0.327-0.241c-0.105-0.07-0.215-0.132-0.322-0.196
	c-0.105-0.063-0.208-0.129-0.317-0.188c-0.107-0.058-0.218-0.105-0.327-0.157c-0.116-0.055-0.23-0.113-0.349-0.161
	c-0.104-0.044-0.211-0.078-0.316-0.116c-0.128-0.047-0.256-0.096-0.386-0.136c-0.103-0.03-0.208-0.054-0.311-0.079
	c-0.137-0.035-0.272-0.073-0.412-0.101c-0.113-0.021-0.227-0.034-0.341-0.052c-0.132-0.02-0.262-0.045-0.395-0.058
	c-0.188-0.018-0.376-0.023-0.565-0.028C342.293,0.008,342.234,0,342.173,0H129.266c-4.199,0-7.604,3.404-7.604,7.604v98.247
	l-38.328,38.33c-0.01,0.01-0.018,0.02-0.028,0.031c-0.166,0.167-0.325,0.343-0.476,0.526c-0.072,0.088-0.135,0.18-0.203,0.272
	c-0.081,0.108-0.165,0.214-0.24,0.326c-0.072,0.108-0.135,0.22-0.202,0.331c-0.061,0.102-0.125,0.202-0.18,0.307
	c-0.061,0.113-0.113,0.23-0.167,0.347c-0.052,0.108-0.106,0.216-0.152,0.327c-0.047,0.113-0.084,0.228-0.126,0.344
	c-0.043,0.119-0.088,0.236-0.125,0.359c-0.035,0.116-0.061,0.233-0.09,0.352c-0.03,0.124-0.065,0.244-0.09,0.369
	c-0.027,0.138-0.044,0.276-0.064,0.415c-0.015,0.106-0.035,0.212-0.047,0.32c-0.026,0.265-0.038,0.529-0.036,0.795v81.061
	c0,4.197,3.407,7.604,7.604,7.604c4.187,0,7.604-3.407,7.604-7.604v-73.501h319.368v308.601l-27.575-27.575
	c-0.011-0.011-0.023-0.02-0.034-0.031c-0.167-0.164-0.342-0.322-0.524-0.472c-0.084-0.068-0.171-0.128-0.258-0.193
	c-0.113-0.084-0.223-0.171-0.341-0.249c-0.101-0.068-0.207-0.127-0.311-0.19c-0.109-0.066-0.217-0.135-0.329-0.195
	c-0.103-0.056-0.21-0.101-0.315-0.151c-0.12-0.057-0.237-0.116-0.36-0.167c-0.1-0.042-0.204-0.075-0.306-0.112
	c-0.131-0.048-0.262-0.098-0.396-0.139c-0.098-0.029-0.199-0.052-0.298-0.076c-0.141-0.036-0.28-0.075-0.425-0.103
	c-0.107-0.022-0.217-0.033-0.326-0.051c-0.136-0.02-0.271-0.046-0.41-0.059c-0.186-0.019-0.372-0.023-0.559-0.028
	c-0.062-0.001-0.123-0.009-0.186-0.009H129.266c-0.061,0-0.12,0.008-0.18,0.009c-0.189,0.005-0.377,0.01-0.565,0.028
	c-0.134,0.013-0.264,0.036-0.395,0.058c-0.114,0.017-0.228,0.028-0.341,0.052c-0.14,0.027-0.275,0.065-0.412,0.101
	c-0.103,0.025-0.208,0.049-0.31,0.079c-0.131,0.04-0.259,0.089-0.386,0.136c-0.105,0.037-0.212,0.072-0.316,0.116
	c-0.119,0.049-0.232,0.106-0.349,0.161c-0.11,0.052-0.22,0.1-0.327,0.157c-0.108,0.059-0.212,0.125-0.317,0.189
	c-0.107,0.065-0.216,0.125-0.321,0.195c-0.114,0.076-0.221,0.16-0.329,0.242c-0.089,0.066-0.181,0.129-0.269,0.201
	c-0.181,0.148-0.355,0.306-0.521,0.47c-0.011,0.012-0.024,0.02-0.035,0.032l-27.574,27.572V261.079c0-4.187-3.417-7.604-7.604-7.604
	c-4.197,0-7.604,3.417-7.604,7.604v222.998c0,0.012-0.002,0.023-0.002,0.035c0,0.002,0,0.004,0,0.006l0,0c0,0.004,0,0.008,0,0.012
	C81.114,499.499,93.618,512,108.988,512h294.024c15.37,0,27.874-12.501,27.88-27.869
	C430.892,484.127,430.893,484.123,430.893,484.119z M404.932,141.955h-14.599v-14.599L404.932,141.955z M136.87,109.005
	c0-0.002,0-0.004,0-0.006V15.208h197.699v32.952c0,4.2,3.405,7.604,7.604,7.604h32.952v86.191H136.87V109.005z M349.777,25.962
	l14.594,14.594h-14.594V25.962z M121.662,141.955h-14.595l14.595-14.595C121.662,127.36,121.662,141.955,121.662,141.955z
	 M403.012,496.792H108.988c-6.016,0-11.056-4.218-12.345-9.849l35.773-35.774h247.167l35.773,35.774
	C414.068,492.574,409.028,496.792,403.012,496.792z"/>
<path d="M278.812,205.307c0-12.578-10.233-22.812-22.812-22.812s-22.812,10.234-22.812,22.812c0,8.541,4.721,15.996,11.688,19.905
	c-4.176,10.564-5.794,25.973,5.041,40.42c10.103,13.471,13.419,25.958,9.856,37.112c-2.681,8.394-8.464,13.17-8.474,13.18
	c-3.301,2.597-3.871,7.377-1.274,10.678c1.501,1.907,3.73,2.903,5.981,2.902c1.646,0,3.303-0.531,4.696-1.627
	c0.346-0.272,34.154-27.674,1.382-71.371c-8.852-11.803-4.341-23.691-1.579-28.836C270.933,225.572,278.812,216.344,278.812,205.307
	z M256,197.703c4.193,0,7.604,3.411,7.604,7.604c0,4.193-3.411,7.604-7.604,7.604s-7.604-3.411-7.604-7.604
	C248.396,201.114,251.807,197.703,256,197.703z"/>
<g>
</g>
<g>
</g>
<g>
</g>
<g>
</g>
<g>
</g>
<g>
</g>
<g>
</g>
<g>
</g>
<g>
</g>
<g>
</g>
<g>
</g>
<g>
</g>
<g>
</g>
<g>
</g>
<g>
</g>
</svg>
