<?xml version="1.0" encoding="iso-8859-1"?>
<!-- Generator: Adobe Illustrator 19.0.0, SVG Export Plug-In . SVG Version: 6.00 Build 0)  -->
<svg version="1.1" id="Capa_1" xmlns="http://www.w3.org/2000/svg" xmlns:xlink="http://www.w3.org/1999/xlink" x="0px" y="0px"
	 viewBox="0 0 515.2 515.2" style="enable-background:new 0 0 515.2 515.2;" xml:space="preserve">
<rect x="17.6" y="57.6" style="fill:#4FBF9F;" width="480" height="312"/>
<g>
	<rect x="49.6" y="89.6" style="fill:#FFFFFF;" width="416" height="248"/>
	<rect x="17.6" y="369.6" style="fill:#FFFFFF;" width="480" height="76.8"/>
	<polygon style="fill:#FFFFFF;" points="330.4,507.2 184.8,507.2 205.6,446.4 309.6,446.4 	"/>
</g>
<g>
	<rect x="221.6" y="400" style="fill:#193651;" width="72" height="16"/>
	<rect x="325.6" y="400" style="fill:#193651;" width="16" height="16"/>
	<rect x="173.6" y="400" style="fill:#193651;" width="16" height="16"/>
</g>
<path style="fill:#FFFFFF;" d="M378.4,177.6c2.4-14.4,2.4-28.8-0.8-43.2l27.2-17.6L388,78.4l-31.2,8c-8.8-12-19.2-21.6-31.2-29.6
	l7.2-31.2l-40-16l-16,28c-14.4-2.4-28.8-2.4-43.2,0.8L216,11.2L177.6,28l8,31.2C173.6,68,164,78.4,156,90.4l-31.2-7.2l-15.2,39.2
	l28,16c-2.4,14.4-2.4,28.8,0.8,43.2l-27.2,17.6l16.8,38.4l31.2-8c8.8,12,19.2,21.6,31.2,29.6l-7.2,31.2l39.2,15.2l16-28
	c14.4,2.4,28.8,2.4,43.2-0.8l17.6,27.2l38.4-16.8l-8-31.2c12-8.8,21.6-19.2,29.6-31.2l31.2,7.2l15.2-39.2L378.4,177.6z"/>
<path style="fill:#193651;" d="M335.2,49.6l6.4-29.6l-52-20l-16.8,28.8c-12-1.6-23.2-0.8-35.2,0.8L219.2,0.8L168,23.2l7.2,26.4H9.6
	v404.8h184.8l-16,44.8h-12v16H348v-16h-12l-16-44.8h185.6V49.6H335.2z M213.6,21.6L230.4,48l5.6-0.8c12.8-2.4,27.2-3.2,40-0.8
	l5.6,0.8l16-26.4L324,31.2l-6.4,30.4l4.8,3.2c11.2,7.2,20.8,16.8,28.8,28l3.2,4.8l29.6-8l11.2,26.4l-26.4,16.8l0.8,5.6
	c2.4,13.6,3.2,27.2,0.8,40l-0.8,3.2l26.4,16L385.6,224l-30.4-6.4l-3.2,4.8c-7.2,11.2-16.8,20.8-28,28.8l-4.8,3.2l8,29.6l-26.4,11.2
	L284,268.8l-5.6,0.8c-12.8,2.4-27.2,3.2-40,0.8l-5.6-0.8l-16,26.4l-26.4-10.4l6.4-30.4L192,252c-11.2-7.2-20.8-16.8-28.8-28
	l-3.2-4.8l-29.6,8l-11.2-26.4l26.4-16.8v-3.2c-2.4-13.6-3.2-26.4-0.8-40l0.8-5.6l-26.4-16l10.4-26.4l30.4,6.4l3.2-4.8
	c7.2-11.2,16.8-20.8,28-28.8l4.8-3.2l-8-29.6L213.6,21.6z M176.8,56L176.8,56L176.8,56L176.8,56z M319.2,499.2H196l16-44.8h92
	L319.2,499.2z M489.6,438.4h-464v-60.8h464V438.4z M25.6,361.6v-296h140.8c-4.8,4.8-9.6,10.4-13.6,16L120,74.4l-20,52l28.8,16.8
	c-1.6,12-0.8,23.2,0.8,35.2l-28.8,18.4l22.4,51.2l32.8-8.8c7.2,8.8,16,17.6,25.6,24l-7.2,32.8l52,20l16.8-28.8
	c12,1.6,23.2,0.8,35.2-0.8l18.4,28.8l51.2-22.4l-8.8-32.8c8.8-7.2,17.6-16,24-25.6l32.8,7.2l20-52l-28.8-16.8
	c1.6-12,0.8-23.2-0.8-35.2l28.8-18.4L392.8,68L360,76.8c-3.2-4-7.2-8-10.4-12h140v296h-464C25.6,360.8,25.6,361.6,25.6,361.6z"/>
<circle style="fill:#F16051;" cx="257.6" cy="158.4" r="92.8"/>
<g>
	<polygon style="fill:#FFFFFF;" points="215.664,189.935 184.129,158.4 215.664,126.864 222.736,133.935 198.271,158.4 
		222.736,182.864 	"/>
	<polygon style="fill:#FFFFFF;" points="299.536,189.935 292.465,182.864 316.929,158.4 292.465,133.935 299.536,126.864 
		331.072,158.4 	"/>
	
		<rect x="252.618" y="127.606" transform="matrix(0.9095 0.4157 -0.4157 0.9095 89.1575 -92.758)" style="fill:#FFFFFF;" width="10" height="61.57"/>
</g>
<g>
</g>
<g>
</g>
<g>
</g>
<g>
</g>
<g>
</g>
<g>
</g>
<g>
</g>
<g>
</g>
<g>
</g>
<g>
</g>
<g>
</g>
<g>
</g>
<g>
</g>
<g>
</g>
<g>
</g>
</svg>
