<?xml version="1.0" encoding="iso-8859-1"?>
<!-- Generator: Adobe Illustrator 19.0.0, SVG Export Plug-In . SVG Version: 6.00 Build 0)  -->
<svg version="1.1" id="Capa_1" xmlns="http://www.w3.org/2000/svg" xmlns:xlink="http://www.w3.org/1999/xlink" x="0px" y="0px"
	 viewBox="0 0 512 512" style="enable-background:new 0 0 512 512;" xml:space="preserve">
<g>
	<rect x="8" y="8" style="fill:#FFFFFF;" width="496" height="435.2"/>
	<rect x="40" y="40" style="fill:#FFFFFF;" width="432" height="324.8"/>
	<polygon style="fill:#FFFFFF;" points="322.4,504 189.6,504 203.2,443.2 308.8,443.2 	"/>
</g>
<g>
	<rect x="182.4" y="394.4" style="fill:#193651;" width="16" height="16"/>
	<rect x="313.6" y="394.4" style="fill:#193651;" width="16" height="16"/>
	<circle style="fill:#193651;" cx="256" cy="402.4" r="16"/>
	<path style="fill:#193651;" d="M512,0H0v451.2h192.8l-9.6,44.8H168v16h176v-16h-15.2l-9.6-44.8H512V0z M200,496l9.6-44.8h93.6
		L312,496H200z M496,435.2H16V16h480V435.2z"/>
	<path style="fill:#193651;" d="M480,32H32v340.8h448V32z M464,356.8H48V48h416V356.8z"/>
</g>
<path style="fill:#F16051;" d="M84.8,280.8c-0.8,4.8-0.8,9.6,0,14.4l-8.8,5.6l5.6,12.8l10.4-2.4c3.2,4,6.4,7.2,10.4,9.6l-2.4,10.4
	l12.8,4.8l5.6-9.6c4.8,0.8,9.6,0.8,14.4,0l5.6,8.8l12.8-5.6l-2.4-9.6c4-3.2,7.2-6.4,9.6-10.4l10.4,2.4l4.8-12.8l-9.6-5.6
	c0.8-4.8,0.8-9.6,0-14.4l8.8-5.6l-5.6-12.8l-10.4,2.4c-3.2-4-6.4-7.2-10.4-9.6l2.4-10.4l-12.8-4.8l-5.6,9.6c-4.8-0.8-9.6-0.8-14.4,0
	l-5.6-8.8l-12.8,5.6l2.4,10.4c-4,3.2-7.2,6.4-9.6,10.4L80,263.2L75.2,276L84.8,280.8z"/>
<circle style="fill:#FFFFFF;" cx="125.6" cy="287.2" r="19.2"/>
<path style="fill:#F16051;" d="M216,280.8c-0.8,4.8-0.8,9.6,0,14.4l-8.8,5.6l5.6,12.8l10.4-2.4c3.2,4,6.4,7.2,10.4,9.6l-2.4,10.4
	L244,336l5.6-9.6c4.8,0.8,9.6,0.8,14.4,0l5.6,8.8l12.8-5.6L280,320c4-3.2,7.2-6.4,9.6-10.4L300,312l4.8-12.8l-8.8-5.6
	c0.8-4.8,0.8-9.6,0-14.4l8.8-5.6l-5.6-12.8l-10.4,2.4c-3.2-4-6.4-7.2-10.4-9.6l2.4-10.4l-12.8-4.8l-5.6,9.6c-4.8-0.8-9.6-0.8-14.4,0
	l-5.6-8.8l-12.8,5.6l2.4,10.4c-4,3.2-7.2,6.4-9.6,10.4l-10.4-2.4l-4.8,12.8L216,280.8z"/>
<circle style="fill:#FFFFFF;" cx="256" cy="287.2" r="19.2"/>
<path style="fill:#F16051;" d="M346.4,280.8c-0.8,4.8-0.8,9.6,0,14.4l-8.8,5.6l5.6,12.8l10.4-2.4c3.2,4,6.4,7.2,10.4,9.6l-2.4,10.4
	l12.8,4.8l5.6-9.6c4.8,0.8,9.6,0.8,14.4,0l5.6,8.8l12.8-5.6l-2.4-9.6c4-3.2,7.2-6.4,9.6-10.4l10.4,2.4l4.8-12.8l-9.6-5.6
	c0.8-4.8,0.8-9.6,0-14.4l8.8-5.6l-5.6-12.8l-10.4,2.4c-3.2-4-6.4-7.2-10.4-9.6l2.4-10.4l-12.8-4.8L392,248c-4.8-0.8-9.6-0.8-14.4,0
	l-5.6-8.8l-12,4.8l2.4,10.4c-4,3.2-7.2,6.4-9.6,10.4l-10.4-2.4l-4.8,12.8L346.4,280.8z"/>
<circle style="fill:#FFFFFF;" cx="386.4" cy="287.2" r="19.2"/>
<g>
	<circle style="fill:#2EA2DB;" cx="125.6" cy="100" r="31.2"/>
	<path style="fill:#2EA2DB;" d="M125.6,146.4c-27.2,0-48.8,21.6-48.8,48.8h97.6C174.4,168,152,146.4,125.6,146.4z"/>
	<circle style="fill:#2EA2DB;" cx="256" cy="100" r="31.2"/>
	<path style="fill:#2EA2DB;" d="M256,146.4c-27.2,0-48.8,21.6-48.8,48.8h97.6C304.8,168,283.2,146.4,256,146.4z"/>
	<circle style="fill:#2EA2DB;" cx="386.4" cy="100" r="31.2"/>
	<path style="fill:#2EA2DB;" d="M386.4,146.4c-27.2,0-48.8,21.6-48.8,48.8h97.6C436,168,413.6,146.4,386.4,146.4z"/>
</g>
<g>
</g>
<g>
</g>
<g>
</g>
<g>
</g>
<g>
</g>
<g>
</g>
<g>
</g>
<g>
</g>
<g>
</g>
<g>
</g>
<g>
</g>
<g>
</g>
<g>
</g>
<g>
</g>
<g>
</g>
</svg>
