<?xml version="1.0" encoding="iso-8859-1"?>
<!-- Generator: Adobe Illustrator 19.0.0, SVG Export Plug-In . SVG Version: 6.00 Build 0)  -->
<svg version="1.1" id="Capa_1" xmlns="http://www.w3.org/2000/svg" xmlns:xlink="http://www.w3.org/1999/xlink" x="0px" y="0px"
	 viewBox="0 0 512 512" style="enable-background:new 0 0 512 512;" xml:space="preserve">
<circle style="fill:#FFFFFF;" cx="405.6" cy="405.6" r="98.4"/>
<path style="fill:#193651;" d="M405.6,512c-58.4,0-106.4-48-106.4-106.4s48-106.4,106.4-106.4S512,346.4,512,405.6
	C512,464,464,512,405.6,512z M405.6,315.2c-49.6,0-90.4,40.8-90.4,90.4S356,496,405.6,496s90.4-40.8,90.4-90.4
	C496,355.2,455.2,315.2,405.6,315.2z"/>
<g>
	<circle style="fill:#4FBF9F;" cx="405.6" cy="368.8" r="34.4"/>
	<path style="fill:#4FBF9F;" d="M482.4,467.2c-14.4-27.2-43.2-46.4-76.8-46.4s-62.4,19.2-76.8,46.4c18.4,22.4,45.6,36.8,76.8,36.8
		S464,489.6,482.4,467.2z"/>
</g>
<circle style="fill:#FFFFFF;stroke:#193651;stroke-width:2;stroke-miterlimit:10;" cx="405.6" cy="106.4" r="98.4"/>
<g>
	<circle style="fill:#D3D7DA;" cx="405.6" cy="69.6" r="34.4"/>
	<path style="fill:#D3D7DA;" d="M482.4,168c-14.4-27.2-43.2-46.4-76.8-46.4s-62.4,19.2-76.8,46.4c18.4,22.4,45.6,36.8,76.8,36.8
		S464,190.4,482.4,168z"/>
</g>
<circle style="fill:#FFFFFF;stroke:#193651;stroke-width:2;stroke-miterlimit:10;" cx="106.4" cy="106.4" r="98.4"/>
<g>
	<circle style="fill:#FDBF5E;" cx="106.4" cy="69.6" r="34.4"/>
	<path style="fill:#FDBF5E;" d="M183.2,168c-14.4-27.2-43.2-46.4-76.8-46.4S44,140.8,29.6,168c18.4,22.4,45.6,36.8,76.8,36.8
		S165.6,190.4,183.2,168z"/>
</g>
<circle style="fill:#FFFFFF;stroke:#193651;stroke-width:2;stroke-miterlimit:10;" cx="106.4" cy="405.6" r="98.4"/>
<g>
	<circle style="fill:#F16051;" cx="106.4" cy="368.8" r="34.4"/>
	<path style="fill:#F16051;" d="M183.2,467.2c-14.4-27.2-43.2-46.4-76.8-46.4S44,440,29.6,467.2C48,489.6,75.2,504,106.4,504
		S165.6,489.6,183.2,467.2z"/>
</g>
<g>
	<rect x="248" y="433.6" style="fill:#193651;" width="16" height="16"/>
	<rect x="248" y="62.4" style="fill:#193651;" width="16" height="16"/>
	<rect x="62.4" y="248" style="fill:#193651;" width="16" height="16"/>
	<rect x="433.6" y="248" style="fill:#193651;" width="16" height="16"/>
</g>
<circle style="fill:#FFFFFF;" cx="256" cy="256" r="51.2"/>
<path style="fill:#193651;" d="M405.6,299.2c-26.4,0-50.4,9.6-69.6,25.6l-33.6-33.6c7.2-9.6,12-22.4,12-35.2s-4.8-25.6-12-35.2
	l33.6-33.6c18.4,16,43.2,25.6,69.6,25.6c58.4,0,106.4-48,106.4-106.4S464,0,405.6,0S299.2,48,299.2,106.4c0,26.4,9.6,50.4,25.6,69.6
	l-33.6,33.6c-9.6-7.2-22.4-12-35.2-12c-13.6,0-25.6,4.8-35.2,12L187.2,176c16-18.4,25.6-43.2,25.6-69.6C212.8,48,165.6,0,106.4,0
	C48,0,0,48,0,106.4s48,106.4,106.4,106.4c26.4,0,50.4-9.6,69.6-25.6l33.6,33.6c-7.2,9.6-12,22.4-12,35.2s4.8,25.6,12,35.2L176,324.8
	c-18.4-16-43.2-25.6-69.6-25.6C48,299.2,0,346.4,0,405.6C0,464,48,512,106.4,512s106.4-48,106.4-106.4c0-26.4-9.6-50.4-25.6-69.6
	l33.6-33.6c9.6,7.2,22.4,12,35.2,12s25.6-4.8,35.2-12l33.6,33.6c-16,18.4-25.6,43.2-25.6,69.6c0,58.4,48,106.4,106.4,106.4
	S512,464,512,405.6C512,346.4,464,299.2,405.6,299.2z M405.6,16c49.6,0,90.4,40.8,90.4,90.4s-40.8,90.4-90.4,90.4
	s-90.4-40.8-90.4-90.4S355.2,16,405.6,16z M106.4,196.8c-49.6,0-90.4-40-90.4-90.4C16,56.8,56.8,16,106.4,16s90.4,40.8,90.4,90.4
	C196.8,156.8,156.8,196.8,106.4,196.8z M106.4,496C56.8,496,16,455.2,16,405.6s40.8-90.4,90.4-90.4s90.4,40.8,90.4,90.4
	S156.8,496,106.4,496z M256,299.2c-24,0-43.2-19.2-43.2-43.2s19.2-43.2,43.2-43.2s43.2,19.2,43.2,43.2S280,299.2,256,299.2z
	 M405.6,496c-49.6,0-90.4-40.8-90.4-90.4s40.8-90.4,90.4-90.4S496,356,496,405.6S455.2,496,405.6,496z"/>
<g>
</g>
<g>
</g>
<g>
</g>
<g>
</g>
<g>
</g>
<g>
</g>
<g>
</g>
<g>
</g>
<g>
</g>
<g>
</g>
<g>
</g>
<g>
</g>
<g>
</g>
<g>
</g>
<g>
</g>
</svg>
