<?xml version="1.0" encoding="iso-8859-1"?>
<!-- Generator: Adobe Illustrator 19.0.0, SVG Export Plug-In . SVG Version: 6.00 Build 0)  -->
<svg version="1.1" id="Capa_1" xmlns="http://www.w3.org/2000/svg" xmlns:xlink="http://www.w3.org/1999/xlink" x="0px" y="0px"
	 viewBox="0 0 512 512" style="enable-background:new 0 0 512 512;" xml:space="preserve">
<circle style="fill:#FFFFFF;stroke:#193651;stroke-width:2;stroke-miterlimit:10;" cx="70.4" cy="70.4" r="62.4"/>
<g>
	<circle style="fill:#4FBF9F;" cx="70.4" cy="47.2" r="21.6"/>
	<path style="fill:#4FBF9F;" d="M119.2,109.6C109.6,92,91.2,80,70.4,80c-21.6,0-39.2,12-48.8,29.6c11.2,14.4,28.8,23.2,48.8,23.2
		C90.4,133.6,108,124,119.2,109.6z"/>
</g>
<circle style="fill:#FFFFFF;stroke:#193651;stroke-width:2;stroke-miterlimit:10;" cx="70.4" cy="441.6" r="62.4"/>
<g>
	<circle style="fill:#D3D7DA;" cx="70.4" cy="418.4" r="21.6"/>
	<path style="fill:#D3D7DA;" d="M119.2,480.8c-9.6-17.6-28-29.6-48.8-29.6c-21.6,0-39.2,12-48.8,29.6c12,14.4,29.6,23.2,48.8,23.2
		C90.4,504,108,495.2,119.2,480.8z"/>
</g>
<circle style="fill:#FFFFFF;stroke:#193651;stroke-width:2;stroke-miterlimit:10;" cx="441.6" cy="70.4" r="62.4"/>
<g>
	<circle style="fill:#FDBF5E;" cx="441.6" cy="47.2" r="21.6"/>
	<path style="fill:#FDBF5E;" d="M490.4,109.6C480.8,92,462.4,80,441.6,80c-21.6,0-39.2,12-48.8,29.6c11.2,14.4,28.8,23.2,48.8,23.2
		C460.8,133.6,478.4,124,490.4,109.6z"/>
</g>
<circle style="fill:#FFFFFF;" cx="441.6" cy="441.6" r="62.4"/>
<path style="fill:#193651;" d="M441.6,512c-39.2,0-70.4-32-70.4-70.4c0-39.2,32-70.4,70.4-70.4c39.2,0,70.4,32,70.4,70.4
	S480,512,441.6,512z M441.6,386.4c-30.4,0-54.4,24.8-54.4,54.4c0,30.4,24.8,54.4,54.4,54.4c30.4,0,54.4-24.8,54.4-54.4
	C496,411.2,471.2,386.4,441.6,386.4z"/>
<g>
	<circle style="fill:#F16051;" cx="441.6" cy="418.4" r="21.6"/>
	<path style="fill:#F16051;" d="M490.4,480.8c-9.6-17.6-28-29.6-48.8-29.6c-21.6,0-39.2,12-48.8,29.6c11.2,14.4,28.8,23.2,48.8,23.2
		C460.8,504,478.4,495.2,490.4,480.8z"/>
</g>
<g>
	<rect x="326.4" y="433.6" style="fill:#193651;" width="16" height="16"/>
	<rect x="169.6" y="62.4" style="fill:#193651;" width="16" height="16"/>
	<rect x="62.4" y="326.4" style="fill:#193651;" width="16" height="16"/>
	<rect x="433.6" y="169.6" style="fill:#193651;" width="16" height="16"/>
</g>
<path style="fill:#FFFFFF;stroke:#193651;stroke-width:2;stroke-miterlimit:10;" d="M256,386.4L256,386.4
	c-72,0-130.4-58.4-130.4-130.4l0,0c0-72,58.4-130.4,130.4-130.4l0,0c72,0,130.4,58.4,130.4,130.4l0,0C386.4,328,328,386.4,256,386.4
	z"/>
<g>
	<path style="fill:#2EA2DB;" d="M308.8,366.4c22.4-10.4,40.8-28,52.8-48.8h-30.4C325.6,336.8,318.4,353.6,308.8,366.4z"/>
	<path style="fill:#2EA2DB;" d="M361.6,194.4c-12-20.8-31.2-38.4-52.8-48.8c9.6,12.8,16.8,29.6,22.4,48.8H361.6z"/>
	<path style="fill:#2EA2DB;" d="M150.4,317.6c12,20.8,31.2,38.4,52.8,48.8c-9.6-12.8-16.8-29.6-22.4-48.8H150.4z"/>
	<path style="fill:#2EA2DB;" d="M339.2,256c0,15.2-1.6,28.8-4,42.4h35.2c4.8-13.6,8-27.2,8-42.4c0-15.2-2.4-28.8-8-42.4H336
		C338.4,227.2,339.2,240.8,339.2,256z"/>
	<path style="fill:#2EA2DB;" d="M203.2,145.6c-22.4,10.4-40.8,28-52.8,48.8h30.4C186.4,175.2,193.6,158.4,203.2,145.6z"/>
	<path style="fill:#2EA2DB;" d="M172.8,256c0-15.2,1.6-28.8,4-42.4h-35.2c-4.8,13.6-8,27.2-8,42.4c0,15.2,2.4,28.8,8,42.4H176
		C173.6,284.8,172.8,271.2,172.8,256z"/>
	<path style="fill:#2EA2DB;" d="M246.4,135.2c-19.2,5.6-35.2,28-44.8,59.2h44.8V135.2z"/>
	<path style="fill:#2EA2DB;" d="M310.4,194.4c-9.6-31.2-26.4-53.6-44.8-59.2v59.2H310.4z"/>
	<path style="fill:#2EA2DB;" d="M196,213.6c-2.4,13.6-4,27.2-4,42.4c0,15.2,1.6,28.8,4,42.4h49.6v-84.8L196,213.6L196,213.6z"/>
	<path style="fill:#2EA2DB;" d="M201.6,317.6c9.6,31.2,26.4,53.6,44.8,59.2v-59.2H201.6z"/>
	<path style="fill:#2EA2DB;" d="M316,298.4c2.4-13.6,4-27.2,4-42.4c0-15.2-1.6-28.8-4-42.4h-49.6v84.8L316,298.4L316,298.4z"/>
	<path style="fill:#2EA2DB;" d="M265.6,376.8c19.2-5.6,35.2-28,44.8-59.2h-44.8V376.8z"/>
</g>
<g>
	<path style="fill:#193651;" d="M70.4,141.6c39.2,0,70.4-32,70.4-70.4c0-39.2-32-70.4-70.4-70.4C32,0,0,32,0,70.4
		C0,109.6,32,141.6,70.4,141.6z M70.4,16c30.4,0,54.4,24.8,54.4,54.4c0,30.4-24.8,54.4-54.4,54.4c-29.6,0.8-54.4-24-54.4-54.4
		C16,40.8,40.8,16,70.4,16z"/>
	<path style="fill:#193651;" d="M70.4,370.4c-39.2,0-70.4,32-70.4,70.4C0,480,32,512,70.4,512c39.2,0,70.4-32,70.4-70.4
		C141.6,402.4,109.6,370.4,70.4,370.4z M70.4,496C40.8,496,16,471.2,16,441.6c0-30.4,24.8-54.4,54.4-54.4
		c30.4,0,54.4,24.8,54.4,54.4C125.6,471.2,100.8,496,70.4,496z"/>
	<path style="fill:#193651;" d="M441.6,141.6c39.2,0,70.4-32,70.4-70.4C512,32,480,0,441.6,0c-39.2,0-70.4,32-70.4,70.4
		C370.4,109.6,402.4,141.6,441.6,141.6z M441.6,16c29.6,0,54.4,24.8,54.4,54.4c0,30.4-24.8,54.4-54.4,54.4
		c-30.4,0-54.4-24.8-54.4-54.4C386.4,40.8,411.2,16,441.6,16z"/>
	<path style="fill:#193651;" d="M441.6,370.4c-39.2,0-70.4,32-70.4,70.4c0,39.2,32,70.4,70.4,70.4c39.2,0,70.4-32,70.4-70.4
		S480,370.4,441.6,370.4z M441.6,496c-30.4,0-54.4-24.8-54.4-54.4c0-30.4,24.8-54.4,54.4-54.4c30.4,0,54.4,24.8,54.4,54.4
		S471.2,496,441.6,496z"/>
	<path style="fill:#193651;" d="M393.6,263.2h40c17.6,0,32,14.4,32,32v17.6l-14.4-14.4L440,309.6l33.6,33.6l33.6-33.6L496,298.4
		l-14.4,14.4v-17.6c0-26.4-21.6-48-48-48h-40c-4.8-69.6-60-124.8-129.6-128.8V79.2c0-17.6,14.4-32,32-32h17.6l-14.4,14.4l11.2,11.2
		L344,39.2L310.4,5.6l-11.2,11.2l14.4,14.4H296c-26.4,0-48,21.6-48,48v39.2c-70.4,4-126.4,60-129.6,130.4H80c-17.6,0-32-14.4-32-32
		v-17.6l14.4,14.4l11.2-11.2L40,168.8L6.4,202.4l11.2,11.2L32,199.2v17.6c0,26.4,21.6,48,48,48h38.4
		c4.8,69.6,60.8,125.6,131.2,128.8v39.2c0,17.6-14.4,32-32,32H200l14.4-14.4l-11.2-11.2l-33.6,33.6l33.6,33.6l11.2-11.2L200,480.8
		h17.6c26.4,0,48-21.6,48-48v-39.2C335.2,388.8,390.4,332.8,393.6,263.2z M256,378.4c-67.2,0-122.4-54.4-122.4-122.4
		c0-67.2,54.4-122.4,122.4-122.4c67.2,0,122.4,54.4,122.4,122.4C378.4,323.2,323.2,378.4,256,378.4z"/>
</g>
<g>
</g>
<g>
</g>
<g>
</g>
<g>
</g>
<g>
</g>
<g>
</g>
<g>
</g>
<g>
</g>
<g>
</g>
<g>
</g>
<g>
</g>
<g>
</g>
<g>
</g>
<g>
</g>
<g>
</g>
</svg>
