<?xml version="1.0" encoding="iso-8859-1"?>
<!-- Generator: Adobe Illustrator 19.0.0, SVG Export Plug-In . SVG Version: 6.00 Build 0)  -->
<svg version="1.1" id="Capa_1" xmlns="http://www.w3.org/2000/svg" xmlns:xlink="http://www.w3.org/1999/xlink" x="0px" y="0px"
	 viewBox="0 0 512 512" style="enable-background:new 0 0 512 512;" xml:space="preserve">
<path style="fill:#FFFFFF;" d="M488,504H24c-8.8,0-16-7.2-16-16V380.8c0-8.8,7.2-16,16-16h464c8.8,0,16,7.2,16,16V488
	C504,496.8,496.8,504,488,504z"/>
<rect x="40" y="396.8" style="fill:#4FBF9F;" width="432" height="75.2"/>
<g>
	<path style="fill:#FFFFFF;" d="M355.2,107.2C355.2,52,310.4,8,256,8s-99.2,44-99.2,99.2v40h32v-40c0-36.8,30.4-67.2,67.2-67.2
		s67.2,30.4,67.2,67.2v40h32V107.2z"/>
	<rect x="136.8" y="147.2" style="fill:#FFFFFF;" width="238.4" height="185.6"/>
</g>
<g>
	<path style="fill:#193651;" d="M488,356.8H24c-13.6,0-24,10.4-24,24V488c0,13.6,10.4,24,24,24h464c13.6,0,24-10.4,24-24V380.8
		C512,368,501.6,356.8,488,356.8z M496,488c0,4.8-3.2,8-8,8H24c-4.8,0-8-3.2-8-8V380.8c0-4.8,3.2-8,8-8h464c4.8,0,8,3.2,8,8V488z"/>
	<path style="fill:#193651;" d="M383.2,139.2h-20v-32C363.2,48,315.2,0,256,0S148.8,48,148.8,107.2v32h-20v201.6h254.4V139.2z
		 M164.8,107.2c0-50.4,40.8-91.2,91.2-91.2s91.2,40.8,91.2,91.2v32h-16v-32c0-41.6-33.6-75.2-75.2-75.2s-75.2,33.6-75.2,75.2v32h-16
		V107.2z M315.2,107.2v32H196.8v-32c0-32.8,26.4-59.2,59.2-59.2S315.2,74.4,315.2,107.2z M367.2,324.8H144.8V155.2h222.4V324.8z"/>
</g>
<rect x="168.8" y="179.2" style="fill:#F16051;" width="174.4" height="121.6"/>
<g>
	<rect x="72" y="426.4" style="fill:#193651;" width="16" height="16"/>
	<rect x="117.6" y="426.4" style="fill:#193651;" width="16" height="16"/>
	<rect x="163.2" y="426.4" style="fill:#193651;" width="16" height="16"/>
	<rect x="208.8" y="426.4" style="fill:#193651;" width="16" height="16"/>
	<rect x="254.4" y="426.4" style="fill:#193651;" width="16" height="16"/>
</g>
<g>
	<circle style="fill:#FFFFFF;" cx="256" cy="228.8" r="19.2"/>
	<rect x="248" y="235.2" style="fill:#FFFFFF;" width="16" height="35.2"/>
</g>
<g>
</g>
<g>
</g>
<g>
</g>
<g>
</g>
<g>
</g>
<g>
</g>
<g>
</g>
<g>
</g>
<g>
</g>
<g>
</g>
<g>
</g>
<g>
</g>
<g>
</g>
<g>
</g>
<g>
</g>
</svg>
