<?xml version="1.0" encoding="iso-8859-1"?>
<!-- Generator: Adobe Illustrator 19.0.0, SVG Export Plug-In . SVG Version: 6.00 Build 0)  -->
<svg version="1.1" id="Capa_1" xmlns="http://www.w3.org/2000/svg" xmlns:xlink="http://www.w3.org/1999/xlink" x="0px" y="0px"
	 viewBox="0 0 512.001 512.001" style="enable-background:new 0 0 512.001 512.001;" xml:space="preserve">
<polygon style="fill:#D1D1D1;" points="106.846,58.999 129.212,39.681 146.993,60.061 124.627,79.38 "/>
<path style="fill:#6B7F9E;" d="M295.129,264.045l-26.603,23.207l-26.814,23.394L28.467,66.234
	c-12.561-14.402-11.405-36.055,2.351-49.039c0.348-0.348,0.696-0.671,1.057-0.982c6.716-5.858,15.024-8.731,23.295-8.731
	c9.887,0,19.713,4.104,26.715,12.138L295.129,264.045z"/>
<path style="fill:#586C89;" d="M268.526,287.253l-26.814,23.394L28.467,66.234c-12.561-14.402-11.405-36.055,2.351-49.039
	L268.526,287.253z"/>
<rect x="241.821" y="284.025" transform="matrix(-0.7535 0.6574 -0.6574 -0.7535 681.7728 339.3896)" style="fill:#EAEAEA;" width="70.889" height="26.946"/>
<polygon style="fill:#6B7F9E;" points="425.618,413.613 404.513,432.032 389.539,445.091 259.423,330.956 282.704,310.647 
	312.852,284.355 "/>
<polygon style="fill:#586C89;" points="404.549,431.982 404.513,432.032 389.539,445.091 259.423,330.956 282.704,310.647 "/>
<path style="fill:#FFE571;" d="M389.533,445.088l41.006,35.452c5.187,4.901,12.627,6.595,19.424,4.423l0,0
	c5.313-1.697,11.098-1.05,15.905,1.779l17.673,10.402c2.145,1.263,4.858,1.01,6.733-0.626l0,0c2.406-2.099,2.655-5.751,0.556-8.157
	l-65.216-74.752L389.533,445.088z"/>
<polygon style="fill:#EAEAEA;" points="122.48,36.188 145.503,16.101 290.495,182.293 274.031,196.656 "/>
<path d="M496.482,483.431l-65.216-74.751l-68.533-78.554c-2.722-3.122-7.459-3.444-10.582-0.721
	c-3.121,2.723-3.444,7.461-0.721,10.582l63.602,72.902l-25.485,22.234L270.819,330.974l41.308-36.038l20.956,24.021
	c2.723,3.122,7.459,3.444,10.582,0.721c3.121-2.723,3.444-7.461,0.721-10.582l-25.887-29.672l-17.715-20.306L140.592,75.504
	l4.792-4.141l123.193,130.442c1.473,1.56,3.46,2.351,5.455,2.351c1.752,0,3.51-0.61,4.929-1.849l16.464-14.363
	c1.499-1.308,2.417-3.157,2.552-5.142c0.136-1.984-0.523-3.941-1.831-5.44L151.154,11.17c-1.308-1.499-3.157-2.417-5.142-2.552
	c-1.98-0.133-3.941,0.523-5.44,1.831l-23.024,20.087c-1.538,1.341-2.462,3.251-2.561,5.289c-0.086,1.773,0.461,3.508,1.527,4.907
	l-3.568,3.083L87.54,14.693C71.972-3.15,44.79-5.002,26.946,10.565C9.103,26.134,7.251,53.315,22.818,71.159l91.292,104.642
	c2.723,3.122,7.461,3.444,10.582,0.721s3.444-7.461,0.721-10.582L34.12,61.298c-10.129-11.611-8.924-29.299,2.687-39.43
	c11.612-10.129,29.3-8.926,39.43,2.687l208.312,238.772l-42.116,36.743l-98.827-113.277c-2.723-3.122-7.461-3.444-10.582-0.721
	s-3.444,7.461-0.721,10.582l103.757,118.929l17.715,20.306c0.023,0.026,0.048,0.048,0.071,0.074
	c0.071,0.079,0.147,0.153,0.221,0.229c0.108,0.111,0.217,0.22,0.331,0.323c0.028,0.026,0.053,0.055,0.082,0.08l130.105,114.13
	c0.007,0.006,0.014,0.011,0.021,0.016c0.007,0.006,0.013,0.013,0.021,0.02l40.891,35.354c7.164,6.681,17.389,8.978,26.727,5.993
	c3.254-1.041,6.809-0.648,9.763,1.07c-71.524,6.772-141.363,3.204-214.863-0.557l-11.721-0.599
	c-6.929-0.352-10.436-2.193-10.625-3.327c-0.077-0.458,0.102-2.309,5.606-6.846l24.395-20.11
	c14.321-11.806,12.621-21.625,10.332-26.429c-1.822-3.822-4.881-6.27-7.633-8.161c-12.403-8.519-26.642-12.534-36.273-14.813
	c-4.036-0.959-8.072,1.539-9.026,5.57c-0.954,4.03,1.54,8.071,5.571,9.025c13.63,3.227,23.264,7.107,31.235,12.582
	c1.858,1.276,2.432,1.929,2.585,2.251c0.341,0.716-0.78,3.824-6.332,8.4l-24.395,20.11c-3.449,2.843-12.609,10.395-10.861,20.887
	c0.916,5.495,5.338,14.861,24.661,15.841l11.714,0.598c43.637,2.234,85.978,4.401,128.251,4.401
	c37.613,0,75.175-1.718,113.502-6.632c2.573-0.329,5.125-1.501,7.072-3.199C500.723,497.357,501.296,488.951,496.482,483.431z
	 M260.148,320.376l-7.854-9.003l21.058-18.372l21.058-18.372l7.853,9.003l-21.058,18.372L260.148,320.376z M144.783,26.683
	l135.13,154.89l-5.38,4.692L133.288,36.71L144.783,26.683z M126.792,51.676l8.284,8.771l-4.344,3.754l-7.924-9.083L126.792,51.676z
	 M455.92,476.537c-2.77,0-5.551,0.424-8.24,1.282c-4.196,1.342-8.789,0.294-11.99-2.729c-0.08-0.076-0.162-0.15-0.245-0.223
	l-34.474-29.805l6.071-5.296l17.852-15.574l13.13,15.05l-2.522,2.522c-2.929,2.93-2.929,7.678,0,10.607
	c1.465,1.464,3.385,2.196,5.304,2.196s3.839-0.732,5.304-2.196l1.8-1.8l30.302,34.732l-8.536-5.024
	C465.467,477.804,460.709,476.537,455.92,476.537z"/>
<path d="M224.178,239.27c1.749,0,3.506-0.608,4.928-1.849c3.121-2.723,3.444-7.461,0.721-10.582L79.76,54.828
	c-2.723-3.122-7.461-3.444-10.582-0.721s-3.444,7.461-0.721,10.582L218.523,236.7C220.007,238.4,222.087,239.27,224.178,239.27z"/>
<path d="M189.539,406.218c-45.892-7.907-92.738-12.986-139.238-15.097c-4.145-0.175-7.645,3.014-7.832,7.152
	c-0.188,4.138,3.014,7.645,7.152,7.832c45.876,2.082,92.094,7.093,137.371,14.894c0.431,0.075,0.859,0.11,1.282,0.11
	c3.583,0,6.753-2.576,7.382-6.228C196.36,410.8,193.621,406.921,189.539,406.218z"/>
<path d="M470.411,391.696h6.687c4.143,0,7.5-3.357,7.5-7.5s-3.357-7.5-7.5-7.5h-6.687c-4.143,0-7.5,3.357-7.5,7.5
	S466.27,391.696,470.411,391.696z"/>
<path d="M470.411,365.693h6.687c4.143,0,7.5-3.357,7.5-7.5s-3.357-7.5-7.5-7.5h-6.687c-4.143,0-7.5,3.357-7.5,7.5
	S466.27,365.693,470.411,365.693z"/>
<path d="M470.411,339.689h6.687c4.143,0,7.5-3.357,7.5-7.5s-3.357-7.5-7.5-7.5h-6.687c-4.143,0-7.5,3.357-7.5,7.5
	S466.27,339.689,470.411,339.689z"/>
<g>
</g>
<g>
</g>
<g>
</g>
<g>
</g>
<g>
</g>
<g>
</g>
<g>
</g>
<g>
</g>
<g>
</g>
<g>
</g>
<g>
</g>
<g>
</g>
<g>
</g>
<g>
</g>
<g>
</g>
</svg>
