<?xml version="1.0" encoding="iso-8859-1"?>
<!-- Generator: Adobe Illustrator 19.0.0, SVG Export Plug-In . SVG Version: 6.00 Build 0)  -->
<svg version="1.1" id="Capa_1" xmlns="http://www.w3.org/2000/svg" xmlns:xlink="http://www.w3.org/1999/xlink" x="0px" y="0px"
	 viewBox="0 0 520 520" style="enable-background:new 0 0 520 520;" xml:space="preserve">
<rect x="276.521" y="98.587" transform="matrix(0.7071 -0.7071 0.7071 0.7071 -131.3465 319.271)" style="fill:#FFFFFF;" width="86.399" height="439.196"/>
<polygon style="fill:#FDBF5E;" points="283.2,44.8 79.2,248.8 11.2,180.8 172,20 "/>
<polygon style="fill:#193651;" points="79.2,203.2 56.8,180.8 182.4,55.2 219.2,63.2 "/>
<g>
	<path style="fill:#FFFFFF;" d="M382.4,192.8c28-12,65.6-16,65.6-16l58.4-159.2l-160.8,56c0,0-4,37.6-16.8,65.6L382.4,192.8z"/>
	
		<rect x="285.59" y="159.256" transform="matrix(0.7015 0.7126 -0.7126 0.7015 230.927 -188.0696)" style="fill:#FFFFFF;" width="108.795" height="44.796"/>
	<path style="fill:#FFFFFF;" d="M31.2,484.8L31.2,484.8c-28-28.8-28-74.4,0.8-103.2l240.8-236.8l101.6,104l-240,236.8
		C105.6,514.4,60,513.6,31.2,484.8z"/>
</g>
<path style="fill:#193651;" d="M386.4,248.8L373.6,236l32-31.2l-8.8-8.8c24.8-8,52-11.2,52.8-11.2l4.8-0.8L520,4L338.4,67.2
	l-0.8,4.8c0,0-3.2,28-12,52l-8-8l-32,31.2l-12.8-12.8l-32.8,32l-33.6-33.6L299.2,40L169.6,11.2L0,180.8L79.2,260l55.2-55.2
	l33.6,33.6L26.4,376.8c-32,31.2-32,82.4-0.8,114.4c15.2,15.2,36,24,57.6,24s41.6-8,56.8-23.2l141.6-139.2L444.8,516l72-72
	L354.4,280.8L386.4,248.8z M353.6,79.2L476,36.8L412,100c-1.6-0.8-3.2-0.8-4.8-0.8c-9.6,0-16.8,7.2-16.8,16s8,17.6,17.6,17.6
	s16.8-7.2,16.8-16c0-1.6-0.8-3.2-0.8-4.8l64-63.2l-44.8,121.6c-10.4,1.6-36,4.8-58.4,13.6L340,138.4C348,115.2,352,90.4,353.6,79.2z
	 M317.6,138.4l64.8,65.6l-20,20l-64.8-65.6L317.6,138.4z M79.2,237.6l-56-56l152-152l92,20.8L79.2,237.6z M145.6,193.6l49.6-49.6
	l33.6,33.6l-50.4,49.6L145.6,193.6z M128.8,480c-12,12-28,18.4-45.6,18.4s-33.6-7.2-46.4-19.2c-24.8-24.8-24-66.4,0.8-91.2
	l235.2-231.2l1.6,1.6l0,0l89.6,90.4L128.8,480z M494.4,443.2l-49.6,49.6l-19.2-19.2l24.8-24.8l-11.2-11.2l-24.8,24.8l-39.2-39.2
	l19.2-19.2l-11.2-11.2L364,412l-39.2-39.2l24.8-24.8l-11.2-11.2l-24.8,24.8l-20.8-20.8l50.4-49.6L494.4,443.2z"/>
<path style="fill:#4FBF9F;" d="M291.2,177.6L20,444.8c3.2,12,8,24.8,17.6,34.4s21.6,15.2,33.6,18.4l272-267.2L291.2,177.6z"/>
<g>
	
		<rect x="135.965" y="363.122" transform="matrix(-0.7071 -0.7071 0.7071 -0.7071 -16.659 735.3438)" style="fill:#193651;" width="16" height="16"/>
	
		<rect x="169.339" y="329.587" transform="matrix(-0.7072 -0.707 0.707 -0.7072 64.0775 701.7105)" style="fill:#193651;" width="16" height="16"/>
	
		<rect x="202.37" y="295.861" transform="matrix(0.7071 0.7071 -0.7071 0.7071 276.478 -59.755)" style="fill:#193651;" width="16" height="16"/>
</g>
<g>
</g>
<g>
</g>
<g>
</g>
<g>
</g>
<g>
</g>
<g>
</g>
<g>
</g>
<g>
</g>
<g>
</g>
<g>
</g>
<g>
</g>
<g>
</g>
<g>
</g>
<g>
</g>
<g>
</g>
</svg>
