<?xml version="1.0" encoding="iso-8859-1"?>
<!-- Generator: Adobe Illustrator 19.0.0, SVG Export Plug-In . SVG Version: 6.00 Build 0)  -->
<svg version="1.1" id="Capa_1" xmlns="http://www.w3.org/2000/svg" xmlns:xlink="http://www.w3.org/1999/xlink" x="0px" y="0px"
	 viewBox="0 0 512 512" style="enable-background:new 0 0 512 512;" xml:space="preserve">
<rect x="8" y="8" style="fill:#FFFFFF;" width="496" height="210.4"/>
<rect x="40" y="40" style="fill:#D3D7DA;" width="432" height="146.4"/>
<g>
	<rect x="321.6" y="104.8" style="fill:#193651;" width="16" height="16"/>
	<rect x="368.8" y="104.8" style="fill:#193651;" width="16" height="16"/>
	<rect x="416" y="104.8" style="fill:#193651;" width="16" height="16"/>
</g>
<path style="fill:#FFFFFF;" d="M169.6,181.6H58.4C30.4,181.6,8,204,8,232v134.4h38.4V504h135.2V365.6H220V232
	C220,204,197.6,181.6,169.6,181.6z"/>
<path style="fill:#4FBF9F;" d="M78.4,472V333.6H40V232c0-10.4,8-18.4,18.4-18.4h111.2c10.4,0,18.4,8,18.4,18.4v102.4h-38.4V472H78.4
	z"/>
<circle style="fill:#FFFFFF;" cx="113.6" cy="114.4" r="40.8"/>
<path style="fill:#193651;" d="M113.6,163.2c-27.2,0-48.8-21.6-48.8-48.8s21.6-48.8,48.8-48.8s48.8,21.6,48.8,48.8
	S140.8,163.2,113.6,163.2z M113.6,80.8c-18.4,0-32.8,14.4-32.8,32.8s14.4,32.8,32.8,32.8s32.8-14.4,32.8-32.8S132,80.8,113.6,80.8z"
	/>
<path style="fill:#FFFFFF;" d="M440,391.2c-17.6,0-31.2-14.4-31.2-31.2c0-17.6,14.4-31.2,31.2-31.2c17.6,0,31.2,14.4,31.2,31.2
	C472,376.8,457.6,391.2,440,391.2z"/>
<path style="fill:#FDBF5E;" d="M504,504H376.8v-23.2c0-35.2,28.8-64,64-64l0,0c35.2,0,64,28.8,64,64V504H504z"/>
<path style="fill:#FFFFFF;" d="M312.8,391.2c-17.6,0-31.2-14.4-31.2-31.2c0-17.6,14.4-31.2,31.2-31.2c17.6,0,31.2,14.4,31.2,31.2
	C344,376.8,330.4,391.2,312.8,391.2z"/>
<path style="fill:#FDBF5E;" d="M376.8,504H249.6v-23.2c0-35.2,28.8-64,64-64l0,0c35.2,0,64,28.8,64,64V504H376.8z"/>
<g>
	<path style="fill:#193651;" d="M0,0v226.4l0,0c0,1.6,0,4,0,5.6v142.4h38.4V512h151.2V373.6H228V232c0-1.6,0-4,0-5.6h284V0H0z
		 M212,357.6h-38.4V496h-51.2V371.2h-16V496h-52V357.6H16V232c0-23.2,19.2-42.4,42.4-42.4h111.2c23.2,0,42.4,19.2,42.4,42.4V357.6z
		 M496,210.4H223.2c-8.8-21.6-29.6-36.8-53.6-36.8H58.4c-16.8,0-31.2,7.2-42.4,18.4V16h480V210.4z"/>
	<path style="fill:#193651;" d="M480,359.2c0-21.6-17.6-39.2-39.2-39.2s-39.2,17.6-39.2,39.2s17.6,39.2,39.2,39.2
		C462.4,399.2,480,380.8,480,359.2z M416.8,359.2c0-12.8,10.4-23.2,23.2-23.2c12.8,0,23.2,10.4,23.2,23.2
		c0,12.8-10.4,23.2-23.2,23.2C427.2,383.2,416.8,372,416.8,359.2z"/>
	<path style="fill:#193651;" d="M440,409.6c-28,0-52,16-64,39.2c-12-23.2-36-39.2-64-39.2c-39.2,0-72,32-72,72V512h272v-31.2
		C512,441.6,480,409.6,440,409.6z M368.8,496H257.6v-15.2c0-30.4,24.8-56,56-56c30.4,0,56,24.8,56,56V496H368.8z M496,496H384.8
		v-15.2c0-30.4,24.8-56,56-56s56,24.8,56,56V496H496z"/>
	<path style="fill:#193651;" d="M352,359.2c0-21.6-17.6-39.2-39.2-39.2s-39.2,17.6-39.2,39.2s17.6,39.2,39.2,39.2
		C334.4,399.2,352,380.8,352,359.2z M289.6,359.2c0-12.8,10.4-23.2,23.2-23.2c12.8,0,23.2,10.4,23.2,23.2
		c0,12.8-10.4,23.2-23.2,23.2C300,383.2,289.6,372,289.6,359.2z"/>
</g>
<g>
</g>
<g>
</g>
<g>
</g>
<g>
</g>
<g>
</g>
<g>
</g>
<g>
</g>
<g>
</g>
<g>
</g>
<g>
</g>
<g>
</g>
<g>
</g>
<g>
</g>
<g>
</g>
<g>
</g>
</svg>
