<?xml version="1.0" encoding="iso-8859-1"?>
<!-- Generator: Adobe Illustrator 19.0.0, SVG Export Plug-In . SVG Version: 6.00 Build 0)  -->
<svg version="1.1" id="Capa_1" xmlns="http://www.w3.org/2000/svg" xmlns:xlink="http://www.w3.org/1999/xlink" x="0px" y="0px"
	 viewBox="0 0 512.8 512.8" style="enable-background:new 0 0 512.8 512.8;" xml:space="preserve">
<g>
	<polygon style="fill:#FFFFFF;" points="224.8,363.2 146.4,363.2 154.4,320.8 216.8,320.8 	"/>
	<rect x="8" y="8" style="fill:#FFFFFF;" width="355.2" height="312.8"/>
</g>
<rect x="40" y="40" style="fill:#E1E6E9;" width="291.2" height="227.2"/>
<circle style="fill:#193651;" cx="185.6" cy="291.2" r="11.2"/>
<g>
	<path style="fill:#FFFFFF;" d="M460,504H262.4c-24,0-44-19.2-44-44l0,0H504l0,0C504,484.8,484.8,504,460,504z"/>
</g>
<rect x="40" y="42.4" style="fill:#FDBF5E;" width="291.2" height="227.2"/>
<g>
	<polygon style="fill:#193651;" points="249.6,235.2 238.4,223.2 266.4,196.8 240,169.6 251.2,158.4 288.8,197.6 	"/>
	<path style="fill:#193651;" d="M235.2,204.8l-16-0.8l0.8-16l16,0.8L235.2,204.8z M203.2,204l-16-0.8l0.8-16l16,0.8L203.2,204z
		 M171.2,203.2l-16-0.8l0.8-16l16,0.8L171.2,203.2z"/>
	<polygon style="fill:#193651;" points="120,152.8 83.2,113.6 121.6,76 132.8,88 105.6,114.4 132,141.6 	"/>
	<path style="fill:#193651;" d="M216,124.8l-16-0.8l0.8-16l16,0.8L216,124.8z M184,124l-16-0.8l0.8-16l16,0.8L184,124z M152,123.2
		l-16-0.8l0.8-16l16,0.8L152,123.2z"/>
</g>
<rect x="234.4" y="268.8" style="fill:#FFFFFF;" width="254.4" height="191.2"/>
<path style="fill:#193651;" d="M496.8,452V260.8H371.2V0H0v328.8h144.8L140,356h-12.8v16h99.2v80.8h-15.2v8c0,28.8,23.2,52,52,52
	h197.6c28.8,0,52-23.2,52-52v-8h-16V452z M16,312.8V16h339.2v244.8H226.4V312H16V312.8z M156,355.2l4.8-27.2h49.6l4.8,27.2H156z
	 M242.4,276.8h238.4V452H242.4V276.8z M460,496H262.4c-16.8,0-31.2-12-35.2-28h267.2C491.2,484,477.6,496,460,496z"/>
<rect x="266.4" y="300.8" style="fill:#2EA2DB;" width="190.4" height="127.2"/>
<g>
</g>
<g>
</g>
<g>
</g>
<g>
</g>
<g>
</g>
<g>
</g>
<g>
</g>
<g>
</g>
<g>
</g>
<g>
</g>
<g>
</g>
<g>
</g>
<g>
</g>
<g>
</g>
<g>
</g>
</svg>
