<?xml version="1.0" encoding="iso-8859-1"?>
<!-- Generator: Adobe Illustrator 19.0.0, SVG Export Plug-In . SVG Version: 6.00 Build 0)  -->
<svg version="1.1" id="Capa_1" xmlns="http://www.w3.org/2000/svg" xmlns:xlink="http://www.w3.org/1999/xlink" x="0px" y="0px"
	 viewBox="0 0 513.6 513.6" style="enable-background:new 0 0 513.6 513.6;" xml:space="preserve">
<path style="fill:#F16051;" d="M136.8,236H8.8V133.6c0-12.8,10.4-24,24-24h80.8c12.8,0,24,10.4,24,24V236H136.8L136.8,236z"/>
<g>
	<rect x="45.6" y="236" style="fill:#FFFFFF;" width="54.4" height="91.2"/>
	<path style="fill:#FFFFFF;" d="M72.8,8.8L72.8,8.8C52,8.8,35.2,25.6,35.2,46.4l0,0C35.2,67.2,52,84,72.8,84l0,0
		c20.8,0,37.6-16.8,37.6-37.6l0,0C110.4,25.6,93.6,8.8,72.8,8.8z"/>
</g>
<path style="fill:#4FBF9F;" d="M504.8,268h-128V165.6c0-12.8,10.4-24,24-24h80c12.8,0,24,10.4,24,24V268z"/>
<g>
	<rect x="413.6" y="268" style="fill:#FFFFFF;" width="54.4" height="91.2"/>
	<path style="fill:#FFFFFF;" d="M440.8,40.8L440.8,40.8c-20.8,0-37.6,16.8-37.6,37.6l0,0c0,20.8,16.8,37.6,37.6,37.6l0,0
		c20.8,0,37.6-16.8,37.6-37.6l0,0C478.4,57.6,461.6,40.8,440.8,40.8z"/>
	<polygon style="fill:#FFFFFF;" points="12.8,303.2 8.8,341.6 500.8,389.6 504.8,351.2 	"/>
	<path style="fill:#FFFFFF;" d="M256.8,365.6L256.8,365.6c-38.4,0-69.6,31.2-69.6,69.6l0,0c0,38.4,31.2,69.6,69.6,69.6l0,0
		c38.4,0,69.6-31.2,69.6-69.6l0,0C326.4,396.8,295.2,365.6,256.8,365.6z"/>
</g>
<g>
	<path style="fill:#193651;" d="M72.8,92c24.8,0,45.6-20.8,45.6-45.6S98.4,0.8,72.8,0.8S27.2,21.6,27.2,46.4S48,92,72.8,92z
		 M72.8,16.8c16,0,29.6,13.6,29.6,29.6S88.8,76,72.8,76S43.2,62.4,43.2,46.4S56.8,16.8,72.8,16.8z"/>
	<path style="fill:#193651;" d="M440.8,124c24.8,0,45.6-20.8,45.6-45.6s-20.8-45.6-45.6-45.6s-45.6,20.8-45.6,45.6
		S415.2,124,440.8,124z M440.8,48.8c16,0,29.6,13.6,29.6,29.6S456.8,108,440.8,108s-29.6-13.6-29.6-29.6S424,48.8,440.8,48.8z"/>
	<path style="fill:#193651;" d="M513.6,344l-37.6-4v-64.8h36.8V165.6c0-17.6-14.4-32-32-32H400c-17.6,0-32,14.4-32,32V276h36.8v57.6
		L107.2,304v-60h37.6V133.6c0-17.6-14.4-32-32-32h-80c-17.6,0-32,14.4-32,32V244h36.8v53.6l-32-3.2L0,348.8l215.2,20.8
		c-21.6,13.6-36,37.6-36,65.6c0,42.4,34.4,77.6,77.6,77.6c42.4,0,77.6-34.4,77.6-77.6c0-22.4-9.6-42.4-24-56l198.4,19.2L513.6,344z
		 M384.8,260v-94.4c0-8.8,7.2-16,16-16h80c8.8,0,16,7.2,16,16V260H384.8z M460,276v63.2l-38.4-4l0,0V276H460z M16.8,228v-94.4
		c0-8.8,7.2-16,16-16h80.8c8.8,0,16,7.2,16,16V228H16.8L16.8,228z M92,244v59.2l-38.4-4V244H92z M318.4,435.2
		c0,33.6-27.2,61.6-61.6,61.6s-61.6-27.2-61.6-61.6c0-33.6,27.2-60.8,60.8-61.6l13.6,1.6C297.6,381.6,318.4,405.6,318.4,435.2z
		 M493.6,380.8l-476-46.4L20,312l476,46.4L493.6,380.8z"/>
	<rect x="432.8" y="177.6" style="fill:#193651;" width="16" height="16"/>
	<rect x="432.8" y="224.8" style="fill:#193651;" width="16" height="16"/>
	<rect x="64.8" y="145.6" style="fill:#193651;" width="16" height="16"/>
	<rect x="64.8" y="192.8" style="fill:#193651;" width="16" height="16"/>
</g>
<g>
</g>
<g>
</g>
<g>
</g>
<g>
</g>
<g>
</g>
<g>
</g>
<g>
</g>
<g>
</g>
<g>
</g>
<g>
</g>
<g>
</g>
<g>
</g>
<g>
</g>
<g>
</g>
<g>
</g>
</svg>
