<?xml version="1.0" encoding="iso-8859-1"?>
<!-- Generator: Adobe Illustrator 19.0.0, SVG Export Plug-In . SVG Version: 6.00 Build 0)  -->
<svg version="1.1" id="Capa_1" xmlns="http://www.w3.org/2000/svg" xmlns:xlink="http://www.w3.org/1999/xlink" x="0px" y="0px"
	 viewBox="0 0 517.6 517.6" style="enable-background:new 0 0 517.6 517.6;" xml:space="preserve">
<path style="fill:#FFFFFF;" d="M280,275.2c2.4-14.4,2.4-28.8-0.8-43.2l27.2-17.6L289.6,176l-31.2,8c-8.8-12-19.2-21.6-31.2-29.6
	l7.2-31.2L195.2,108l-16,28c-14.4-2.4-28.8-2.4-43.2,0.8l-17.6-27.2L80,126.4l8,31.2c-12,8-21.6,18.4-29.6,30.4l-32-7.2L11.2,220
	l28,16c-2.4,14.4-2.4,28.8,0.8,43.2l-27.2,17.6l16.8,38.4l31.2-8c8.8,12,19.2,21.6,31.2,29.6L84.8,388l39.2,15.2l16-28
	c14.4,2.4,28.8,2.4,43.2-0.8l17.6,27.2l38.4-16.8l-8-31.2c12-8.8,21.6-19.2,29.6-31.2l31.2,7.2l15.2-39.2L280,275.2z"/>
<circle style="fill:#2EA2DB;" cx="160" cy="256" r="92.8"/>
<circle style="fill:#FFFFFF;" cx="160" cy="256" r="52.8"/>
<path style="fill:#D3D7DA;" d="M453.6,350.4V187.2c32-15.2,53.6-47.2,53.6-84.8c0-52-42.4-94.4-94.4-94.4s-94.4,42.4-94.4,94.4
	c0,37.6,21.6,69.6,53.6,84.8v163.2c-27.2,14.4-46.4,43.2-46.4,76.8S344,489.6,372,504v-96h81.6v96c27.2-14.4,46.4-43.2,46.4-76.8
	S481.6,364.8,453.6,350.4z M384.8,53.6h56l28,48.8l-28,48.8h-56l-28-48.8L384.8,53.6z"/>
<g>
	<path style="fill:#193651;" d="M288,236l28.8-18.4l-22.4-51.2l-32.8,8.8c-7.2-8.8-16-17.6-24.8-24l7.2-32.8l-52-20l-16.8,28.8
		c-12-1.6-23.2-0.8-35.2,0.8l-18.4-28.8l-51.2,22.4l8.8,32.8c-8.8,7.2-17.6,16-24,24.8L22.4,172l-20,52l28.8,16.8
		c-1.6,12-0.8,23.2,0.8,35.2L3.2,294.4l22.4,51.2l32.8-8.8c7.2,8.8,16,17.6,24.8,24L76,393.6l52,20l16.8-28.8
		c12,1.6,23.2,0.8,35.2-0.8l18.4,28.8l51.2-22.4l-8.8-32.8c8.8-7.2,17.6-16,24-24.8l32.8,7.2l20-52l-28.8-16.8
		C290.4,259.2,289.6,247.2,288,236z M297.6,294.4l-10.4,26.4l-29.6-6.4l-3.2,4.8c-7.2,11.2-16.8,20.8-28,28.8l-4.8,3.2l8,29.6
		L203.2,392l-16.8-26.4l-5.6,0.8c-12.8,2.4-27.2,3.2-40,0.8l-5.6-0.8l-16,26.4l-26.4-10.4l6.4-30.4l-4.8-3.2
		c-11.2-7.2-20.8-16.8-28.8-28l-3.2-4.8l-29.6,8l-11.2-26.4L48,280.8l-0.8-5.6c-2.4-13.6-3.2-26.4-0.8-40l0.8-5.6l-26.4-16
		l10.4-26.4l30.4,6.4l3.2-4.8c7.2-11.2,16.8-20.8,28-28.8l4.8-3.2l-8-29.6L116,116l16.8,26.4l5.6-0.8c12.8-2.4,27.2-3.2,40-0.8
		l5.6,0.8l16-26.4l26.4,10.4l-8,32l4.8,3.2c11.2,7.2,20.8,16.8,28.8,28l3.2,4.8l29.6-8L296,212l-26.4,16.8l0.8,5.6
		c2.4,13.6,3.2,26.4,0.8,40l-0.8,5.6L297.6,294.4z"/>
	<path style="fill:#193651;" d="M160,195.2c-33.6,0-60.8,27.2-60.8,60.8s27.2,60.8,60.8,60.8s60.8-27.2,60.8-60.8
		C220,222.4,192.8,195.2,160,195.2z M160,300c-24.8,0-44.8-20-44.8-44.8s20-44.8,44.8-44.8s44.8,20,44.8,44.8
		C204,280,184,300,160,300z"/>
	<path style="fill:#193651;" d="M461.6,345.6V192c32.8-17.6,53.6-52,53.6-89.6C515.2,45.6,469.6,0,412.8,0S310.4,45.6,310.4,102.4
		c0,37.6,20,72,53.6,89.6v153.6c-28.8,16.8-46.4,48-46.4,81.6c0,35.2,19.2,67.2,50.4,84l12,6.4V416h65.6v101.6l12-6.4
		c31.2-16.8,50.4-48.8,50.4-84C508,393.6,490.4,363.2,461.6,345.6z M461.6,488.8V400H364v89.6c-18.4-15.2-30.4-37.6-30.4-61.6
		c0-28.8,16-56,41.6-69.6l4-2.4V182.4l-4.8-2.4c-30.4-14.4-48.8-44-48.8-77.6c0-48,38.4-86.4,86.4-86.4s86.4,38.4,86.4,86.4
		c0,33.6-18.4,63.2-48.8,77.6l-4.8,2.4v172.8l4,2.4c25.6,13.6,41.6,40.8,41.6,69.6C492,451.2,480.8,474.4,461.6,488.8z"/>
	<path style="fill:#193651;" d="M445.6,45.6h-64.8L348,102.4l32.8,56.8h64.8l32.8-56.8L445.6,45.6z M436,142.4h-46.4l-23.2-40.8
		l23.2-40.8H436l23.2,40.8L436,142.4z"/>
	<rect x="404.8" y="203.2" style="fill:#193651;" width="16" height="16"/>
	<rect x="404.8" y="256.8" style="fill:#193651;" width="16" height="16"/>
	<rect x="404.8" y="310.4" style="fill:#193651;" width="16" height="16"/>
</g>
<g>
</g>
<g>
</g>
<g>
</g>
<g>
</g>
<g>
</g>
<g>
</g>
<g>
</g>
<g>
</g>
<g>
</g>
<g>
</g>
<g>
</g>
<g>
</g>
<g>
</g>
<g>
</g>
<g>
</g>
</svg>
