<?xml version="1.0" encoding="iso-8859-1"?>
<!-- Generator: Adobe Illustrator 19.0.0, SVG Export Plug-In . SVG Version: 6.00 Build 0)  -->
<svg version="1.1" id="Capa_1" xmlns="http://www.w3.org/2000/svg" xmlns:xlink="http://www.w3.org/1999/xlink" x="0px" y="0px"
	 viewBox="0 0 512 512" style="enable-background:new 0 0 512 512;" xml:space="preserve">
<path style="fill:#D3D7DA;" d="M481.326,76.8c-148-8-235.2-67.2-235.2-67.2s-88,59.2-235.2,67.2c0,0-20.8,382.4,235.2,426.4
	C501.326,460,481.326,76.8,481.326,76.8z"/>
<path style="fill:#FFFFFF;" d="M246.126,435.2c-134.4-32-162.4-206.4-168-297.6c75.2-12,132.8-34.4,167.2-51.2
	c34.4,16.8,92,39.2,167.2,51.2C407.726,228.8,378.926,403.2,246.126,435.2z"/>
<path style="fill:#F16051;" d="M325.326,180.8c-21.6-21.6-49.6-32.8-80-32.8l0,0c-30.4,0-58.4,12-80,32.8c-44,44-44,115.2,0,159.2
	c21.6,21.6,49.6,32.8,80,32.8l0,0c30.4,0,58.4-12,80-32.8C369.326,296.8,369.326,224.8,325.326,180.8z M182.926,197.6
	c16.8-16.8,39.2-26.4,62.4-26.4l0,0c20,0,38.4,6.4,53.6,18.4l-124,124.8C148.526,279.2,151.726,229.6,182.926,197.6z M308.526,323.2
	c-16.8,16.8-39.2,26.4-62.4,26.4l0,0c-20,0-38.4-6.4-53.6-18.4l124-124C342.926,241.6,340.526,292,308.526,323.2z"/>
<path style="fill:#FFFFFF;" d="M413.326,298.4c-32-32-83.2-32-114.4,0c-32,32-32,83.2,0,114.4c25.6,25.6,64.8,30.4,96,13.6
	l54.4,63.2c11.2,12.8,31.2,13.6,43.2,1.6s11.2-32-1.6-43.2l-63.2-54.4C444.526,364,439.726,324.8,413.326,298.4z"/>
<g>
	<path style="fill:#193651;" d="M496.526,443.2l-59.2-50.4c7.2-16,9.6-33.6,6.4-51.2c52-121.6,45.6-262.4,45.6-264.8v-7.2l-7.2-0.8
		c-143.2-8-230.4-65.6-231.2-65.6l-4.8-3.2l-4.8,3.2c-0.8,0.8-87.2,57.6-231.2,65.6l-7.2,0.8v7.2c0,4-17.6,390.4,241.6,435.2h1.6
		h1.6c56-9.6,99.2-35.2,132-69.6c4.8-1.6,8.8-2.4,13.6-4.8l50.4,59.2c7.2,8,17.6,12.8,28,12.8l0,0c9.6,0,19.2-4,26.4-11.2
		c7.2-7.2,11.2-17.6,11.2-28C508.526,460,504.526,450.4,496.526,443.2z M246.126,495.2c-225.6-40-228.8-358.4-228-410.4
		c127.2-8.8,208-53.6,227.2-65.6c19.2,12,100,56,227.2,65.6c0.8,28,0,134.4-36.8,232.8c-4-8.8-9.6-16.8-16.8-24
		c-16.8-16.8-39.2-26.4-63.2-26.4s-46.4,9.6-63.2,26.4c-34.4,34.4-34.4,91.2,0,125.6c16,16,36.8,24.8,59.2,25.6
		C324.526,469.6,289.326,488,246.126,495.2z M486.926,486.4c-4,4-9.6,6.4-15.2,6.4l0,0c-6.4,0-12-2.4-16-7.2l-59.2-68.8l-5.6,3.2
		c-10.4,5.6-22.4,8.8-34.4,8.8c-19.2,0-37.6-7.2-51.2-21.6c-28.8-28.8-28.8-74.4,0-103.2c13.6-13.6,32-21.6,52-21.6
		s37.6,7.2,52,21.6c22.4,22.4,28,58.4,12.8,86.4l-3.2,5.6l68,59.2c4.8,4,7.2,9.6,7.2,15.2
		C493.326,476.8,490.926,482.4,486.926,486.4z"/>
	
		<rect x="318.08" y="373.212" transform="matrix(-0.7071 -0.7071 0.7071 -0.7071 287.0965 881.3428)" style="fill:#193651;" width="16" height="16"/>
	
		<rect x="345.606" y="345.129" transform="matrix(-0.7073 -0.707 0.707 -0.7073 354.0494 852.8679)" style="fill:#193651;" width="16.001" height="16.001"/>
	
		<rect x="373.143" y="317.702" transform="matrix(0.7071 -0.7071 0.7071 0.7071 -118.6715 364.9048)" style="fill:#193651;" width="16" height="16"/>
</g>
<g>
</g>
<g>
</g>
<g>
</g>
<g>
</g>
<g>
</g>
<g>
</g>
<g>
</g>
<g>
</g>
<g>
</g>
<g>
</g>
<g>
</g>
<g>
</g>
<g>
</g>
<g>
</g>
<g>
</g>
</svg>
