<?xml version="1.0" encoding="iso-8859-1"?>
<!-- Generator: Adobe Illustrator 19.0.0, SVG Export Plug-In . SVG Version: 6.00 Build 0)  -->
<svg version="1.1" id="Capa_1" xmlns="http://www.w3.org/2000/svg" xmlns:xlink="http://www.w3.org/1999/xlink" x="0px" y="0px"
	 viewBox="0 0 512 512" style="enable-background:new 0 0 512 512;" xml:space="preserve">
<g>
	<path style="fill:#FFFFFF;" d="M419.2,504H92.8c-13.6,0-24-10.4-24-24V32c0-13.6,10.4-24,24-24h326.4c13.6,0,24,10.4,24,24v448
		C443.2,493.6,432,504,419.2,504z"/>
	<path style="fill:#FFFFFF;" d="M68.8,430.4V480c0,13.6,10.4,24,24,24h326.4c13.6,0,24-10.4,24-24v-49.6H292.8H68.8z"/>
	<path style="fill:#FFFFFF;" d="M443.2,72.8V32c0-13.6-10.4-24-24-24H92.8c-13.6,0-24,10.4-24,24v40.8H443.2z"/>
</g>
<g>
	<path style="fill:#193651;" d="M419.2,0H92.8c-17.6,0-32,14.4-32,32v448c0,17.6,14.4,32,32,32h326.4c17.6,0,32-14.4,32-32V32
		C451.2,14.4,436.8,0,419.2,0z M76.8,32c0-8.8,7.2-16,16-16h326.4c8.8,0,16,7.2,16,16v32.8H76.8V32z M435.2,480c0,8.8-7.2,16-16,16
		H92.8c-8.8,0-16-7.2-16-16v-41.6h358.4V480z M435.2,422.4H76.8V80.8h358.4V422.4z"/>
	<rect x="200.8" y="32" style="fill:#193651;" width="16" height="16"/>
	<rect x="248" y="32" style="fill:#193651;" width="16" height="16"/>
	<rect x="295.2" y="32" style="fill:#193651;" width="16" height="16"/>
</g>
<path style="fill:#F16051;" d="M295.2,479.2h-78.4c-6.4,0-12-5.6-12-12l0,0c0-6.4,5.6-12,12-12h78.4c6.4,0,12,5.6,12,12l0,0
	C307.2,473.6,301.6,479.2,295.2,479.2z"/>
<g>
	<path style="fill:#2EA2DB;" d="M227.2,139.2l-23.2-28c-2.4-3.2-1.6-7.2,0.8-9.6l0,0c3.2-2.4,7.2-1.6,9.6,0.8l23.2,28
		c2.4,3.2,1.6,7.2-0.8,9.6l0,0C234.4,142.4,229.6,142.4,227.2,139.2z"/>
	<path style="fill:#2EA2DB;" d="M275.2,140.8L275.2,140.8c-3.2-2.4-3.2-6.4-0.8-9.6l23.2-28c2.4-3.2,6.4-3.2,9.6-0.8l0,0
		c3.2,2.4,3.2,6.4,0.8,9.6l-23.2,28C282.4,142.4,277.6,142.4,275.2,140.8z"/>
	<path style="fill:#2EA2DB;" d="M384.8,287.2v-56.8c0-7.2-5.6-13.6-13.6-13.6l0,0c-7.2,0-13.6,5.6-13.6,13.6v56.8
		c0,7.2,5.6,13.6,13.6,13.6l0,0C379.2,300,384.8,294.4,384.8,287.2z"/>
	<path style="fill:#2EA2DB;" d="M153.6,287.2v-56.8c0-7.2-5.6-13.6-13.6-13.6l0,0c-7.2,0-13.6,5.6-13.6,13.6v56.8
		c0,7.2,5.6,13.6,13.6,13.6l0,0C148,300,153.6,294.4,153.6,287.2z"/>
	<path style="fill:#2EA2DB;" d="M167.2,216.8V324c0,14.4,12,26.4,26.4,26.4h6.4v38.4c0,7.2,5.6,13.6,13.6,13.6
		c7.2,0,13.6-5.6,13.6-13.6v-38.4h59.2v38.4c0,7.2,5.6,13.6,13.6,13.6c7.2,0,13.6-5.6,13.6-13.6v-38.4h5.6c14.4,0,26.4-12,26.4-26.4
		V216.8H167.2z"/>
	<path style="fill:#2EA2DB;" d="M256,115.2c-48.8,0-88.8,40-88.8,88.8h177.6C344.8,154.4,304.8,115.2,256,115.2z"/>
</g>
<g>
	<circle style="fill:#FFFFFF;" cx="223.2" cy="165.6" r="10.4"/>
	<circle style="fill:#FFFFFF;" cx="288.8" cy="165.6" r="10.4"/>
</g>
<g>
</g>
<g>
</g>
<g>
</g>
<g>
</g>
<g>
</g>
<g>
</g>
<g>
</g>
<g>
</g>
<g>
</g>
<g>
</g>
<g>
</g>
<g>
</g>
<g>
</g>
<g>
</g>
<g>
</g>
</svg>
