<?xml version="1.0" encoding="iso-8859-1"?>
<!-- Generator: Adobe Illustrator 19.0.0, SVG Export Plug-In . SVG Version: 6.00 Build 0)  -->
<svg version="1.1" id="Capa_1" xmlns="http://www.w3.org/2000/svg" xmlns:xlink="http://www.w3.org/1999/xlink" x="0px" y="0px"
	 viewBox="0 0 512 512" style="enable-background:new 0 0 512 512;" xml:space="preserve">
<path style="fill:#FFFFFF;" d="M448,504H64c-8.8,0-16-7.2-16-16V24c0-8.8,7.2-16,16-16h384c8.8,0,16,7.2,16,16v464
	C464,496.8,456.8,504,448,504z"/>
<rect x="80" y="94.4" style="fill:#F16051;" width="261.6" height="92"/>
<rect x="361.6" y="94.4" style="fill:#FDBF5E;" width="70.4" height="92"/>
<rect x="187.2" y="201.6" style="fill:#2EA2DB;" width="244.8" height="92"/>
<rect x="80" y="201.6" style="fill:#FDBF5E;" width="84.8" height="92"/>
<rect x="80" y="308.8" style="fill:#4FBF9F;" width="152" height="92"/>
<rect x="251.2" y="308.8" style="fill:#F16051;" width="91.2" height="92"/>
<rect x="361.6" y="308.8" style="fill:#4FBF9F;" width="70.4" height="92"/>
<path style="fill:#D3D7DA;" d="M48,432.8V488c0,8.8,7.2,16,16,16h384c8.8,0,16-7.2,16-16v-55.2"/>
<path style="fill:#193651;" d="M448,0H64C50.4,0,40,10.4,40,24v464l0,0c0,13.6,10.4,24,24,24h384c13.6,0,24-10.4,24-24l0,0V24
	C472,10.4,461.6,0,448,0z M456,488c0,4.8-3.2,8-8,8H64c-4.8,0-8-3.2-8-8V24c0-4.8,3.2-8,8-8h384c4.8,0,8,3.2,8,8V488z"/>
<path style="fill:#D3D7DA;" d="M464,62.4V24c0-8.8-7.2-16-16-16H64c-8.8,0-16,7.2-16,16v38.4"/>
<g>
	<path style="fill:#193651;" d="M472,62.4h-16V24c0-4.8-3.2-8-8-8H64c-4.8,0-8,3.2-8,8v38.4H40V24C40,10.4,50.4,0,64,0h384
		c13.6,0,24,10.4,24,24V62.4z"/>
	<rect x="200.8" y="460" style="fill:#193651;" width="16" height="16"/>
	<rect x="248" y="460" style="fill:#193651;" width="16" height="16"/>
	<rect x="295.2" y="460" style="fill:#193651;" width="16" height="16"/>
	<rect x="232" y="32" style="fill:#193651;" width="48" height="16"/>
</g>
<g>
</g>
<g>
</g>
<g>
</g>
<g>
</g>
<g>
</g>
<g>
</g>
<g>
</g>
<g>
</g>
<g>
</g>
<g>
</g>
<g>
</g>
<g>
</g>
<g>
</g>
<g>
</g>
<g>
</g>
</svg>
