<?xml version="1.0" encoding="iso-8859-1"?>
<!-- Generator: Adobe Illustrator 19.1.0, SVG Export Plug-In . SVG Version: 6.00 Build 0)  -->
<svg version="1.1" id="Capa_1" xmlns="http://www.w3.org/2000/svg" xmlns:xlink="http://www.w3.org/1999/xlink" x="0px" y="0px"
	 viewBox="0 0 443 443" style="enable-background:new 0 0 443 443;" xml:space="preserve">
<g>
	<path d="M364,37.36v368.28c0,20.6-16.76,37.36-37.37,37.36H116.36C95.76,443,79,426.24,79,405.64V37.36C79,16.76,95.76,0,116.36,0
		h210.27C347.24,0,364,16.76,364,37.36z M349,405.64V375H94v30.64c0,12.33,10.03,22.36,22.36,22.36h210.27
		C338.96,428,349,417.97,349,405.64z M349,360V83H94v277H349z M349,68V37.36C349,25.03,338.96,15,326.63,15H116.36
		C104.03,15,94,25.03,94,37.36V68H349z"/>
	<path style="fill:#3DD0F2;" d="M349,375v30.64c0,12.33-10.04,22.36-22.37,22.36H116.36C104.03,428,94,417.97,94,405.64V375H349z
		 M244,401.1c0-12.41-10.1-22.5-22.5-22.5c-12.41,0-22.5,10.09-22.5,22.5s10.09,22.5,22.5,22.5C233.9,423.6,244,413.51,244,401.1z"
		/>
	<path style="fill:#3DD0F2;" d="M349,37.36V68H94V37.36C94,25.03,104.03,15,116.36,15h210.27C338.96,15,349,25.03,349,37.36z
		 M261,41.5c0-4.14-3.36-7.5-7.5-7.5h-64c-4.15,0-7.5,3.36-7.5,7.5s3.35,7.5,7.5,7.5h64C257.64,49,261,45.64,261,41.5z"/>
	<path d="M331.74,115.51V337.5c0,4.14-3.36,7.5-7.5,7.5h-31.5c-4.14,0-7.5-3.36-7.5-7.5V115.51c0-4.14,3.36-7.5,7.5-7.5h31.5
		C328.38,108.01,331.74,111.37,331.74,115.51z M316.74,330V123.01h-16.5V330H316.74z"/>
	<rect x="300.24" y="123.01" style="fill:#F48C6C;" width="16.5" height="206.99"/>
	<path d="M273.74,167.01V337.5c0,4.14-3.35,7.5-7.5,7.5h-31.49c-4.15,0-7.5-3.36-7.5-7.5V167.01c0-4.14,3.35-7.5,7.5-7.5h31.49
		C270.39,159.51,273.74,162.87,273.74,167.01z M258.74,330V174.51h-16.49V330H258.74z"/>
	<path d="M253.5,34c4.14,0,7.5,3.36,7.5,7.5s-3.36,7.5-7.5,7.5h-64c-4.15,0-7.5-3.36-7.5-7.5s3.35-7.5,7.5-7.5H253.5z"/>
	<rect x="242.25" y="174.51" style="fill:#F48C6C;" width="16.49" height="155.49"/>
	<path d="M221.5,378.6c12.4,0,22.5,10.09,22.5,22.5s-10.1,22.5-22.5,22.5c-12.41,0-22.5-10.09-22.5-22.5S209.09,378.6,221.5,378.6z
		 M229,401.1c0-4.13-3.37-7.5-7.5-7.5c-4.14,0-7.5,3.37-7.5,7.5c0,4.14,3.36,7.5,7.5,7.5C225.63,408.6,229,405.24,229,401.1z"/>
	<path style="fill:#3DD0F2;" d="M221.5,393.6c4.13,0,7.5,3.37,7.5,7.5c0,4.14-3.37,7.5-7.5,7.5c-4.14,0-7.5-3.36-7.5-7.5
		C214,396.97,217.36,393.6,221.5,393.6z"/>
	<path d="M215.75,218.51V337.5c0,4.14-3.36,7.5-7.5,7.5h-31.5c-4.14,0-7.5-3.36-7.5-7.5V218.51c0-4.14,3.36-7.5,7.5-7.5h31.5
		C212.39,211.01,215.75,214.37,215.75,218.51z M200.75,330V226.01h-16.5V330H200.75z"/>
	<rect x="184.25" y="226.01" style="fill:#F48C6C;" width="16.5" height="103.99"/>
	<path d="M157.75,270.01v67.49c0,4.14-3.36,7.5-7.5,7.5h-31.5c-4.14,0-7.5-3.36-7.5-7.5v-67.49c0-4.15,3.36-7.5,7.5-7.5h31.5
		C154.39,262.51,157.75,265.86,157.75,270.01z M142.75,330v-52.49h-16.5V330H142.75z"/>
	<rect x="126.25" y="277.51" style="fill:#F48C6C;" width="16.5" height="52.49"/>
</g>
<g>
</g>
<g>
</g>
<g>
</g>
<g>
</g>
<g>
</g>
<g>
</g>
<g>
</g>
<g>
</g>
<g>
</g>
<g>
</g>
<g>
</g>
<g>
</g>
<g>
</g>
<g>
</g>
<g>
</g>
</svg>
