<?xml version="1.0" encoding="iso-8859-1"?>
<!-- Generator: Adobe Illustrator 19.0.0, SVG Export Plug-In . SVG Version: 6.00 Build 0)  -->
<svg version="1.1" id="Capa_1" xmlns="http://www.w3.org/2000/svg" xmlns:xlink="http://www.w3.org/1999/xlink" x="0px" y="0px"
	 viewBox="0 0 517.6 517.6" style="enable-background:new 0 0 517.6 517.6;" xml:space="preserve">
<path style="fill:#FFFFFF;" d="M482.8,509.6h-448c-13.6,0-24-10.4-24-24V180.8c0-13.6,10.4-24,24-24h448c13.6,0,24,10.4,24,24v304.8
	C506.8,499.2,496.4,509.6,482.8,509.6z"/>
<rect x="78.8" y="188.8" style="fill:#FDBF5E;" width="327.2" height="288.8"/>
<g>
	<path style="fill:#FFFFFF;" d="M205.2,152.8v148c-28.8,13.6-48.8,43.2-48.8,76.8c0,47.2,38.4,85.6,85.6,85.6s85.6-38.4,85.6-85.6
		c0-33.6-20-63.2-48.8-76.8v-148c24.8-13.6,41.6-39.2,41.6-69.6s-16.8-56-41.6-69.6v87.2h-74.4V13.6c-24,13.6-40.8,40-40.8,69.6
		C163.6,113.6,180.4,139.2,205.2,152.8z M267.6,421.6h-50.4l-25.6-44l25.6-44h50.4l25.6,44L267.6,421.6z"/>
	<circle style="fill:#FFFFFF;" cx="450.8" cy="333.6" r="24"/>
</g>
<g>
	<path style="fill:#193651;" d="M482.8,148.8h-184c19.2-16,30.4-40,30.4-65.6c0-32-17.6-61.6-45.6-76.8l-12-6.4v92h-58.4V0.8
		l-12,6.4c-28,14.4-45.6,44-45.6,76c0,25.6,11.2,49.6,30.4,65.6H34.8c-17.6,0-32,14.4-32,32v304.8c0,17.6,14.4,32,32,32h448
		c17.6,0,32-14.4,32-32V180.8C514.8,163.2,500.4,148.8,482.8,148.8z M171.6,83.2c0-21.6,9.6-40.8,25.6-54.4v80h90.4v-80
		c16,13.6,25.6,32.8,25.6,54.4c0,26.4-14.4,50.4-37.6,62.4l-4,2.4v157.6l4.8,2.4c27.2,12.8,44,40,44,69.6
		c0,42.4-34.4,77.6-77.6,77.6s-77.6-34.4-77.6-77.6c0-29.6,16.8-56.8,44-69.6l4.8-2.4V148l-4-2.4C186,133.6,171.6,109.6,171.6,83.2z
		 M498.8,485.6c0,8.8-7.2,16-16,16h-448c-8.8,0-16-7.2-16-16V180.8c0-8.8,7.2-16,16-16h162.4v130.4c-29.6,16.8-48.8,47.2-48.8,81.6
		c0,51.2,41.6,93.6,93.6,93.6c51.2,0,93.6-41.6,93.6-93.6c0-34.4-18.4-65.6-48.8-81.6V164.8h196c8.8,0,16,7.2,16,16V485.6z"/>
	<path style="fill:#193651;" d="M182,377.6l29.6,52h60l29.6-52l-29.6-52h-60L182,377.6z M262.8,341.6l20.8,36l-20.8,36h-41.6
		l-20.8-36l20.8-36H262.8z"/>
	<path style="fill:#193651;" d="M450.8,301.6c-17.6,0-32,14.4-32,32s14.4,32,32,32s32-14.4,32-32S468.4,301.6,450.8,301.6z
		 M450.8,349.6c-8.8,0-16-7.2-16-16s7.2-16,16-16s16,7.2,16,16S459.6,349.6,450.8,349.6z"/>
	<rect x="38.8" y="278.4" style="fill:#193651;" width="16" height="72.8"/>
	<rect x="38.8" y="372" style="fill:#193651;" width="16" height="16"/>
	<rect x="234" y="196" style="fill:#193651;" width="16" height="16"/>
	<rect x="234" y="243.2" style="fill:#193651;" width="16" height="16"/>
	<rect x="234" y="290.4" style="fill:#193651;" width="16" height="16"/>
</g>
<g>
</g>
<g>
</g>
<g>
</g>
<g>
</g>
<g>
</g>
<g>
</g>
<g>
</g>
<g>
</g>
<g>
</g>
<g>
</g>
<g>
</g>
<g>
</g>
<g>
</g>
<g>
</g>
<g>
</g>
</svg>
