<?xml version="1.0" encoding="iso-8859-1"?>
<!-- Generator: Adobe Illustrator 19.0.0, SVG Export Plug-In . SVG Version: 6.00 Build 0)  -->
<svg version="1.1" id="Capa_1" xmlns="http://www.w3.org/2000/svg" xmlns:xlink="http://www.w3.org/1999/xlink" x="0px" y="0px"
	 viewBox="0 0 512 512" style="enable-background:new 0 0 512 512;" xml:space="preserve">
<rect x="63.2" y="79.2" style="fill:#FFFFFF;" width="372.8" height="325.6"/>
<g>
	<path style="fill:#E1E6E9;" d="M63.2,404.8V480c0,13.6,10.4,24,24,24H412c13.6,0,24-10.4,24-24v-75.2H63.2z"/>
	<path style="fill:#E1E6E9;" d="M436,79.2V32c0-13.6-10.4-24-24-24H87.2c-13.6,0-24,10.4-24,24v47.2H436z"/>
</g>
<g>
	<rect x="224" y="446.4" style="fill:#193651;" width="51.2" height="16"/>
	<rect x="183.2" y="446.4" style="fill:#193651;" width="16" height="16"/>
	<rect x="300.8" y="446.4" style="fill:#193651;" width="16" height="16"/>
	<rect x="204.8" y="36" style="fill:#193651;" width="16" height="16"/>
	<rect x="241.6" y="36" style="fill:#193651;" width="16" height="16"/>
	<rect x="278.4" y="36" style="fill:#193651;" width="16" height="16"/>
</g>
<rect x="220" y="144" style="fill:#2EA2DB;" width="284" height="195.2"/>
<polygon style="fill:#FFFFFF;" points="228,332 284,236.8 334.4,309.6 424.8,203.2 496,332 "/>
<circle style="fill:#FDBF5E;" cx="332" cy="199.2" r="36"/>
<circle style="fill:#FFFFFF;" cx="88" cy="195.2" r="80"/>
<path style="fill:#193651;" d="M444,136V71.2V32c0-17.6-14.4-32-32-32H87.2c-17.6,0-32,14.4-32,32v80.8C23.2,126.4,0,157.6,0,195.2
	C0,232,23.2,264,55.2,276.8V480c0,17.6,14.4,32,32,32H412c17.6,0,32-14.4,32-32V348h68V136H444z M71.2,32c0-8.8,7.2-16,16-16H412
	c8.8,0,16,7.2,16,16v39.2H71.2V32z M16,195.2c0-40,32-72,72-72s72,32,72,72s-32,72-72,72S16,234.4,16,195.2z M428,480
	c0,8.8-7.2,16-16,16H87.2c-8.8,0-16-7.2-16-16v-67.2H428V480z M428,396.8H71.2V281.6c5.6,0.8,11.2,1.6,16.8,1.6
	c48.8,0,88-39.2,88-88s-39.2-88-88-88c-5.6,0-11.2,0.8-16.8,1.6V88H428v48H212v211.2h216V396.8z M496,332H228V152h268V332z"/>
<circle style="fill:#FFFFFF;" cx="130.4" cy="346.4" r="26.4"/>
<g>
	<path style="fill:#193651;" d="M130.4,311.2c-19.2,0-34.4,15.2-34.4,34.4s15.2,34.4,34.4,34.4s34.4-15.2,34.4-34.4
		S149.6,311.2,130.4,311.2z M130.4,364.8c-10.4,0-18.4-8-18.4-18.4s8-18.4,18.4-18.4s18.4,8,18.4,18.4S140.8,364.8,130.4,364.8z"/>
	<rect x="71.2" y="164.8" style="fill:#193651;" width="59.2" height="16"/>
	<rect x="37.6" y="164.8" style="fill:#193651;" width="16" height="16"/>
	<rect x="71.2" y="208.8" style="fill:#193651;" width="59.2" height="16"/>
	<rect x="37.6" y="208.8" style="fill:#193651;" width="16" height="16"/>
</g>
<g>
</g>
<g>
</g>
<g>
</g>
<g>
</g>
<g>
</g>
<g>
</g>
<g>
</g>
<g>
</g>
<g>
</g>
<g>
</g>
<g>
</g>
<g>
</g>
<g>
</g>
<g>
</g>
<g>
</g>
</svg>
