<?xml version="1.0" encoding="iso-8859-1"?>
<!-- Generator: Adobe Illustrator 19.0.0, SVG Export Plug-In . SVG Version: 6.00 Build 0)  -->
<svg version="1.1" id="Capa_1" xmlns="http://www.w3.org/2000/svg" xmlns:xlink="http://www.w3.org/1999/xlink" x="0px" y="0px"
	 viewBox="0 0 512 512" style="enable-background:new 0 0 512 512;" xml:space="preserve">
<path style="fill:#F16051;" d="M256,8L256,8c-78.4,0-141.6,63.2-141.6,141.6l0,0c0,78.4,63.2,141.6,141.6,141.6l0,0
	c78.4,0,141.6-63.2,141.6-141.6l0,0C397.6,71.2,334.4,8,256,8z"/>
<path style="fill:#FFFFFF;" d="M256,253.6c-56.8,0-103.2-46.4-103.2-103.2S199.2,47.2,256,47.2s103.2,46.4,103.2,103.2
	S312.8,253.6,256,253.6z"/>
<line style="fill:none;stroke:#193651;stroke-width:2;stroke-miterlimit:10;" x1="256" y1="238.4" x2="256" y2="292"/>
<g>
	<circle style="fill:#FFFFFF;" cx="436" cy="252" r="26.4"/>
	<path style="fill:#FFFFFF;" d="M472,296h-72c-17.6,0-32,14.4-32,32v86.4h24V504h87.2v-88.8H504v-86.4C504,310.4,489.6,296,472,296z
		"/>
</g>
<path style="fill:#FDBF5E;" d="M418.4,478.4v-89.6h-24.8V328c0-3.2,3.2-6.4,6.4-6.4h72c3.2,0,6.4,3.2,6.4,6.4v60.8h-24.8v88.8h-35.2
	V478.4z"/>
<g>
	<circle style="fill:#FFFFFF;" cx="76" cy="252" r="26.4"/>
	<path style="fill:#FFFFFF;" d="M112,296H40c-17.6,0-32,14.4-32,32v86.4h24.8V504H120v-88.8h24.8v-86.4
		C144.8,310.4,130.4,296,112,296z"/>
</g>
<path style="fill:#4FBF9F;" d="M58.4,478.4v-89.6H33.6V328c0-3.2,3.2-6.4,6.4-6.4h72c3.2,0,6.4,3.2,6.4,6.4v60.8H93.6v88.8H58.4
	V478.4z"/>
<circle style="fill:#FFFFFF;" cx="256" cy="156.8" r="32.8"/>
<path style="fill:#193651;" d="M256,197.6c-22.4,0-40.8-18.4-40.8-40.8S233.6,116,256,116s40.8,18.4,40.8,40.8
	S278.4,197.6,256,197.6z M256,132.8c-13.6,0-24.8,11.2-24.8,24.8s11.2,24.8,24.8,24.8s24.8-11.2,24.8-24.8
	C280.8,143.2,269.6,132.8,256,132.8z"/>
<path style="fill:#FFFFFF;" d="M300,211.2h-88c-22.4,0-40,17.6-40,40v106.4h30.4v109.6h107.2V357.6H340V251.2
	C340,228.8,322.4,211.2,300,211.2z"/>
<g>
	<path style="fill:#193651;" d="M405.6,149.6C405.6,67.2,338.4,0,256,0S106.4,67.2,106.4,149.6c0,48,22.4,90.4,57.6,117.6v98.4h30.4
		v109.6h123.2V365.6H348V268C383.2,240,405.6,197.6,405.6,149.6z M332,349.6h-30.4v109.6h-91.2V349.6H180v-98.4
		c0-17.6,14.4-32,32-32h88.8c17.6,0,32,14.4,32,32v98.4H332z M300,203.2h-88c-24.8,0-45.6,19.2-48,43.2
		c-24-22.4-39.2-53.6-41.6-88.8h44.8v-16h-44.8c4-67.2,58.4-120.8,125.6-124.8v44.8h16V16.8c67.2,4,121.6,58.4,125.6,125.6h-44.8v16
		h44.8c-2.4,35.2-17.6,65.6-41.6,88.8C345.6,222.4,325.6,203.2,300,203.2z"/>
	<path style="fill:#193651;" d="M436,287.2c19.2,0,34.4-15.2,34.4-34.4s-15.2-34.4-34.4-34.4c-19.2,0-34.4,15.2-34.4,34.4
		C401.6,271.2,416.8,287.2,436,287.2z M436,233.6c10.4,0,18.4,8,18.4,18.4s-8,18.4-18.4,18.4s-18.4-8-18.4-18.4
		C417.6,242.4,425.6,233.6,436,233.6z"/>
	<path style="fill:#193651;" d="M472,288h-72c-22.4,0-40,18.4-40,40v94.4h24V512h103.2v-88.8H512v-94.4C512,306.4,493.6,288,472,288
		z M496,407.2h-24.8V496H400v-88.8h-24.8v-78.4c0-13.6,11.2-24,24-24h72c13.6,0,24,11.2,24,24v78.4H496z"/>
	<path style="fill:#193651;" d="M76,287.2c19.2,0,34.4-15.2,34.4-34.4S95.2,218.4,76,218.4s-34.4,15.2-34.4,34.4
		C41.6,271.2,57.6,287.2,76,287.2z M76,233.6c10.4,0,18.4,8,18.4,18.4s-8,18.4-18.4,18.4s-18.4-8-18.4-18.4
		C57.6,242.4,66.4,233.6,76,233.6z"/>
	<path style="fill:#193651;" d="M112,288H40c-22.4,0-40,18.4-40,40v94.4h24.8V512H128v-88.8h24.8v-94.4
		C152.8,306.4,134.4,288,112,288z M136.8,407.2H112V496H40.8v-88.8H16v-78.4c0-13.6,11.2-24,24-24h72c13.6,0,24,11.2,24,24v78.4
		H136.8z"/>
</g>
<path style="fill:#D3D7DA;" d="M234.4,436V325.6H204v-74.4c0-4,3.2-8,8-8h88.8c4,0,8,3.2,8,8v74.4h-30.4v109.6h-44V436z"/>
<g>
	<rect x="408.8" y="345.6" style="fill:#193651;" width="16" height="16"/>
	<rect x="447.2" y="345.6" style="fill:#193651;" width="16" height="16"/>
	<rect x="48.8" y="345.6" style="fill:#193651;" width="16" height="16"/>
	<rect x="87.2" y="345.6" style="fill:#193651;" width="16" height="16"/>
	<rect x="225.6" y="275.2" style="fill:#193651;" width="16" height="16"/>
	<rect x="270.4" y="275.2" style="fill:#193651;" width="16" height="16"/>
</g>
<g>
</g>
<g>
</g>
<g>
</g>
<g>
</g>
<g>
</g>
<g>
</g>
<g>
</g>
<g>
</g>
<g>
</g>
<g>
</g>
<g>
</g>
<g>
</g>
<g>
</g>
<g>
</g>
<g>
</g>
</svg>
