<?xml version="1.0" encoding="iso-8859-1"?>
<!-- Generator: Adobe Illustrator 19.0.0, SVG Export Plug-In . SVG Version: 6.00 Build 0)  -->
<svg version="1.1" id="Capa_1" xmlns="http://www.w3.org/2000/svg" xmlns:xlink="http://www.w3.org/1999/xlink" x="0px" y="0px"
	 viewBox="0 0 512 512" style="enable-background:new 0 0 512 512;" xml:space="preserve">
<path style="fill:#193651;" d="M256,468.8c-5.6,0-11.2,0-16.8-0.8l1.6-16c7.2,0.8,15.2,0.8,23.2,0.8l0.8,16
	C261.6,468.8,258.4,468.8,256,468.8z M280.8,467.2l-1.6-16c4.8-0.8,10.4-1.6,15.2-2.4l3.2,16C292,466.4,286.4,467.2,280.8,467.2z
	 M223.2,466.4c-5.6-0.8-11.2-1.6-16-3.2l4-15.2c4.8,0.8,10.4,2.4,15.2,3.2L223.2,466.4z M313.6,460.8l-4-15.2
	c4.8-1.6,9.6-3.2,14.4-4.8l5.6,15.2C324,457.6,318.4,460,313.6,460.8z M190.4,458.4c-5.6-1.6-10.4-4-16-5.6l6.4-14.4
	c4.8,1.6,9.6,4,14.4,5.6L190.4,458.4z M455.2,331.2l-15.2-5.6c1.6-4.8,3.2-9.6,4.8-14.4L460,316
	C459.2,320.8,456.8,326.4,455.2,331.2z M53.6,323.2c-1.6-5.6-3.2-10.4-4.8-16l15.2-4c1.6,4.8,2.4,9.6,4,14.4L53.6,323.2z
	 M464.8,299.2l-16-3.2c0.8-4.8,1.6-10.4,2.4-15.2l16,2.4C466.4,288.8,465.6,293.6,464.8,299.2z M45.6,291.2
	c-0.8-5.6-1.6-11.2-2.4-16.8l16-1.6c0.8,4.8,0.8,10.4,1.6,15.2L45.6,291.2z M468.8,266.4l-16-0.8c0-3.2,0-6.4,0-9.6c0-1.6,0-4,0-5.6
	l16-0.8c0,2.4,0,4,0,6.4C468.8,259.2,468.8,263.2,468.8,266.4z M43.2,258.4V256c0-4.8,0-9.6,0.8-14.4l16,0.8c0,4.8-0.8,8.8-0.8,13.6
	v1.6L43.2,258.4z M452,235.2c-0.8-4.8-1.6-10.4-2.4-15.2l16-3.2c0.8,5.6,1.6,11.2,2.4,16.8L452,235.2z M60.8,227.2l-16-2.4
	c0.8-5.6,1.6-11.2,3.2-16l16,3.2C63.2,216.8,61.6,222.4,60.8,227.2z M446.4,204.8c-1.6-4.8-3.2-9.6-4.8-14.4l15.2-5.6
	c1.6,4.8,3.2,10.4,4.8,16L446.4,204.8z M68,197.6l-15.2-4.8c1.6-5.6,3.2-10.4,5.6-16l15.2,5.6C71.2,188,69.6,192.8,68,197.6z
	 M327.2,72.8c-4.8-1.6-9.6-3.2-14.4-4.8l4.8-15.2c5.6,1.6,10.4,3.2,16,5.6L327.2,72.8z M192,69.6l-5.6-15.2c5.6-1.6,10.4-3.2,16-4.8
	l4,15.2C201.6,66.4,196.8,68,192,69.6z M297.6,63.2c-4.8-0.8-10.4-1.6-15.2-2.4l2.4-16c5.6,0.8,11.2,1.6,16,3.2L297.6,63.2z
	 M221.6,62.4l-2.4-16c5.6-0.8,11.2-1.6,16.8-2.4l1.6,16C232,60.8,226.4,60.8,221.6,62.4z M267.2,59.2c-4,0-8,0-11.2,0h-4v-16
	c5.6,0,11.2,0,16.8,0L267.2,59.2z"/>
<path style="fill:#F16051;" d="M256,365.6c-60,0-109.6-48.8-109.6-109.6S196,146.4,256,146.4S365.6,196,365.6,256
	S316,365.6,256,365.6z"/>
<path style="fill:#FFFFFF;" d="M256,333.6c-42.4,0-77.6-34.4-77.6-77.6s34.4-77.6,77.6-77.6s77.6,34.4,77.6,77.6
	S298.4,333.6,256,333.6z"/>
<path style="fill:#F16051;" d="M256,301.6c-24.8,0-45.6-20-45.6-45.6c0-24.8,20-45.6,45.6-45.6s45.6,20,45.6,45.6
	C301.6,280.8,280.8,301.6,256,301.6z"/>
<path style="fill:#FFFFFF;stroke:#193651;stroke-width:2;stroke-miterlimit:10;" d="M419.2,8L419.2,8c-47.2,0-84.8,38.4-84.8,84.8
	l0,0c0,47.2,38.4,84.8,84.8,84.8l0,0c47.2,0,84.8-38.4,84.8-84.8l0,0C504,46.4,465.6,8,419.2,8z"/>
<g>
	<circle style="fill:#D3D7DA;" cx="419.2" cy="63.2" r="37.6"/>
	<path style="fill:#D3D7DA;" d="M451.2,115.2c-8.8,6.4-20,10.4-32,10.4s-23.2-4-32-10.4c-14.4,7.2-25.6,19.2-32,33.6
		c15.2,18.4,38.4,29.6,64,29.6s48.8-11.2,64-29.6C476.8,134.4,465.6,122.4,451.2,115.2z"/>
</g>
<path style="fill:#FFFFFF;stroke:#193651;stroke-width:2;stroke-miterlimit:10;" d="M92.8,8L92.8,8C46.4,8,8,46.4,8,92.8l0,0
	c0,47.2,38.4,84.8,84.8,84.8l0,0c47.2,0,84.8-38.4,84.8-84.8l0,0C177.6,46.4,140,8,92.8,8z"/>
<g>
	<circle style="fill:#2EA2DB;" cx="92.8" cy="63.2" r="37.6"/>
	<path style="fill:#2EA2DB;" d="M124.8,115.2c-8.8,6.4-20,10.4-32,10.4s-23.2-4-32-10.4c-14.4,7.2-25.6,19.2-32,33.6
		c15.2,18.4,38.4,29.6,64,29.6s48.8-11.2,64-29.6C150.4,134.4,139.2,122.4,124.8,115.2z"/>
</g>
<path style="fill:#FFFFFF;stroke:#193651;stroke-width:2;stroke-miterlimit:10;" d="M419.2,334.4L419.2,334.4
	c-47.2,0-84.8,38.4-84.8,84.8l0,0c0,47.2,38.4,84.8,84.8,84.8l0,0c46.4,0,84.8-38.4,84.8-84.8l0,0C504,372,465.6,334.4,419.2,334.4z
	"/>
<g>
	<circle style="fill:#4FBF9F;" cx="419.2" cy="389.6" r="37.6"/>
	<path style="fill:#4FBF9F;" d="M451.2,441.6c-8.8,6.4-20,10.4-32,10.4s-23.2-4-32-10.4c-14.4,7.2-25.6,19.2-32,33.6
		c15.2,18.4,38.4,29.6,64,29.6s48.8-11.2,64-29.6C476.8,460,465.6,448.8,451.2,441.6z"/>
</g>
<path style="fill:#FFFFFF;" d="M92.8,334.4L92.8,334.4C46.4,334.4,8,372,8,419.2l0,0C8,465.6,46.4,504,92.8,504l0,0
	c47.2,0,84.8-38.4,84.8-84.8l0,0C177.6,372,140,334.4,92.8,334.4z"/>
<path style="fill:#193651;" d="M92.8,512C41.6,512,0,470.4,0,419.2s41.6-92.8,92.8-92.8s92.8,41.6,92.8,92.8S144,512,92.8,512z
	 M92.8,342.4c-42.4,0-76.8,34.4-76.8,76.8S50.4,496,92.8,496s76.8-34.4,76.8-76.8S135.2,342.4,92.8,342.4z"/>
<g>
	<circle style="fill:#FDBF5E;" cx="92.8" cy="389.6" r="37.6"/>
	<path style="fill:#FDBF5E;" d="M124.8,441.6c-8.8,6.4-20,10.4-32,10.4s-23.2-4-32-10.4c-14.4,7.2-25.6,19.2-32,33.6
		c15.2,18.4,38.4,29.6,64,29.6s48.8-11.2,64-29.6C150.4,460,139.2,448.8,124.8,441.6z"/>
</g>
<g>
	<path style="fill:#193651;" d="M419.2,185.6c51.2,0,92.8-41.6,92.8-92.8S470.4,0,419.2,0s-92.8,41.6-92.8,92.8
		S368,185.6,419.2,185.6z M419.2,16c42.4,0,76.8,34.4,76.8,76.8s-34.4,76.8-76.8,76.8s-76.8-34.4-76.8-76.8
		C342.4,50.4,376.8,16,419.2,16z"/>
	<path style="fill:#193651;" d="M92.8,0C41.6,0,0,41.6,0,92.8s41.6,92.8,92.8,92.8s92.8-41.6,92.8-92.8S144,0,92.8,0z M92.8,169.6
		c-42.4,0-76.8-34.4-76.8-76.8S50.4,16,92.8,16s76.8,34.4,76.8,76.8S135.2,169.6,92.8,169.6z"/>
	<path style="fill:#193651;" d="M419.2,326.4c-51.2,0-92.8,41.6-92.8,92.8S368,512,419.2,512s92.8-41.6,92.8-92.8
		S470.4,326.4,419.2,326.4z M419.2,496c-42.4,0-76.8-34.4-76.8-76.8s34.4-76.8,76.8-76.8s76.8,34.4,76.8,76.8S461.6,496,419.2,496z"
		/>
	<path style="fill:#193651;" d="M92.8,326.4C41.6,326.4,0,368,0,419.2S41.6,512,92.8,512s92.8-41.6,92.8-92.8S144,326.4,92.8,326.4z
		 M92.8,496C50.4,496,16,461.6,16,419.2s34.4-76.8,76.8-76.8s76.8,34.4,76.8,76.8S135.2,496,92.8,496z"/>
</g>
<g>
</g>
<g>
</g>
<g>
</g>
<g>
</g>
<g>
</g>
<g>
</g>
<g>
</g>
<g>
</g>
<g>
</g>
<g>
</g>
<g>
</g>
<g>
</g>
<g>
</g>
<g>
</g>
<g>
</g>
</svg>
