<?xml version="1.0" encoding="iso-8859-1"?>
<!-- Generator: Adobe Illustrator 19.0.0, SVG Export Plug-In . SVG Version: 6.00 Build 0)  -->
<svg version="1.1" id="Capa_1" xmlns="http://www.w3.org/2000/svg" xmlns:xlink="http://www.w3.org/1999/xlink" x="0px" y="0px"
	 viewBox="0 0 512 512" style="enable-background:new 0 0 512 512;" xml:space="preserve">
<rect x="8" y="8" style="fill:#4FBF9F;" width="269.6" height="496"/>
<g>
	<rect x="44" y="40" style="fill:#FFFFFF;" width="196.8" height="432"/>
	<rect x="73.6" y="78.4" style="fill:#FFFFFF;" width="138.4" height="44.8"/>
	<rect x="73.6" y="122.4" style="fill:#FFFFFF;" width="138.4" height="44.8"/>
</g>
<g>
	<rect x="87.2" y="432" style="fill:#193651;" width="16" height="16"/>
	<rect x="134.4" y="432" style="fill:#193651;" width="16" height="16"/>
	<rect x="182.4" y="432" style="fill:#193651;" width="16" height="16"/>
</g>
<g>
	<path style="fill:#FFFFFF;" d="M479.2,229.6c0-66.4-53.6-120.8-120.8-120.8c-66.4,0-120.8,53.6-120.8,120.8v48h39.2v-48
		c0-44.8,36.8-81.6,81.6-81.6s81.6,36.8,81.6,81.6v48h39.2L479.2,229.6L479.2,229.6z"/>
	<rect x="214.4" y="278.4" style="fill:#FFFFFF;" width="289.6" height="225.6"/>
</g>
<g>
	<path style="fill:#193651;" d="M65.6,175.2H220V70.4H65.6V175.2z M204,159.2H81.6v-28.8H204V159.2z M81.6,86.4H204v28.8H81.6V86.4z
		"/>
	<path style="fill:#193651;" d="M487.2,270.4v-40c0-71.2-57.6-128.8-128.8-128.8c-27.2,0-52.8,8.8-73.6,23.2V0H0v512h512V270.4
		H487.2z M359.2,117.6c62.4,0,112.8,50.4,112.8,112.8v40h-23.2v-40c0-49.6-40-89.6-89.6-89.6s-89.6,40-89.6,89.6v40h-23.2v-40
		C246.4,168,296.8,117.6,359.2,117.6z M432.8,229.6v40H285.6v-40c0-40.8,32.8-73.6,73.6-73.6S432.8,189.6,432.8,229.6z M206.4,496
		H16V16h253.6v121.6c-24,23.2-39.2,56-39.2,92v40h-24.8V496H206.4z M496,496H222.4V286.4H496V496z"/>
</g>
<rect x="246.4" y="310.4" style="fill:#F16051;" width="225.6" height="161.6"/>
<path style="fill:#FFFFFF;" d="M382.4,377.6c0-12.8-10.4-23.2-23.2-23.2c-12.8,0-23.2,10.4-23.2,23.2c0,9.6,5.6,17.6,13.6,20.8v28.8
	h19.2v-28.8C376.8,395.2,382.4,387.2,382.4,377.6z"/>
<circle style="fill:#F16051;" cx="142.4" cy="266.4" r="24"/>
<circle style="fill:#FDBF5E;" cx="142.4" cy="335.2" r="14.4"/>
<g>
</g>
<g>
</g>
<g>
</g>
<g>
</g>
<g>
</g>
<g>
</g>
<g>
</g>
<g>
</g>
<g>
</g>
<g>
</g>
<g>
</g>
<g>
</g>
<g>
</g>
<g>
</g>
<g>
</g>
</svg>
