<?xml version="1.0" encoding="iso-8859-1"?>
<!-- Generator: Adobe Illustrator 19.0.0, SVG Export Plug-In . SVG Version: 6.00 Build 0)  -->
<svg version="1.1" id="Capa_1" xmlns="http://www.w3.org/2000/svg" xmlns:xlink="http://www.w3.org/1999/xlink" x="0px" y="0px"
	 viewBox="0 0 512 512" style="enable-background:new 0 0 512 512;" xml:space="preserve">
<path style="fill:#4FBF9F;" d="M163.2,282.4h186.4c14.4,0,25.6,11.2,25.6,25.6v60H136.8v-60C136.8,294.4,148.8,282.4,163.2,282.4z"
	/>
<g>
	<ellipse style="fill:#FFFFFF;" cx="475.2" cy="364.8" rx="28.8" ry="28.8"/>
	<ellipse style="fill:#FFFFFF;" cx="475.2" cy="146.4" rx="28.8" ry="28.8"/>
	<ellipse style="fill:#FFFFFF;" cx="256" cy="36.8" rx="28.8" ry="28.8"/>
	<ellipse style="fill:#FFFFFF;" cx="256" cy="475.2" rx="28.8" ry="28.8"/>
	<ellipse style="fill:#FFFFFF;" cx="36.8" cy="364.8" rx="28.8" ry="28.8"/>
	<ellipse style="fill:#FFFFFF;" cx="36.8" cy="146.4" rx="28.8" ry="28.8"/>
</g>
<g>
	<path style="fill:#193651;" d="M483.2,328.8L483.2,328.8V182.4c16.8-4,28.8-18.4,28.8-36c0-20-16.8-36.8-36.8-36.8
		c-11.2,0-21.6,5.6-28,13.6L292,45.6c0.8-3.2,1.6-5.6,1.6-8.8C292.8,16.8,276,0,256,0s-36.8,16.8-36.8,36.8c0,3.2,0.8,6.4,1.6,8.8
		L65.6,123.2c-6.4-8-16.8-13.6-28-13.6c-20,0-36.8,16.8-36.8,36.8c0,17.6,12.8,32,28.8,36v146.4c-16.8,4-29.6,18.4-29.6,36
		c0,20,16.8,36.8,36.8,36.8c11.2,0,20.8-4.8,28-12.8L220,466.4c-0.8,3.2-1.6,5.6-1.6,8.8c0,20,16.8,36.8,36.8,36.8
		s36.8-16.8,36.8-36.8c0-3.2-0.8-6.4-1.6-8.8l155.2-77.6c6.4,8,16.8,12.8,28,12.8c20,0,36.8-16.8,36.8-36.8
		C512,347.2,499.2,332,483.2,328.8z M475.2,125.6c11.2,0,20.8,9.6,20.8,20.8s-9.6,20.8-20.8,20.8s-20.8-9.6-20.8-20.8
		S463.2,125.6,475.2,125.6z M256,16c11.2,0,20.8,9.6,20.8,20.8s-9.6,20.8-20.8,20.8s-20.8-9.6-20.8-20.8S244.8,16,256,16z M16,146.4
		c0-11.2,9.6-20.8,20.8-20.8s20.8,9.6,20.8,20.8s-9.6,20.8-20.8,20.8S16,157.6,16,146.4z M36.8,385.6c-11.2,0-20.8-9.6-20.8-20.8
		S25.6,344,36.8,344s20.8,9.6,20.8,20.8C57.6,376,48.8,385.6,36.8,385.6z M256,496c-11.2,0-20.8-9.6-20.8-20.8
		c0-11.2,9.6-20.8,20.8-20.8c11.2,0,20.8,9.6,20.8,20.8S267.2,496,256,496z M438.4,364.8c0,3.2,0.8,6.4,1.6,9.6L284.8,452
		c-6.4-8-16.8-13.6-28.8-13.6c-11.2,0-21.6,5.6-28.8,13.6L72.8,374.4c0.8-3.2,1.6-6.4,1.6-9.6c0-17.6-12.8-32-28.8-36V182.4
		c16.8-4,28.8-18.4,28.8-36c0-3.2-0.8-6.4-1.6-8.8L228,60c6.4,8,16.8,13.6,28.8,13.6c11.2,0,21.6-5.6,28.8-13.6l155.2,77.6
		c-0.8,3.2-1.6,5.6-1.6,8.8c0,17.6,12.8,32,28.8,36v146.4C450.4,332.8,438.4,347.2,438.4,364.8z M475.2,385.6
		c-11.2,0-20.8-9.6-20.8-20.8c0-11.2,9.6-20.8,20.8-20.8s20.8,9.6,20.8,20.8S486.4,385.6,475.2,385.6z"/>
	<rect x="121.6" y="227.2" style="fill:#193651;" width="16" height="16"/>
	<rect x="374.4" y="227.2" style="fill:#193651;" width="16" height="16"/>
	<rect x="121.6" y="180.8" style="fill:#193651;" width="16" height="16"/>
	<rect x="374.4" y="180.8" style="fill:#193651;" width="16" height="16"/>
	<rect x="121.6" y="135.2" style="fill:#193651;" width="16" height="16"/>
	<rect x="374.4" y="135.2" style="fill:#193651;" width="16" height="16"/>
</g>
<polygon style="fill:#FDBF5E;" points="310.4,282.4 256.8,336 203.2,282.4 223.2,262.4 289.6,261.6 "/>
<path style="fill:#F16051;" d="M268,151.2c0,0-16.8,8.8-35.2,8.8c-19.2-0.8-24,4-28.8,17.6c0,0-0.8,28,0,32c0,0-4-14.4-11.2-18.4
	c0,0-0.8-36,0-39.2s5.6-32.8,39.2-33.6c0,0,40-3.2,65.6,0.8c0,0,9.6,3.2,6.4,15.2c0,0,16,4,16,18.4c0,0,0.8,28.8,0,37.6
	c0,0-9.6,9.6-9.6,18.4l0.8-28.8c0,0,0.8-12.8-12-17.6C298.4,162.4,293.6,162.4,268,151.2z"/>
<path style="fill:#D3D7DA;" d="M309.6,213.6c0,36-24,65.6-52.8,65.6c-29.6,0-52.8-29.6-52.8-65.6c0-12.8-4-39.2,1.6-49.6
	c9.6-17.6,32.8-16,51.2-16c20,0,47.2-0.8,56,20C316.8,176.8,309.6,202.4,309.6,213.6z"/>
<g>
</g>
<g>
</g>
<g>
</g>
<g>
</g>
<g>
</g>
<g>
</g>
<g>
</g>
<g>
</g>
<g>
</g>
<g>
</g>
<g>
</g>
<g>
</g>
<g>
</g>
<g>
</g>
<g>
</g>
</svg>
