<?xml version="1.0" encoding="iso-8859-1"?>
<!-- Generator: Adobe Illustrator 19.0.0, SVG Export Plug-In . SVG Version: 6.00 Build 0)  -->
<svg version="1.1" id="Capa_1" xmlns="http://www.w3.org/2000/svg" xmlns:xlink="http://www.w3.org/1999/xlink" x="0px" y="0px"
	 viewBox="0 0 516 516" style="enable-background:new 0 0 516 516;" xml:space="preserve">
<g>
	<rect x="456" y="9.2" style="fill:#FDBF5E;" width="50.4" height="224.8"/>
	<rect x="366.4" y="89.2" style="fill:#FDBF5E;" width="50.4" height="144.8"/>
	<rect x="276.8" y="169.2" style="fill:#FDBF5E;" width="50.4" height="64.8"/>
</g>
<g>
	<rect x="227.2" y="25.2" style="fill:#193651;" width="16" height="16"/>
	<rect x="274.4" y="25.2" style="fill:#193651;" width="16" height="16"/>
	<rect x="321.6" y="25.2" style="fill:#193651;" width="16" height="16"/>
</g>
<path style="fill:#D3D7DA;" d="M238.4,239.6v-2.4c0-37.6-24.8-69.6-58.4-81.6c-13.6,16-33.6,26.4-54.4,26.4
	c-21.6,0-40.8-10.4-55.2-26.4c-34.4,11.2-59.2,44-59.2,81.6v2.4H238.4z"/>
<g>
	<path style="fill:#FFFFFF;" d="M171.2,94c0,31.2-20.8,56.8-46.4,56.8S78.4,125.2,78.4,94c0-11.2-3.2-33.6,1.6-43.2
		c8-16,28-14.4,44.8-14.4c17.6,0,40.8-0.8,48.8,16.8C176.8,62,171.2,84.4,171.2,94z"/>
	<path style="fill:#FFFFFF;" d="M180,41.2c-0.8-12.8-14.4-16-14.4-16C168,14,160,11.6,160,11.6c-22.4-4.8-56.8-1.6-56.8-1.6
		c-29.6,0.8-33.6,27.2-34.4,29.6c0,0.8,0,3.2,0,5.6l0,0l0,0c0,2.4,0,4.8,0,8v21.6L78.4,90c0,0,4-52,57.6-52.8
		c0,0,6.4,27.2,32.8,30.4l2.4,1.6V90c0-8,8.8-16,8.8-16C180.8,66,180,41.2,180,41.2z"/>
</g>
<path style="fill:#D3D7DA;" d="M506.4,505.2v-2.4c0-37.6-24.8-69.6-58.4-81.6c-13.6,16-33.6,26.4-54.4,26.4
	c-21.6,0-40.8-10.4-55.2-26.4c-34.4,11.2-59.2,44-59.2,81.6v2.4H506.4z"/>
<g>
	<path style="fill:#FFFFFF;" d="M440,358.8c0,31.2-20.8,56.8-46.4,56.8s-46.4-25.6-46.4-56.8c0-11.2-3.2-33.6,1.6-43.2
		c8-16,28-14.4,44.8-14.4c17.6,0,40.8-0.8,48.8,16.8C445.6,326.8,440,349.2,440,358.8z"/>
	<path style="fill:#FFFFFF;" d="M448.8,306c-0.8-12.8-14.4-16-14.4-16c2.4-11.2-5.6-13.6-5.6-13.6c-22.4-4-56.8-0.8-56.8-0.8
		c-29.6,0.8-33.6,27.2-34.4,29.6c0,0.8,0,3.2,0,5.6l0,0l0,0c0,2.4,0,4.8,0,8v21.6l10.4,14.4c0,0,4-52,57.6-52.8
		c0,0,6.4,27.2,32.8,30.4l2.4,1.6v20.8c0-8,8.8-16,8.8-16C449.6,330.8,448.8,306,448.8,306z"/>
	<path style="fill:#FFFFFF;" d="M240.8,445.2l12.8-32l-22.4-13.6c1.6-12,1.6-24-0.8-35.2l22.4-14.4l-13.6-31.2l-25.6,6.4
		c-7.2-9.6-15.2-17.6-25.6-24l5.6-25.6l-32-12.8L148,285.2c-12-1.6-24-1.6-35.2,0.8l-14.4-22.4l-31.2,13.6l6.4,25.6
		C64,310,56,318,49.6,328.4L24,322.8l-12.8,32l22.4,13.6c-1.6,12-1.6,24,0.8,35.2L12,418l13.6,31.2l25.6-7.2
		c7.2,9.6,15.2,17.6,25.6,24l-5.6,25.6l32,12.8l13.6-22.4c12,1.6,24,1.6,35.2-0.8l14.4,22.4l31.2-13.6l-6.4-25.6
		c9.6-7.2,17.6-15.2,24-25.6L240.8,445.2z"/>
	<circle style="fill:#FFFFFF;" cx="132" cy="383.6" r="44.8"/>
</g>
<g>
	<path style="fill:#193651;" d="M451.2,413.2l-4.8-1.6l-3.2,4c-12.8,15.2-30.4,23.2-48.8,23.2s-36-8.8-48.8-24l-3.2-4l-4.8,1.6
		c-39.2,12.8-64.8,48.8-64.8,89.6v10.4H516V502C514.4,462,488.8,426,451.2,413.2z M287.2,497.2c2.4-30.4,20.8-56,48.8-67.2
		c16,16,36,25.6,57.6,25.6s41.6-8.8,56.8-24.8c27.2,11.2,45.6,37.6,48,67.2H287.2V497.2z"/>
	<path style="fill:#193651;" d="M328.8,310.8c0,2.4,0,32.8,0,32.8l10.4,14.4v0.8c0,36,24,64.8,54.4,64.8c29.6,0,54.4-29.6,54.4-64.8
		c0-1.6,0-4,0.8-6.4s4-6.4,5.6-8l2.4-2.4v-3.2c0.8-8,0-31.2,0-33.6c0-11.2-7.2-17.6-13.6-20.8c-0.8-8.8-7.2-14.4-12-16h-0.8
		c-8-1.6-18.4-2.4-31.2-2.4c-15.2,0-28,0.8-28,0.8c-12,0-34.4,5.6-41.6,35.2C328.8,303.6,328.8,305.2,328.8,310.8z M432,354.8
		L432,354.8c0,1.6,0,3.2,0,4c0,27.2-16.8,48.8-38.4,48.8c-20.8,0-38.4-22.4-38.4-48.8c0-1.6,0-3.2,0-5.6c0.8-8,8-39.2,44-43.2
		c4,8.8,12.8,24.8,32.8,29.6V354.8L432,354.8z M344.8,310.8c0-1.6,0-3.2,0-4V306c4-14.4,12-21.6,27.2-22.4c0,0,12.8-0.8,26.4-0.8
		c11.2,0,20,0.8,27.2,1.6c0.8,0,0.8,0.8,0,4l-1.6,7.2l7.2,2.4c0.8,0,8,2.4,8,8.8c0,4,0,12,0,18.4l-2.4-0.8
		c-20.8-2.4-25.6-24-26.4-24.8l-1.6-6.4h-6.4c-33.6,0.8-52,19.2-60,37.6C344.8,331.6,344.8,313.2,344.8,310.8z"/>
	<path style="fill:#193651;" d="M448,1.2V242h66.4V1.2H448z M498.4,226H464V17.2h34.4V226z"/>
	<path style="fill:#193651;" d="M424.8,81.2h-66.4V242h66.4V81.2z M408.8,226h-34.4V97.2h34.4V226z"/>
	<path style="fill:#193651;" d="M335.2,161.2h-66.4V242h66.4V161.2z M319.2,226h-34.4v-48.8h34.4V226z"/>
	<path style="fill:#193651;" d="M71.2,94c0,36,24,64.8,54.4,64.8S180,129.2,180,94c0-1.6,0-4,0.8-6.4s4-6.4,5.6-8l2.4-2.4V74
		c0.8-8,0-31.2,0-33.6c0-11.2-7.2-17.6-13.6-20.8c-0.8-8.8-7.2-14.4-12-16h-0.8c-8-1.6-18.4-2.4-31.2-2.4c-15.2,0-28,0.8-28,0.8
		c-12,0-34.4,5.6-41.6,35.2c-0.8,1.6-0.8,3.2-1.6,8c0,2.4,0,32.8,0,32.8l10.4,14.4C71.2,93.2,71.2,93.2,71.2,94z M163.2,90L163.2,90
		c0,1.6,0,3.2,0,4c0,27.2-16.8,48.8-38.4,48.8S86.4,120.4,86.4,94c0-1.6,0-3.2,0-4.8l0,0c0.8-7.2,7.2-40,44-43.2
		c4,8.8,12.8,24.8,32.8,29.6V90L163.2,90z M76,46c0-1.6,0-3.2,0-4v-0.8C80,26,88.8,18.8,103.2,18c0,0,12.8-0.8,26.4-0.8
		c11.2,0,20,0.8,27.2,1.6c0.8,0,0.8,0.8,0,4l-1.6,8l8,1.6c0,0,8,2.4,8,8.8c0,4,0,12,0,18.4l-2.4-0.8c-20.8-2.4-25.6-24-26.4-24.8
		l-1.6-6.4h-6.4c-33.6,0.8-52,19.2-60,37.6V52.4C76,50.8,76,48.4,76,46z"/>
	<path style="fill:#193651;" d="M246.4,237.2c0-40-25.6-76-64-88.8l-4.8-2.4l-3.2,4c-12.8,15.2-30.4,23.2-48.8,23.2s-36-8.8-48.8-24
		l-4-3.2l-4.8,1.6c-39.2,12.8-64.8,48.8-64.8,89.6v10.4h243.2L246.4,237.2L246.4,237.2z M18.4,231.6c2.4-30.4,20.8-56,48.8-67.2
		c16,16,36,25.6,57.6,25.6s41.6-8.8,56.8-24.8c27.2,11.2,45.6,37.6,48,67.2H18.4V231.6z"/>
	<path style="fill:#193651;" d="M238.4,368.4l23.2-15.2l-19.2-44l-27.2,7.2c-5.6-7.2-12-13.6-19.2-18.4l5.6-27.2l-44.8-17.6
		l-14.4,24c-8.8-0.8-18.4-0.8-27.2,0.8L100,254.8L56,274l7.2,27.2c-7.2,5.6-13.6,12-18.4,19.2l-27.2-5.6L0,359.6L24,374
		c-0.8,8.8-0.8,18.4,0.8,27.2L1.6,414.8l19.2,44l27.2-7.2c5.6,7.2,12,13.6,19.2,18.4l-5.6,27.2l44.8,17.6l14.4-24
		c8.8,0.8,18.4,0.8,27.2-0.8l15.2,23.2l44-19.2l-7.2-27.2c7.2-5.6,13.6-12,18.4-19.2l27.2,5.6l17.6-44.8l-24-14.4
		C240,386,240,377.2,238.4,368.4z M243.2,416.4l-7.2,19.2l-24.8-5.6l-3.2,4.8c-6.4,8.8-13.6,16.8-22.4,23.2l-4.8,3.2l6.4,24l-19.2,8
		l-13.6-20.8l-4.8,1.6c-10.4,2.4-21.6,2.4-32,0.8L112,474l-12.8,21.6L80,488.4l5.6-24.8l-4.8-3.2C72,454,64,446.8,57.6,438l-3.2-4.8
		l-24,6.4l-8-19.2l20.8-13.6l-1.6-4.8c-2.4-10.4-2.4-21.6-0.8-32l0.8-5.6L20,351.6l7.2-19.2L52,338l3.2-4.8
		c6.4-8.8,13.6-16.8,22.4-23.2l4.8-3.2l-6.4-24l19.2-8l13.6,20.8l5.6-0.8c10.4-2.4,21.6-2.4,32-0.8l5.6,0.8l12.8-21.6l19.2,7.2
		l-5.6,24.8l4.8,3.2c8.8,6.4,16.8,13.6,23.2,22.4l3.2,4.8l24-6.4l8,19.2L220.8,362l0.8,5.6c2.4,10.4,2.4,21.6,0.8,32l-0.8,5.6
		L243.2,416.4z"/>
	<path style="fill:#193651;" d="M132,331.6c-28.8,0-52.8,23.2-52.8,52.8c0,28.8,23.2,52.8,52.8,52.8s52.8-23.2,52.8-52.8
		C184,354.8,160.8,331.6,132,331.6z M132,420.4c-20,0-36.8-16-36.8-36.8c0-20,16-36.8,36.8-36.8c20,0,36.8,16,36.8,36.8
		C168,403.6,152,420.4,132,420.4z"/>
</g>
<g>
</g>
<g>
</g>
<g>
</g>
<g>
</g>
<g>
</g>
<g>
</g>
<g>
</g>
<g>
</g>
<g>
</g>
<g>
</g>
<g>
</g>
<g>
</g>
<g>
</g>
<g>
</g>
<g>
</g>
</svg>
