<?xml version="1.0" encoding="iso-8859-1"?>
<!-- Generator: Adobe Illustrator 19.0.0, SVG Export Plug-In . SVG Version: 6.00 Build 0)  -->
<svg version="1.1" id="Capa_1" xmlns="http://www.w3.org/2000/svg" xmlns:xlink="http://www.w3.org/1999/xlink" x="0px" y="0px"
	 viewBox="0 0 512 512" style="enable-background:new 0 0 512 512;" xml:space="preserve">
<rect x="8" y="88" style="fill:#FFFFFF;" width="496" height="350.4"/>
<rect x="40" y="120" style="fill:#2EA2DB;" width="432" height="258.4"/>
<g>
	<rect x="64" y="282.4" style="fill:#193651;" width="16" height="16"/>
	<rect x="72" y="338.4" style="fill:#193651;" width="16" height="16"/>
	<rect x="64" y="314.4" style="fill:#193651;" width="16" height="16"/>
	<rect x="104" y="338.4" style="fill:#193651;" width="16" height="16"/>
	<rect x="64" y="154.4" style="fill:#193651;" width="16" height="16"/>
	<rect x="136" y="338.4" style="fill:#193651;" width="16" height="16"/>
	<rect x="64" y="250.4" style="fill:#193651;" width="16" height="16"/>
	<rect x="64" y="186.4" style="fill:#193651;" width="16" height="16"/>
	<rect x="64" y="218.4" style="fill:#193651;" width="16" height="16"/>
	<rect x="168" y="338.4" style="fill:#193651;" width="16" height="16"/>
	<rect x="328" y="338.4" style="fill:#193651;" width="16" height="16"/>
	<rect x="360" y="338.4" style="fill:#193651;" width="16" height="16"/>
	<rect x="392" y="338.4" style="fill:#193651;" width="16" height="16"/>
	<rect x="424" y="338.4" style="fill:#193651;" width="16" height="16"/>
	<rect x="264" y="338.4" style="fill:#193651;" width="16" height="16"/>
	<rect x="232" y="338.4" style="fill:#193651;" width="16" height="16"/>
	<rect x="200" y="338.4" style="fill:#193651;" width="16" height="16"/>
	<rect x="296" y="338.4" style="fill:#193651;" width="16" height="16"/>
	<rect x="201.3" y="397.6" style="fill:#193651;" width="15" height="16"/>
	<rect x="248.5" y="397.6" style="fill:#193651;" width="15" height="16"/>
	<rect x="295.7" y="397.6" style="fill:#193651;" width="15" height="16"/>
</g>
<g>
	<polygon style="fill:#FFFFFF;" points="311.2,438.4 200.8,438.4 182.4,504 329.6,504 	"/>
	<path style="fill:#FFFFFF;" d="M142.4,312.8h330.4c17.6,0,31.2-14.4,31.2-31.2V39.2H111.2v243.2
		C111.2,299.2,124.8,312.8,142.4,312.8z"/>
	<path style="fill:#FFFFFF;" d="M143.2,8c-17.6,0-32.8,14.4-32.8,32.8v230.4c0-17.6,14.4-32.8,32.8-32.8c17.6,0,32.8,14.4,32.8,32.8
		V40.8C176,22.4,161.6,8,143.2,8z"/>
	<path style="fill:#FFFFFF;" d="M471.2,8c-17.6,0-32.8,14.4-32.8,32.8v230.4c0-17.6,14.4-32.8,32.8-32.8c17.6,0,32.8,14.4,32.8,32.8
		V40.8C504,22.4,489.6,8,471.2,8z"/>
</g>
<path style="fill:#193651;" d="M512,40.8C512,18.4,493.6,0,471.2,0C452,0,436,13.6,432,31.2H182.4c-4-17.6-20-31.2-39.2-31.2
	c-22.4,0-40.8,18.4-40.8,40.8V80H0v366.4h190.4L176,496h-15.2v16h190.4v-16H336l-14.4-49.6H512c0,0-0.8-155.2-1.6-155.2
	c0.8-3.2,1.6-6.4,1.6-9.6V40.8z M192.8,496l14.4-49.6h97.6l14.4,49.6H192.8z M447.2,40.8c0-13.6,11.2-24.8,24.8-24.8
	c12.8,0,24,11.2,24,24.8v197.6c-6.4-4.8-15.2-8-24.8-8c-8.8,0-17.6,3.2-24.8,8V40.8H447.2z M176,278.4c4.8,0,8-3.2,8-8V47.2h247.2
	v223.2c0,4.8,3.2,8,8,8s8-3.2,8-8c0-13.6,11.2-24.8,24.8-24.8c13.6,0,24.8,11.2,24.8,24.8v11.2c0,12.8-10.4,23.2-23.2,23.2H142.4
	c-12.8,0-23.2-10.4-23.2-23.2v-11.2c0-13.6,11.2-24.8,24.8-24.8s24.8,11.2,24.8,24.8C168,275.2,172,278.4,176,278.4z M119.2,40.8
	c0-13.6,11.2-24.8,24.8-24.8c12.8,0,24,11.2,24,24.8v197.6c-6.4-4.8-15.2-8-24.8-8c-8.8,0-17.6,3.2-24.8,8V40.8H119.2z M16,430.4V96
	h87.2v185.6c0,21.6,17.6,39.2,39.2,39.2h330.4c8.8,0,16.8-3.2,23.2-8v117.6L16,430.4L16,430.4z"/>
<polygon style="fill:#D3D7DA;" points="198.4,265.6 256,188 303.2,229.6 364,144 416.8,265.6 "/>
<path style="fill:#2EA2DB;" d="M290.4,93.6c-1.6-5.6-7.2-9.6-13.6-9.6c-2.4,0-5.6,0.8-7.2,2.4c-3.2-10.4-12.8-17.6-24-17.6
	c-13.6,0-24.8,11.2-24.8,24.8v0.8c-9.6,3.2-16,12-16,22.4c0,12.8,10.4,23.2,23.2,23.2s43.2,0,56,0s23.2-10.4,23.2-23.2
	C307.2,104.8,300.8,96,290.4,93.6z"/>
<g>
</g>
<g>
</g>
<g>
</g>
<g>
</g>
<g>
</g>
<g>
</g>
<g>
</g>
<g>
</g>
<g>
</g>
<g>
</g>
<g>
</g>
<g>
</g>
<g>
</g>
<g>
</g>
<g>
</g>
</svg>
