<?xml version="1.0" encoding="iso-8859-1"?>
<!-- Generator: Adobe Illustrator 19.0.0, SVG Export Plug-In . SVG Version: 6.00 Build 0)  -->
<svg xmlns="http://www.w3.org/2000/svg" xmlns:xlink="http://www.w3.org/1999/xlink" version="1.1" id="Layer_1" x="0px" y="0px" viewBox="0 0 491.52 491.52" style="enable-background:new 0 0 491.52 491.52;" xml:space="preserve" width="512px" height="512px">
<g>
	<g>
		<polygon points="20.48,471.04 20.48,0 0,0 0,491.52 491.52,491.52 491.52,471.04   " fill="#FFFFFF"/>
	</g>
</g>
<g>
	<g>
		<path d="M399.36,184.32v245.76h92.16V184.32H399.36z M471.04,409.6h-51.2V204.8h51.2V409.6z" fill="#FFFFFF"/>
	</g>
</g>
<g>
	<g>
		<path d="M286.72,226.04v204.04h92.16V226.04H286.72z M358.4,409.6h-51.2V246.52h51.2V409.6z" fill="#FFFFFF"/>
	</g>
</g>
<g>
	<g>
		<path d="M174.08,342.85v87.23h92.16v-87.23H174.08z M245.76,409.6h-51.2v-46.27h51.2V409.6z" fill="#FFFFFF"/>
	</g>
</g>
<g>
	<g>
		<path d="M61.44,292.79v137.29h92.16V292.79H61.44z M133.12,409.6h-51.2v-96.33h51.2V409.6z" fill="#FFFFFF"/>
	</g>
</g>
<g>
</g>
<g>
</g>
<g>
</g>
<g>
</g>
<g>
</g>
<g>
</g>
<g>
</g>
<g>
</g>
<g>
</g>
<g>
</g>
<g>
</g>
<g>
</g>
<g>
</g>
<g>
</g>
<g>
</g>
</svg>
