<?xml version="1.0" encoding="iso-8859-1"?>
<!-- Generator: Adobe Illustrator 19.0.0, SVG Export Plug-In . SVG Version: 6.00 Build 0)  -->
<svg xmlns="http://www.w3.org/2000/svg" xmlns:xlink="http://www.w3.org/1999/xlink" version="1.1" id="Layer_1" x="0px" y="0px" viewBox="0 0 491.52 491.52" style="enable-background:new 0 0 491.52 491.52;" xml:space="preserve" width="512px" height="512px">
<g>
	<g>
		<polygon points="348.16,71.682 348.16,92.163 384.88,92.163 299.48,177.562 238.04,116.122 145.88,208.283 115.16,177.562     64.44,228.283 78.92,242.762 115.16,206.523 145.88,237.242 238.04,145.083 299.48,206.523 399.36,106.643 399.36,143.362     419.84,143.362 419.84,71.682   " fill="#FFFFFF"/>
	</g>
</g>
<g>
	<g>
		<path d="M491.52,20.482V0.002H460.8H30.72H0v20.48h30.72v256H0v20.48h30.72h101.119l-53.364,154.08    c-2.615,7.775-2.04,16.105,1.615,23.45c3.655,7.34,9.95,12.82,17.73,15.43c3.23,1.08,6.515,1.595,9.75,1.595    c12.84,0,24.835-8.1,29.12-20.85l60.055-173.705h18.295v133.12c0,16.94,13.78,30.72,30.72,30.72s30.72-13.78,30.72-30.72v-133.12    h18.296l60.034,173.62c4.305,12.82,16.305,20.935,29.145,20.935c3.23,0,6.515-0.515,9.745-1.595    c7.78-2.61,14.08-8.09,17.735-15.43c3.655-7.345,4.23-15.675,1.585-23.54l-53.334-153.99H460.8h30.72v-20.48H460.8v-256H491.52z     M117.305,464.063c-1.795,5.345-7.61,8.255-12.975,6.44c-2.59-0.87-4.69-2.695-5.905-5.14c-1.215-2.44-1.405-5.21-0.57-7.71    l55.655-160.69h21.563L117.305,464.063z M256,430.083c0,5.645-4.595,10.24-10.24,10.24s-10.24-4.595-10.24-10.24v-133.12H256    V430.083z M393.64,457.563c0.865,2.59,0.675,5.36-0.54,7.8c-1.215,2.445-3.315,4.27-5.91,5.14    c-5.345,1.815-11.17-1.095-12.995-6.525l-57.746-167.015h21.566L393.64,457.563z M440.32,276.482H276.48h-61.44H51.2v-256h389.12    V276.482z" fill="#FFFFFF"/>
	</g>
</g>
<g>
</g>
<g>
</g>
<g>
</g>
<g>
</g>
<g>
</g>
<g>
</g>
<g>
</g>
<g>
</g>
<g>
</g>
<g>
</g>
<g>
</g>
<g>
</g>
<g>
</g>
<g>
</g>
<g>
</g>
</svg>
