<?xml version="1.0" encoding="iso-8859-1"?>
<!-- Generator: Adobe Illustrator 19.0.0, SVG Export Plug-In . SVG Version: 6.00 Build 0)  -->
<svg version="1.1" id="Capa_1" xmlns="http://www.w3.org/2000/svg" xmlns:xlink="http://www.w3.org/1999/xlink" x="0px" y="0px"
	 viewBox="0 0 512 512" style="enable-background:new 0 0 512 512;" xml:space="preserve">
<g>
	<rect x="236" y="321.6" style="fill:#193651;" width="16" height="16"/>
	<rect x="283.2" y="321.6" style="fill:#193651;" width="16" height="16"/>
	<rect x="330.4" y="321.6" style="fill:#193651;" width="16" height="16"/>
</g>
<rect x="46.4" y="100" style="fill:#FFFFFF;" width="159.2" height="124"/>
<path style="fill:#193651;" d="M126.4,133.6c-10.4,0-18.4,8-18.4,18.4c0,7.2,4,13.6,10.4,16.8v22.4h15.2V168
	c6.4-3.2,10.4-8.8,10.4-16.8C144,141.6,136,133.6,126.4,133.6z"/>
<path style="fill:#F16051;" d="M174.4,429.6H77.6C39.2,429.6,8,460.8,8,499.2v4.8h236v-4.8C244,460.8,212.8,429.6,174.4,429.6z"/>
<g>
	<polygon style="fill:#FFFFFF;" points="159.2,394.4 159.2,380.8 92.8,380.8 92.8,395.2 73.6,428.8 126.4,476 180,428.8 	"/>
	<path style="fill:#FFFFFF;" d="M174.4,356c0,32.8-21.6,59.2-48,59.2s-48-26.4-48-59.2c0-12-3.2-35.2,1.6-44.8
		c8.8-16,29.6-14.4,46.4-14.4c18.4,0,42.4-0.8,50.4,17.6C180.8,322.4,174.4,345.6,174.4,356z"/>
	<path style="fill:#FFFFFF;" d="M184,300.8c-0.8-12.8-14.4-16.8-14.4-16.8c2.4-11.2-5.6-13.6-5.6-13.6c-23.2-4-59.2-0.8-59.2-0.8
		c-30.4,0.8-34.4,28-35.2,30.4c0,0.8,0,3.2,0,6.4l0,0l0,0c0,2.4,0,5.6,0,8v22.4L80,351.2c0,0,4-53.6,60-55.2c0,0,6.4,28.8,34.4,32
		l2.4,1.6v21.6c0-8,8.8-16.8,8.8-16.8C184.8,326.4,184,300.8,184,300.8z"/>
</g>
<path style="fill:#4FBF9F;" d="M434.4,169.6h-96.8c-38.4,0-69.6,31.2-69.6,69.6v4.8h236v-4C504,200.8,472.8,169.6,434.4,169.6z"/>
<g>
	<polygon style="fill:#FFFFFF;" points="419.2,134.4 419.2,120.8 352.8,120.8 352.8,135.2 333.6,168.8 386.4,216.8 440,168.8 	"/>
	<path style="fill:#FFFFFF;" d="M434.4,96c0,32.8-21.6,59.2-48,59.2s-48-26.4-48-59.2c0-12-3.2-35.2,1.6-44.8
		c8.8-16,29.6-14.4,46.4-14.4c18.4,0,42.4-0.8,50.4,17.6C440.8,63.2,434.4,85.6,434.4,96z"/>
	<path style="fill:#FFFFFF;" d="M444,40.8C443.2,28,428.8,24,428.8,24c2.4-11.2-5.6-13.6-5.6-13.6C400,6.4,364,9.6,364,9.6
		c-31.2,0-35.2,27.2-36,30.4c0,0.8,0,3.2,0,6.4l0,0l0,0c0,2.4,0,5.6,0,8v22.4l10.4,14.4c0,0,4-53.6,60-55.2c0,0,6.4,28.8,34.4,32
		l2.4,1.6v21.6c0-8,8.8-16.8,8.8-16.8C444.8,66.4,444,40.8,444,40.8z"/>
</g>
<g>
	<path style="fill:#193651;" d="M213.6,92h-15.2V72.8c0-40-32.8-72.8-72.8-72.8S52.8,32.8,52.8,72.8V92H38.4v140h175.2V92z
		 M69.6,72.8c0-31.2,25.6-56.8,56.8-56.8s56.8,25.6,56.8,56.8V92H69.6V72.8z M197.6,216H54.4V108h143.2V216z"/>
	<path style="fill:#193651;" d="M185.6,423.2l-15.2-25.6c7.2-11.2,12-25.6,12-41.6c0-0.8,0-2.4,0-4.8H176h7.2c0-3.2,4-8,6.4-10.4
		l2.4-2.4v-3.2c0.8-8.8,0-32.8,0-35.2c0-11.2-7.2-18.4-14.4-21.6c-0.8-9.6-7.2-15.2-12-16.8h-0.8c-8.8-1.6-19.2-2.4-32-2.4
		c-16,0-28.8,0.8-28.8,0.8c-12.8,0-35.2,5.6-43.2,36c-0.8,1.6-0.8,3.2-0.8,8.8c0,2.4,0,5.6,0,8v25.6l11.2,15.2c0,0.8,0,0.8,0,1.6
		c0,15.2,4.8,29.6,12,40.8l-14.4,25.6C29.6,427.2,0,460,0,499.2V512h252v-12.8C252,460.8,223.2,428.8,185.6,423.2z M76,329.6v-15.2
		c0-3.2,0-5.6,0-8c0-1.6,0-3.2,0-4.8v-0.8c4-15.2,12.8-23.2,28-23.2c0,0,12.8-0.8,28-0.8c11.2,0,20.8,0.8,28.8,1.6c0,0,0.8,0.8,0,4
		l-1.6,7.2l7.2,2.4c0.8,0,8.8,2.4,8.8,9.6c0,4,0,12.8,0,20l-2.4-0.8c-21.6-2.4-27.2-24.8-27.2-25.6l-1.6-6.4h-6.4
		C102.4,289.6,84,309.6,76,329.6z M167.2,352c0,1.6,0,3.2,0,4c0,28-17.6,51.2-40,51.2s-40-23.2-40-51.2c0-0.8,0-2.4,0-3.2l0,0V352
		c0-1.6,3.2-43.2,46.4-47.2c4,9.6,13.6,26.4,34.4,30.4L167.2,352L167.2,352z M93.6,410.4c9.6,8,20.8,12.8,32.8,12.8
		s23.2-4.8,32.8-12.8l10.4,16.8l-43.2,38.4L84,427.2L93.6,410.4z M16,496c1.6-30.4,25.6-55.2,56-57.6l54.4,48.8l54.4-48.8
		c29.6,3.2,52.8,28,54.4,57.6H16z"/>
	<path style="fill:#193651;" d="M445.6,163.2l-15.2-25.6c7.2-11.2,12-25.6,12-41.6c0-1.6,0-4,0.8-7.2s4-6.4,5.6-8l2.4-2.4
		c0,0,0.8-35.2,0-38.4c0-11.2-7.2-18.4-14.4-21.6c-0.8-9.6-7.2-15.2-12-16.8H424C416,0.8,404.8,0,392,0c-16,0-28.8,0.8-28.8,0.8
		c-12.8,0-35.2,5.6-43.2,36c0,1.6,0,3.2,0,8.8c0,2.4,0,34.4,0,34.4l11.2,15.2c0,0.8,0,0.8,0,1.6c0,15.2,4.8,29.6,12,40.8L328,162.4
		c-38.4,5.6-68,37.6-68,77.6v12.8h252V240C512,200.8,483.2,168.8,445.6,163.2z M426.4,92c0,1.6,0,3.2,0,4c0,28-17.6,51.2-40,51.2
		s-40-23.2-40-51.2c0-0.8,0-2.4,0-4l0,0c0-2.4,4-43.2,46.4-47.2c4,9.6,13.6,26.4,34.4,30.4L426.4,92L426.4,92z M386.4,163.2
		c12,0,23.2-4.8,32.8-12.8l10.4,16.8l-43.2,38.4L344,167.2l9.6-16.8C363.2,158.4,374.4,163.2,386.4,163.2z M336,46.4
		c0-1.6,0-3.2,0-4.8v-0.8c4-15.2,12.8-23.2,28-23.2c0,0,12.8-0.8,28-0.8c11.2,0,20.8,0.8,28.8,1.6c0,0,0.8,0.8,0,4l-1.6,7.2l8,2.4
		c0.8,0,8.8,2.4,8.8,9.6c0,4,0,12.8,0,20l-2.4-0.8C412,58.4,406.4,36,406.4,35.2l-1.6-6.4h-6.4c-36,0.8-54.4,20.8-62.4,40.8
		C336,69.6,336,48.8,336,46.4z M276,236c1.6-30.4,25.6-55.2,56-57.6l54.4,48.8l55.2-48.8c29.6,3.2,52.8,28,54.4,57.6H276z"/>
	<path style="fill:#193651;" d="M416,376l-11.2,11.2l20.8,20.8c1.6,1.6,2.4,3.2,2.4,5.6s-0.8,4-2.4,5.6l-74.4,74.4
		c-1.6,1.6-3.2,2.4-5.6,2.4l0,0c-2.4,0-4-0.8-5.6-2.4L301.6,456c-3.2-3.2-3.2-8,0-11.2l35.2-35.2l-11.2-11.2l-35.2,35.2
		c-9.6,9.6-9.6,24.8,0,33.6l37.6,37.6c4.8,4.8,10.4,7.2,16.8,7.2l0,0c6.4,0,12.8-2.4,16.8-7.2l74.4-74.4c4.8-4.8,7.2-10.4,7.2-16.8
		s-2.4-12.8-7.2-16.8L416,376z"/>
	<path style="fill:#193651;" d="M467.2,290.4c-9.6-9.6-24.8-9.6-33.6,0l-74.4,74.4c-4.8,4.8-7.2,10.4-7.2,16.8s2.4,12.8,7.2,16.8
		l20.8,20.8l11.2-11.2l-20.8-20.8c-1.6-1.6-2.4-3.2-2.4-5.6s0.8-4,2.4-5.6l74.4-74.4c3.2-3.2,8-3.2,11.2,0l37.6,37.6
		c1.6,1.6,2.4,3.2,2.4,5.6s-0.8,4-2.4,5.6l-35.2,35.2l11.2,11.2l35.2-35.2c4.8-4.8,7.2-10.4,7.2-16.8s-2.4-12.8-7.2-16.8
		L467.2,290.4z"/>
</g>
<g>
</g>
<g>
</g>
<g>
</g>
<g>
</g>
<g>
</g>
<g>
</g>
<g>
</g>
<g>
</g>
<g>
</g>
<g>
</g>
<g>
</g>
<g>
</g>
<g>
</g>
<g>
</g>
<g>
</g>
</svg>
